{
.appVersion = "1141";
classes = (
{
automatic = 1;
code = "A B C D E F G H I J K L M N O P Q R S T U V W X Y Z Agrave Aacute Acircumflex Atilde Amacron Abreve Adieresis Aring Aogonek AE Cacute Ccircumflex Cdotaccent Ccaron Ccedilla Dcaron Dcroat Egrave Eacute Ecircumflex Emacron Ebreve Edotaccent Edieresis Ecaron Eogonek Gcircumflex Gbreve Gdotaccent Gcommaaccent Hcircumflex Hbar Igrave Iacute Icircumflex Itilde Imacron Ibreve Idotaccent Idieresis Iogonek IJ Jcircumflex Kcommaaccent Lacute Lcommaaccent Lcaron Ldot Lslash Nacute Ntilde Ncaron Eng Ncommaaccent Ograve Oacute Ocircumflex Otilde Omacron Obreve Odieresis Ohungarumlaut Oslash OE Racute Rcaron Rcommaaccent Sacute Scircumflex Scaron Scommaaccent Scedilla Germandbls Tcaron Tcommaaccent Tcedilla Tbar Ugrave Uacute Ucircumflex Utilde Umacron Ubreve Udieresis Uring Uhungarumlaut Uogonek Wgrave Wacute Wcircumflex Wdieresis Ygrave Yacute Ycircumflex Ydieresis Zacute Zdotaccent Zcaron Eth Thorn Germandbls.c2sc Q.ss02";
name = Uppercase;
}
);
copyright = "Copyright (c) 2011 by Anna Giedrys. All rights reserved. Reserved Font Name: Signika.";
customParameters = (
{
name = trademark;
value = "Signika Light is a trademark of Anna Giedrys.";
},
{
name = openTypeOS2Type;
value = (
2
);
},
{
name = glyphOrder;
value = (
.notdef,
NULL,
CR,
space,
nbspace,
A,
B,
C,
D,
E,
F,
G,
H,
I,
J,
K,
L,
M,
N,
O,
P,
Q,
R,
S,
T,
U,
V,
W,
X,
Y,
Z,
a,
b,
c,
d,
e,
f,
g,
h,
i,
j,
k,
l,
m,
n,
o,
p,
q,
r,
s,
t,
u,
v,
w,
x,
y,
z,
a.smcp,
b.smcp,
c.smcp,
d.smcp,
e.smcp,
f.smcp,
g.smcp,
h.smcp,
i.smcp,
j.smcp,
k.smcp,
l.smcp,
m.smcp,
n.smcp,
o.smcp,
p.smcp,
q.smcp,
r.smcp,
s.smcp,
t.smcp,
u.smcp,
v.smcp,
w.smcp,
x.smcp,
y.smcp,
z.smcp,
quotesingle,
quotedbl,
numbersign,
ampersand,
asterisk,
comma,
hyphen,
hyphen.case,
softhyphen,
period,
colon,
semicolon,
question,
exclam,
questiondown,
exclamdown,
at,
parenleft,
parenright,
bracketleft,
bracketright,
braceleft,
braceright,
backslash,
slash,
brokenbar,
bar,
asciicircum,
underscore,
asciitilde,

glyphs = (
{
glyphname = A;
lastChange = "2018-10-16 19:32:45 +0000";
layers = (
{
anchors = (
{
name = bottom_U;
position = "{297, -20}";
},
{
name = top_U;
position = "{297, 732}";
}
);
layerId = UUID0;
paths = (
{
closed = 1;
nodes = (
"27 4 LINE",
"29 1 LINE",
"40 -2 OFFCURVE",
"49 -4 OFFCURVE",
"64 -4 CURVE SMOOTH",
"75 -4 OFFCURVE",
"87 -3 OFFCURVE",
"96 -1 CURVE",
"257 489 LINE SMOOTH",
"265 514 OFFCURVE",
"280 566 OFFCURVE",
"290 604 CURVE",
"295 604 LINE",
"307 560 OFFCURVE",
"326 498 OFFCURVE",
"346 439 CURVE SMOOTH",
"481 31 LINE SMOOTH",
"491 2 OFFCURVE",
"501 -6 OFFCURVE",
"524 -6 CURVE SMOOTH",
"542 -6 OFFCURVE",
"556 -3 OFFCURVE",
"567 4 CURVE",
"337 683 LINE",
"329 685 OFFCURVE",
"309 686 OFFCURVE",
"298 686 CURVE SMOOTH",
"286 686 OFFCURVE",
"267 685 OFFCURVE",
"256 683 CURVE"
);
},
{
closed = 1;
nodes = (
"360 179 LINE SMOOTH",
"366 179 OFFCURVE",
"431 180 OFFCURVE",
"438 180 CURVE",
"465 180 LINE",
"444 242 LINE",
"420 242 LINE",
"413 242 OFFCURVE",
"358 243 OFFCURVE",
"352 243 CURVE SMOOTH",
"235 243 LINE SMOOTH",
"229 243 OFFCURVE",
"176 242 OFFCURVE",
"169 242 CURVE",
"145 242 LINE",
"122 180 LINE",
"149 180 LINE",
"156 180 OFFCURVE",
"220 179 OFFCURVE",
"226 179 CURVE SMOOTH"
);
}
);
width = 594;
},
{
anchors = (
{
name = bottom_U;
position = "{324, -20}";
},
{
name = top_U;
position = "{324, 732}";
}
);
layerId = UUID1;
paths = (
{
closed = 1;
nodes = (
"7 13 LINE",
"13 4 LINE",
"32 -3 OFFCURVE",
"69 -7 OFFCURVE",
"94 -7 CURVE SMOOTH",
"120 -7 OFFCURVE",
"144 -6 OFFCURVE",
"165 -1 CURVE",
"262 334 LINE SMOOTH",
"278 391 OFFCURVE",
"302 474 OFFCURVE",
"312 531 CURVE",
"318 531 LINE",
"335 463 OFFCURVE",
"358 378 OFFCURVE",
"373 322 CURVE SMOOTH",
"439 82 LINE SMOOTH",
"459 10 OFFCURVE",
"486 -9 OFFCURVE",
"539 -9 CURVE SMOOTH",
"570 -9 OFFCURVE",
"612 -2 OFFCURVE",
"635 11 CURVE",
"421 682 LINE",
"394 687 OFFCURVE",
"351 689 OFFCURVE",
"324 689 CURVE SMOOTH",
"296 689 OFFCURVE",
"254 687 OFFCURVE",
"227 683 CURVE"
);
},
{
closed = 1;
nodes = (
"386 140 LINE SMOOTH",
"401 140 OFFCURVE",
"420 141 OFFCURVE",
"435 141 CURVE",
"524 141 LINE",
"482 271 LINE",
"401 271 LINE",
"386 271 OFFCURVE",
"367 272 OFFCURVE",
"352 272 CURVE SMOOTH",
"283 272 LINE SMOOTH",
"268 272 OFFCURVE",
"249 271 OFFCURVE",
"234 271 CURVE",
"156 271 LINE",
"105 141 LINE",
"194 141 LINE",
"209 141 OFFCURVE",
"228 140 OFFCURVE",
"243 140 CURVE SMOOTH"
);
}
);
width = 642;
},
{
anchors = (
{
name = bottom_U;
position = "{333.45, -20}";
},
{
name = top_U;
position = "{333.45, 732}";
}
);
layerId = "3CDB9BDF-2CAB-4C38-BE1D-F1DC035F661C";
paths = (
{
closed = 1;
nodes = (
"0 16.15 LINE",
"7.4 5.05 LINE",
"29.2 -3.35 OFFCURVE",
"76 -8.05 OFFCURVE",
"104.5 -8.05 CURVE SMOOTH",
"135.75 -8.05 OFFCURVE",
"163.95 -7.05 OFFCURVE",
"189.15 -1 CURVE",
"263.75 279.75 LINE SMOOTH",
"282.55 347.95 OFFCURVE",
"309.7 441.8 OFFCURVE",
"319.7 505.45 CURVE",
"326.05 505.45 LINE",
"344.8 429.05 OFFCURVE",
"369.2 336 OFFCURVE",
"382.45 281.05 CURVE SMOOTH",
"424.3 99.85 LINE SMOOTH",
"447.8 12.8 OFFCURVE",
"480.75 -10.05 OFFCURVE",
"544.25 -10.05 CURVE SMOOTH",
"579.8 -10.05 OFFCURVE",
"631.6 -1.65 OFFCURVE",
"658.8 13.45 CURVE",
"450.4 681.65 LINE",
"416.75 687.7 OFFCURVE",
"365.7 690.05 OFFCURVE",
"333.1 690.05 CURVE SMOOTH",
"299.5 690.05 OFFCURVE",
"249.45 687.7 OFFCURVE",
"216.85 683 CURVE"
);
},
{
closed = 1;
nodes = (
"395.1 126.35 LINE SMOOTH",
"413.25 126.35 OFFCURVE",
"416.15 127.35 OFFCURVE",
"433.95 127.35 CURVE",
"544.65 127.35 LINE",
"495.3 281.15 LINE",
"394.35 281.15 LINE",
"376.55 281.15 OFFCURVE",
"370.15 282.15 OFFCURVE",
"352 282.15 CURVE SMOOTH",
"299.8 282.15 LINE SMOOTH",
"281.65 282.15 OFFCURVE",
"274.55 281.15 OFFCURVE",
"256.75 281.15 CURVE",
"159.85 281.15 LINE",
"99.05 127.35 LINE",
"209.75 127.35 LINE",
"227.55 127.35 OFFCURVE",
"230.8 126.35 OFFCURVE",
"248.95 126.35 CURVE SMOOTH"
);
}
);
width = 658.8;
},
{
anchors = (
{
name = bottom_U;
position = "{296.595, -20}";
},
{
name = top_U;
position = "{296.595, 732}";
}
);
layerId = "E4378254-F350-404F-89FA-E431A9318E35";
paths = (
{
closed = 1;
nodes = (
"27.3 3.865 LINE",
"29.24 0.955 LINE",
"40.12 -1.985 OFFCURVE",
"48.7 -3.955 OFFCURVE",
"63.55 -3.955 CURVE SMOOTH",
"74.325 -3.955 OFFCURVE",
"86.145 -2.955 OFFCURVE",
"94.965 -1 CURVE",
"256.925 491.325 LINE SMOOTH",
"264.805 515.845 OFFCURVE",
"279.67 567.38 OFFCURVE",
"289.67 605.095 CURVE",
"294.655 605.095 LINE",
"306.58 561.455 OFFCURVE",
"325.52 499.8 OFFCURVE",
"345.595 440.755 CURVE SMOOTH",
"481.63 30.235 LINE SMOOTH",
"491.48 1.88 OFFCURVE",
"501.225 -5.955 OFFCURVE",
"523.775 -5.955 CURVE SMOOTH",
"541.58 -5.955 OFFCURVE",
"555.16 -3.015 OFFCURVE",
"565.98 3.895 CURVE",
"335.74 683.015 LINE",
"328.025 684.97 OFFCURVE",
"308.37 685.955 OFFCURVE",
"297.61 685.955 CURVE SMOOTH",
"285.85 685.955 OFFCURVE",
"267.195 684.97 OFFCURVE",
"256.435 683 CURVE"
);
},
{
closed = 1;
nodes = (
"359.61 179.585 LINE SMOOTH",
"365.475 179.585 OFFCURVE",
"431.165 180.585 OFFCURVE",
"438.045 180.585 CURVE",
"464.115 180.585 LINE",
"443.43 241.565 LINE",
"420.285 241.565 LINE",
"413.405 241.565 OFFCURVE",
"357.865 242.565 OFFCURVE",
"352 242.565 CURVE SMOOTH",
"234.28 242.565 LINE SMOOTH",
"228.415 242.565 OFFCURVE",
"174.905 241.565 OFFCURVE",
"168.025 241.565 CURVE",
"144.835 241.565 LINE",
"122.255 180.585 LINE",
"148.325 180.585 LINE",
"155.205 180.585 OFFCURVE",
"219.88 179.585 OFFCURVE",
"225.745 179.585 CURVE SMOOTH"
);
}
);
width = 593.28;
}
);
leftKerningGroup = A;
rightKerningGroup = A;
unicode = 0041;
},
{
glyphname = B;
lastChange = "2018-10-16 19:32:45 +0000";
layers = (
{
anchors = (
{
name = bottom_U;
position = "{295, -20}";
},
{
name = top_U;
position = "{278, 732}";
}
);
layerId = UUID0;
paths = (
{
closed = 1;
nodes = (
"100 677 LINE",
"100 6 LINE",
"106 0 LINE",
"175 -1 OFFCURVE",
"227 -3 OFFCURVE",
"310 -3 CURVE SMOOTH",
"485 -3 OFFCURVE",
"541 95 OFFCURVE",
"541 188 CURVE SMOOTH",
"541 295 OFFCURVE",
"455 369 OFFCURVE",
"371 369 CURVE",
"371 355 LINE",
"455 364 OFFCURVE",
"508 428 OFFCURVE",
"508 506 CURVE SMOOTH",
"508 610 OFFCURVE",
"452 686 OFFCURVE",
"299 686 CURVE SMOOTH",
"236 686 OFFCURVE",
"175 684 OFFCURVE",
"106 683 CURVE"
);
},
{
closed = 1;
nodes = (
"172 626 LINE",
"209 625 OFFCURVE",
"267 625 OFFCURVE",
"301 625 CURVE SMOOTH",
"413 625 OFFCURVE",
"432 563 OFFCURVE",
"432 508 CURVE SMOOTH",
"432 455 OFFCURVE",
"409 390 OFFCURVE",
"298 390 CURVE SMOOTH",
"142 390 LINE",
"142 328 LINE",
"307 328 LINE SMOOTH",
"432 328 OFFCURVE",
"465 247 OFFCURVE",
"465 193 CURVE SMOOTH",
"465 137 OFFCURVE",
"442 58 OFFCURVE",
"317 58 CURVE SMOOTH",
"269 58 OFFCURVE",
"220 57 OFFCURVE",
"172 57 CURVE"
);
}
);
width = 599;
},
{
anchors = (
{
name = bottom_U;
position = "{299, -20}";
},
{
name = top_U;
position = "{291, 732}";
}
);
layerId = UUID1;
paths = (
{
closed = 1;
nodes = (
"74 678 LINE",
"74 5 LINE",
"81 -2 LINE",
"168 -4 OFFCURVE",
"254 -6 OFFCURVE",
"331 -6 CURVE SMOOTH",
"482 -6 OFFCURVE",
"583 53 OFFCURVE",
"583 197 CURVE SMOOTH",
"583 289 OFFCURVE",
"511 372 OFFCURVE",
"430 377 CURVE",
"430 361 LINE",
"495 369 OFFCURVE",
"551 434 OFFCURVE",
"551 507 CURVE SMOOTH",
"551 635 OFFCURVE",
"453 689 OFFCURVE",
"315 689 CURVE SMOOTH",
"243 689 OFFCURVE",
"162 687 OFFCURVE",
"81 685 CURVE"
);
},
{
closed = 1;
nodes = (
"239 572 LINE",
"263 571 OFFCURVE",
"290 571 OFFCURVE",
"306 571 CURVE SMOOTH",
"369 571 OFFCURVE",
"388 533 OFFCURVE",
"388 495 CURVE SMOOTH",
"388 457 OFFCURVE",
"370 417 OFFCURVE",
"306 417 CURVE SMOOTH",
"176 417 LINE",
"176 299 LINE",
"318 299 LINE SMOOTH",
"394 299 OFFCURVE",
"415 247 OFFCURVE",
"415 204 CURVE SMOOTH",
"415 163 OFFCURVE",
"396 111 OFFCURVE",
"318 111 CURVE SMOOTH",
"299 111 OFFCURVE",
"270 111 OFFCURVE",
"239 110 CURVE"
);
}
);
width = 616;
},
{
anchors = (
{
name = bottom_U;
position = "{300.4, -20}";
},
{
name = top_U;
position = "{295.55, 732}";
}
);
layerId = "3CDB9BDF-2CAB-4C38-BE1D-F1DC035F661C";
paths = (
{
closed = 1;
nodes = (
"64.9 678.35 LINE",
"64.9 4.65 LINE",
"72.25 -2.7 LINE",
"165.55 -5.05 OFFCURVE",
"263.45 -7.05 OFFCURVE",
"338.35 -7.05 CURVE SMOOTH",
"480.95 -7.05 OFFCURVE",
"597.7 38.3 OFFCURVE",
"597.7 200.15 CURVE SMOOTH",
"597.7 286.9 OFFCURVE",
"530.6 373.05 OFFCURVE",
"450.65 379.8 CURVE",
"450.65 363.1 LINE",
"509 370.75 OFFCURVE",
"566.05 436.1 OFFCURVE",
"566.05 507.35 CURVE SMOOTH",
"566.05 643.75 OFFCURVE",
"453.35 690.05 OFFCURVE",
"320.6 690.05 CURVE SMOOTH",
"245.45 690.05 OFFCURVE",
"157.45 688.05 OFFCURVE",
"72.25 685.7 CURVE"
);
},
{
closed = 1;
nodes = (
"262.45 553.1 LINE",
"281.9 552.1 OFFCURVE",
"298.05 552.1 OFFCURVE",
"307.75 552.1 CURVE SMOOTH",
"353.6 552.1 OFFCURVE",
"372.6 522.5 OFFCURVE",
"372.6 490.45 CURVE SMOOTH",
"372.6 457.7 OFFCURVE",
"356.35 426.45 OFFCURVE",
"308.8 426.45 CURVE SMOOTH",
"187.9 426.45 LINE",
"187.9 288.85 LINE",
"321.85 288.85 LINE SMOOTH",
"380.7 288.85 OFFCURVE",
"397.5 247 OFFCURVE",
"397.5 207.85 CURVE SMOOTH",
"397.5 172.1 OFFCURVE",
"379.9 129.55 OFFCURVE",
"318.35 129.55 CURVE SMOOTH",
"309.5 129.55 OFFCURVE",
"287.5 129.9 OFFCURVE",
"262.45 128.55 CURVE"
);
}
);
width = 621.95;
},
{
anchors = (
{
name = bottom_U;
position = "{294.94, -20}";
},
{
name = top_U;
position = "{277.805, 732}";
}
);
layerId = "E4378254-F350-404F-89FA-E431A9318E35";
paths = (
{
closed = 1;
nodes = (
"100.39 676.985 LINE",
"100.39 6.015 LINE",
"106.375 0.03 LINE",
"175.105 -0.955 OFFCURVE",
"226.595 -2.955 OFFCURVE",
"309.685 -2.955 CURVE SMOOTH",
"485.045 -2.955 OFFCURVE",
"540.37 95.63 OFFCURVE",
"540.37 187.865 CURVE SMOOTH",
"540.37 295.09 OFFCURVE",
"454.16 368.955 OFFCURVE",
"370.115 368.88 CURVE",
"370.115 354.91 LINE",
"454.4 363.925 OFFCURVE",
"507.355 427.91 OFFCURVE",
"507.355 505.985 CURVE SMOOTH",
"507.355 609.625 OFFCURVE",
"451.985 685.955 OFFCURVE",
"298.76 685.955 CURVE SMOOTH",
"235.895 685.955 OFFCURVE",
"175.195 683.955 OFFCURVE",
"106.375 682.97 CURVE"
);
},
{
closed = 1;
nodes = (
"170.995 626.81 LINE",
"208.19 625.81 OFFCURVE",
"266.655 625.81 OFFCURVE",
"300.925 625.81 CURVE SMOOTH",
"413.66 625.81 OFFCURVE",
"432.66 563.45 OFFCURVE",
"432.66 508.195 CURVE SMOOTH",
"432.66 454.97 OFFCURVE",
"409.585 389.595 OFFCURVE",
"297.88 389.595 CURVE SMOOTH",
"141.49 389.595 LINE",
"141.49 328.435 LINE",
"306.835 328.435 LINE SMOOTH",
"432.57 328.435 OFFCURVE",
"465.75 247 OFFCURVE",
"465.75 192.835 CURVE SMOOTH",
"465.75 136.61 OFFCURVE",
"442.69 57.205 OFFCURVE",
"316.985 57.205 CURVE SMOOTH",
"268.55 57.205 OFFCURVE",
"219.25 56.19 OFFCURVE",
"170.995 56.205 CURVE"
);
}
);
width = 598.745;
}
);
unicode = 0042;
},
{
glyphname = C;
lastChange = "2018-10-16 19:32:45 +0000";
layers = (
{
anchors = (
{
name = bottom_U;
position = "{316, -20}";
},
{
name = top_U;
position = "{318, 733}";
}
);
layerId = UUID0;
paths = (
{
closed = 1;
nodes = (
"492 466 OFFCURVE",
"499 465 OFFCURVE",
"511 465 CURVE SMOOTH",
"545 465 OFFCURVE",
"551 488 OFFCURVE",
"551 508 CURVE SMOOTH",
"551 598 OFFCURVE",
"464 695 OFFCURVE",
"320 695 CURVE SMOOTH",
"180 695 OFFCURVE",
"58 585 OFFCURVE",
"58 338 CURVE SMOOTH",
"58 157 OFFCURVE",
"128 -12 OFFCURVE",
"308 -12 CURVE SMOOTH",
"405 -12 OFFCURVE",
"489 30 OFFCURVE",
"542 84 CURVE",
"536 101 OFFCURVE",
"520 120 OFFCURVE",
"502 131 CURVE",
"437 74 OFFCURVE",
"376 51 OFFCURVE",
"318 51 CURVE SMOOTH",
"204 51 OFFCURVE",
"134 158 OFFCURVE",
"134 338 CURVE SMOOTH",
"134 532 OFFCURVE",
"202 634 OFFCURVE",
"320 634 CURVE SMOOTH",
"440 634 OFFCURVE",
"480 541 OFFCURVE",
"478 470 CURVE"
);
}
);
width = 600;
},
{
anchors = (
{
name = bottom_U;
position = "{328, -20}";
},
{
name = top_U;
position = "{327, 733}";
}
);
layerId = UUID1;
paths = (
{
closed = 1;
nodes = (
"449 401 OFFCURVE",
"468 397 OFFCURVE",
"492 397 CURVE SMOOTH",
"551 397 OFFCURVE",
"588 423 OFFCURVE",
"588 489 CURVE SMOOTH",
"588 609 OFFCURVE",
"485 699 OFFCURVE",
"329 699 CURVE SMOOTH",
"168 699 OFFCURVE",
"34 591 OFFCURVE",
"34 339 CURVE SMOOTH",
"34 168 OFFCURVE",
"99 -15 OFFCURVE",
"312 -15 CURVE SMOOTH",
"424 -15 OFFCURVE",
"530 35 OFFCURVE",
"588 92 CURVE",
"581 131 OFFCURVE",
"544 178 OFFCURVE",
"512 200 CURVE",
"467 169 OFFCURVE",
"413 131 OFFCURVE",
"343 131 CURVE SMOOTH",
"258 131 OFFCURVE",
"210 199 OFFCURVE",
"210 338 CURVE SMOOTH",
"210 486 OFFCURVE",
"240 566 OFFCURVE",
"323 566 CURVE SMOOTH",
"409 566 OFFCURVE",
"431 490 OFFCURVE",
"429 406 CURVE"
);
}
);
width = 610;
},
{
anchors = (
{
name = bottom_U;
position = "{332.2, -20}";
},
{
name = top_U;
position = "{330.15, 733}";
}
);
layerId = "3CDB9BDF-2CAB-4C38-BE1D-F1DC035F661C";
paths = (
{
closed = 1;
nodes = (
"433.95 378.25 OFFCURVE",
"457.15 373.2 OFFCURVE",
"485.35 373.2 CURVE SMOOTH",
"553.1 373.2 OFFCURVE",
"600.95 400.25 OFFCURVE",
"600.95 482.35 CURVE SMOOTH",
"600.95 612.85 OFFCURVE",
"492.35 700.4 OFFCURVE",
"332.15 700.4 CURVE SMOOTH",
"163.8 700.4 OFFCURVE",
"25.6 593.1 OFFCURVE",
"25.6 339.35 CURVE SMOOTH",
"25.6 171.85 OFFCURVE",
"88.85 -16.05 OFFCURVE",
"313.4 -16.05 CURVE SMOOTH",
"430.65 -16.05 OFFCURVE",
"544.35 36.75 OFFCURVE",
"604.1 94.8 CURVE",
"596.75 141.5 OFFCURVE",
"552.4 198.3 OFFCURVE",
"515.5 224.15 CURVE",
"477.5 202.25 OFFCURVE",
"425.95 159 OFFCURVE",
"351.75 159 CURVE SMOOTH",
"276.9 159 OFFCURVE",
"236.6 213.35 OFFCURVE",
"236.6 338 CURVE SMOOTH",
"236.6 469.9 OFFCURVE",
"253.3 542.2 OFFCURVE",
"324.05 542.2 CURVE SMOOTH",
"398.15 542.2 OFFCURVE",
"413.85 472.15 OFFCURVE",
"411.85 383.6 CURVE"
);
}
);
width = 613.5;
},
{
anchors = (
{
name = bottom_U;
position = "{315.82, -20}";
},
{
name = top_U;
position = "{317.865, 733}";
}
);
layerId = "E4378254-F350-404F-89FA-E431A9318E35";
paths = (
{
closed = 1;
nodes = (
"492.645 466.975 OFFCURVE",
"499.465 466.02 OFFCURVE",
"511.285 466.02 CURVE SMOOTH",
"544.91 466.02 OFFCURVE",
"550.445 488.975 OFFCURVE",
"550.445 508.285 CURVE SMOOTH",
"550.445 597.835 OFFCURVE",
"463.685 694.94 OFFCURVE",
"319.865 694.94 CURVE SMOOTH",
"180.18 694.94 OFFCURVE",
"58.36 584.91 OFFCURVE",
"58.36 337.985 CURVE SMOOTH",
"58.36 156.835 OFFCURVE",
"128.435 -11.955 OFFCURVE",
"307.94 -11.955 CURVE SMOOTH",
"404.715 -11.955 OFFCURVE",
"488.385 29.925 OFFCURVE",
"541.31 83.88 CURVE",
"535.325 100.55 OFFCURVE",
"519.64 119.13 OFFCURVE",
"501.85 129.965 CURVE",
"436.55 72.575 OFFCURVE",
"375.445 49.8 OFFCURVE",
"317.625 49.8 CURVE SMOOTH",
"203.19 49.8 OFFCURVE",
"132.86 157.385 OFFCURVE",
"132.86 338 CURVE SMOOTH",
"132.86 532.69 OFFCURVE",
"201.43 635.02 OFFCURVE",
"319.955 635.02 CURVE SMOOTH",
"440.465 635.02 OFFCURVE",
"480.735 541.765 OFFCURVE",
"478.735 470.96 CURVE"
);
}
);
width = 599.85;
}
);
leftKerningGroup = C;
rightKerningGroup = C;
unicode = 0043;
},
{
glyphname = D;
lastChange = "2018-10-16 19:32:45 +0000";
layers = (
{
anchors = (
{
name = bottom_U;
position = "{311, -20}";
},
{
name = top_U;
position = "{301, 732}";
}
);
layerId = UUID0;
paths = (
{
closed = 1;
nodes = (
"576 457 OFFCURVE",
"560 561 OFFCURVE",
"474 635 CURVE SMOOTH",
"432 671 OFFCURVE",
"357 686 OFFCURVE",
"306 686 CURVE",
"228 686 OFFCURVE",
"193 686 OFFCURVE",
"106 683 CURVE",
"100 677 LINE",
"100 6 LINE",
"106 0 LINE",
"193 -2 OFFCURVE",
"228 -4 OFFCURVE",
"306 -4 CURVE",
"357 -4 OFFCURVE",
"432 11 OFFCURVE",
"474 47 CURVE SMOOTH",
"561 121 OFFCURVE",
"576 224 OFFCURVE",
"576 341 CURVE SMOOTH"
);
},
{
closed = 1;
nodes = (
"500 211 OFFCURVE",
"475 57 OFFCURVE",
"305 57 CURVE SMOOTH",
"258 57 OFFCURVE",
"224 58 OFFCURVE",
"172 58 CURVE",
"172 626 LINE",
"224 626 OFFCURVE",
"258 625 OFFCURVE",
"305 625 CURVE SMOOTH",
"475 625 OFFCURVE",
"500 472 OFFCURVE",
"500 341 CURVE"
);
}
);
width = 636;
},
{
anchors = (
{
name = bottom_U;
position = "{322, -20}";
},
{
name = top_U;
position = "{322, 732}";
}
);
layerId = UUID1;
paths = (
{
closed = 1;
nodes = (
"635 458 OFFCURVE",
"617 565 OFFCURVE",
"522 639 CURVE SMOOTH",
"476 675 OFFCURVE",
"393 689 OFFCURVE",
"337 689 CURVE",
"250 689 OFFCURVE",
"167 688 OFFCURVE",
"81 685 CURVE",
"74 678 LINE",
"74 5 LINE",
"81 -2 LINE",
"168 -4 OFFCURVE",
"250 -6 OFFCURVE",
"337 -6 CURVE",
"393 -6 OFFCURVE",
"476 8 OFFCURVE",
"522 44 CURVE SMOOTH",
"618 118 OFFCURVE",
"635 225 OFFCURVE",
"635 342 CURVE SMOOTH"
);
},
{
closed = 1;
nodes = (
"463 243 OFFCURVE",
"447 124 OFFCURVE",
"337 124 CURVE SMOOTH",
"304 124 OFFCURVE",
"275 124 OFFCURVE",
"241 123 CURVE",
"241 560 LINE",
"275 559 OFFCURVE",
"304 559 OFFCURVE",
"337 559 CURVE SMOOTH",
"447 559 OFFCURVE",
"463 441 OFFCURVE",
"463 342 CURVE"
);
}
);
width = 670;
},
{
anchors = (
{
name = bottom_U;
position = "{325.85, -20}";
},
{
name = top_U;
position = "{329.35, 732}";
}
);
layerId = "3CDB9BDF-2CAB-4C38-BE1D-F1DC035F661C";
paths = (
{
closed = 1;
nodes = (
"655.65 458.35 OFFCURVE",
"636.95 566.4 OFFCURVE",
"538.8 640.4 CURVE SMOOTH",
"491.4 676.4 OFFCURVE",
"405.6 690.05 OFFCURVE",
"347.85 690.05 CURVE",
"257.7 690.05 OFFCURVE",
"157.9 688.7 OFFCURVE",
"72.25 685.7 CURVE",
"64.9 678.35 LINE",
"64.9 4.65 LINE",
"72.25 -2.7 LINE",
"159.25 -4.7 OFFCURVE",
"257.7 -6.7 OFFCURVE",
"347.85 -6.7 CURVE",
"405.6 -6.7 OFFCURVE",
"491.4 6.95 OFFCURVE",
"538.8 42.95 CURVE SMOOTH",
"637.95 116.95 OFFCURVE",
"655.65 225.35 OFFCURVE",
"655.65 342.35 CURVE SMOOTH"
);
},
{
closed = 1;
nodes = (
"450.05 254.2 OFFCURVE",
"437.2 147.45 OFFCURVE",
"348.2 147.45 CURVE SMOOTH",
"320.1 147.45 OFFCURVE",
"292.85 147.1 OFFCURVE",
"265.15 145.75 CURVE",
"265.15 536.9 LINE",
"292.85 535.55 OFFCURVE",
"320.1 535.9 OFFCURVE",
"348.2 535.9 CURVE SMOOTH",
"437.2 535.9 OFFCURVE",
"450.05 430.15 OFFCURVE",
"450.05 342.35 CURVE"
);
}
);
width = 681.9;
},
{
anchors = (
{
name = bottom_U;
position = "{310.835, -20}";
},
{
name = top_U;
position = "{300.685, 732}";
}
);
layerId = "E4378254-F350-404F-89FA-E431A9318E35";
paths = (
{
closed = 1;
nodes = (
"575.115 456.985 OFFCURVE",
"559.145 560.94 OFFCURVE",
"473.28 634.94 CURVE SMOOTH",
"431.34 670.94 OFFCURVE",
"356.46 685.955 OFFCURVE",
"305.535 685.955 CURVE",
"227.67 685.955 OFFCURVE",
"193.39 685.97 OFFCURVE",
"106.375 682.97 CURVE",
"100.39 676.985 LINE",
"100.39 6.015 LINE",
"106.375 0.03 LINE",
"193.375 -1.97 OFFCURVE",
"227.67 -3.97 OFFCURVE",
"305.535 -3.97 CURVE",
"356.46 -3.97 OFFCURVE",
"431.34 11.045 OFFCURVE",
"473.28 47.045 CURVE SMOOTH",
"560.145 121.045 OFFCURVE",
"575.115 223.985 OFFCURVE",
"575.115 340.985 CURVE SMOOTH"
);
},
{
closed = 1;
nodes = (
"500.555 210.52 OFFCURVE",
"475.42 55.995 OFFCURVE",
"304.52 55.995 CURVE SMOOTH",
"257.31 55.995 OFFCURVE",
"223.235 57.01 OFFCURVE",
"170.965 57.025 CURVE",
"170.965 626.99 LINE",
"223.235 627.005 OFFCURVE",
"257.31 625.99 OFFCURVE",
"304.52 625.99 CURVE SMOOTH",
"475.42 625.99 OFFCURVE",
"500.555 472.465 OFFCURVE",
"500.555 340.985 CURVE"
);
}
);
width = 635.49;
}
);
rightKerningGroup = D;
unicode = 0044;
},
{
glyphname = E;
lastChange = "2018-10-16 19:32:45 +0000";
layers = (
{
anchors = (
{
name = bottom_U;
position = "{302, -20}";
},
{
name = top_U;
position = "{299, 732}";
}
);
layerId = UUID0;
paths = (
{
closed = 1;
nodes = (
"100 48 LINE",
"100 18 OFFCURVE",
"116 0 OFFCURVE",
"141 0 CURVE SMOOTH",
"169 0 LINE",
"169 60 LINE SMOOTH",
"169 74 OFFCURVE",
"170 84 OFFCURVE",
"170 97 CURVE SMOOTH",
"170 560 LINE",
"170 587 OFFCURVE",
"169 596 OFFCURVE",
"169 624 CURVE SMOOTH",
"169 683 LINE",
"106 683 LINE",
"100 677 LINE"
);
},
{
closed = 1;
nodes = (
"229 377 LINE SMOOTH",
"207 377 OFFCURVE",
"174 376 OFFCURVE",
"145 376 CURVE",
"145 316 LINE",
"174 316 OFFCURVE",
"207 315 OFFCURVE",
"229 315 CURVE SMOOTH",
"439 315 LINE",
"441 326 OFFCURVE",
"442 338 OFFCURVE",
"442 346 CURVE SMOOTH",
"442 354 OFFCURVE",
"441 366 OFFCURVE",
"439 377 CURVE"
);
},
{
closed = 1;
nodes = (
"145 683 LINE",
"145 622 LINE",
"174 621 OFFCURVE",
"207 621 OFFCURVE",
"229 621 CURVE SMOOTH",
"487 621 LINE",
"491 632 OFFCURVE",
"492 646 OFFCURVE",
"492 654 CURVE SMOOTH",
"492 662 OFFCURVE",
"492 672 OFFCURVE",
"490 683 CURVE"
);
},
{
closed = 1;
nodes = (
"230 63 LINE",
"194 63 OFFCURVE",
"170 61 OFFCURVE",
"145 59 CURVE",
"145 0 LINE",
"458 0 LINE SMOOTH",
"483 0 OFFCURVE",
"500 10 OFFCURVE",
"504 33 CURVE SMOOTH",
"506 43 OFFCURVE",
"506 57 OFFCURVE",
"506 63 CURVE"
);
}
);
width = 562;
},
{
anchors = (
{
name = bottom_U;
position = "{302, -20}";
},
{
name = top_U;
position = "{299, 732}";
}
);
layerId = UUID1;
paths = (
{
closed = 1;
nodes = (
"73 94 LINE",
"73 34 OFFCURVE",
"109 -3 OFFCURVE",
"169 -3 CURVE SMOOTH",
"238 -3 LINE",
"238 136 LINE SMOOTH",
"238 164 OFFCURVE",
"239 184 OFFCURVE",
"239 211 CURVE SMOOTH",
"239 470 LINE",
"239 497 OFFCURVE",
"238 517 OFFCURVE",
"238 545 CURVE SMOOTH",
"238 683 LINE",
"80 683 LINE",
"73 676 LINE"
);
},
{
closed = 1;
nodes = (
"307 411 LINE SMOOTH",
"282 411 OFFCURVE",
"213 410 OFFCURVE",
"181 409 CURVE",
"181 277 LINE",
"213 276 OFFCURVE",
"282 275 OFFCURVE",
"307 275 CURVE SMOOTH",
"455 275 LINE",
"462 296 OFFCURVE",
"465 324 OFFCURVE",
"465 343 CURVE SMOOTH",
"465 361 OFFCURVE",
"462 391 OFFCURVE",
"455 411 CURVE"
);
},
{
closed = 1;
nodes = (
"181 683 LINE",
"181 545 LINE",
"213 544 OFFCURVE",
"282 543 OFFCURVE",
"307 543 CURVE SMOOTH",
"507 543 LINE",
"516 568 OFFCURVE",
"521 598 OFFCURVE",
"521 617 CURVE SMOOTH",
"521 636 OFFCURVE",
"520 658 OFFCURVE",
"515 683 CURVE"
);
},
{
closed = 1;
nodes = (
"313 137 LINE",
"263 137 OFFCURVE",
"226 134 OFFCURVE",
"181 132 CURVE",
"181 -3 LINE",
"431 -3 LINE SMOOTH",
"492 -3 OFFCURVE",
"529 25 OFFCURVE",
"538 78 CURVE SMOOTH",
"541 98 OFFCURVE",
"541 123 OFFCURVE",
"541 137 CURVE"
);
}
);
width = 574;
},
{
anchors = (
{
name = bottom_U;
position = "{302, -20}";
},
{
name = top_U;
position = "{299, 732}";
}
);
layerId = "3CDB9BDF-2CAB-4C38-BE1D-F1DC035F661C";
paths = (
{
closed = 1;
nodes = (
"63.55 110.1 LINE",
"63.55 39.6 OFFCURVE",
"106.55 -4.05 OFFCURVE",
"178.8 -4.05 CURVE SMOOTH",
"262.15 -4.05 LINE",
"262.15 162.6 LINE SMOOTH",
"262.15 195.5 OFFCURVE",
"263.15 219 OFFCURVE",
"263.15 250.9 CURVE SMOOTH",
"263.15 438.5 LINE",
"263.15 465.5 OFFCURVE",
"262.15 489.35 OFFCURVE",
"262.15 517.35 CURVE SMOOTH",
"262.15 683 LINE",
"70.9 683 LINE",
"63.55 675.65 LINE"
);
},
{
closed = 1;
nodes = (
"334.3 422.9 LINE SMOOTH",
"308.25 422.9 OFFCURVE",
"226.65 421.9 OFFCURVE",
"193.6 420.55 CURVE",
"193.6 263.35 LINE",
"226.65 262 OFFCURVE",
"308.25 261 OFFCURVE",
"334.3 261 CURVE SMOOTH",
"460.6 261 LINE",
"469.35 285.5 OFFCURVE",
"473.05 319.1 OFFCURVE",
"473.05 341.95 CURVE SMOOTH",
"473.05 363.45 OFFCURVE",
"469.35 399.75 OFFCURVE",
"460.6 422.9 CURVE"
);
},
{
closed = 1;
nodes = (
"193.6 683 LINE",
"193.6 518.05 LINE",
"226.65 517.05 OFFCURVE",
"308.25 515.7 OFFCURVE",
"334.3 515.7 CURVE SMOOTH",
"514 515.7 LINE",
"524.75 545.6 OFFCURVE",
"531.15 581.2 OFFCURVE",
"531.15 604.05 CURVE SMOOTH",
"531.15 626.9 OFFCURVE",
"529.8 653.1 OFFCURVE",
"523.75 683 CURVE"
);
},
{
closed = 1;
nodes = (
"342.05 162.9 LINE",
"287.15 162.9 OFFCURVE",
"245.6 159.55 OFFCURVE",
"193.6 157.55 CURVE",
"193.6 -4.05 LINE",
"421.55 -4.05 LINE SMOOTH",
"495.15 -4.05 OFFCURVE",
"539.15 30.25 OFFCURVE",
"549.9 93.75 CURVE SMOOTH",
"553.25 117.25 OFFCURVE",
"553.25 146.1 OFFCURVE",
"553.25 162.9 CURVE"
);
}
);
width = 578.2;
},
{
anchors = (
{
name = bottom_U;
position = "{302, -20}";
},
{
name = top_U;
position = "{299, 732}";
}
);
layerId = "E4378254-F350-404F-89FA-E431A9318E35";
paths = (
{
closed = 1;
nodes = (
"100.405 47.31 LINE",
"100.405 17.76 OFFCURVE",
"116.105 0.045 OFFCURVE",
"140.58 0.045 CURVE SMOOTH",
"167.965 0.045 LINE",
"167.965 58.86 LINE SMOOTH",
"167.965 72.65 OFFCURVE",
"168.965 82.5 OFFCURVE",
"168.965 95.29 CURVE SMOOTH",
"168.965 561.35 LINE",
"168.965 588.35 OFFCURVE",
"167.965 597.185 OFFCURVE",
"167.965 625.185 CURVE SMOOTH",
"167.965 683 LINE",
"106.39 683 LINE",
"100.405 677.015 LINE"
);
},
{
closed = 1;
nodes = (
"227.83 376.49 LINE SMOOTH",
"205.875 376.49 OFFCURVE",
"173.415 375.49 OFFCURVE",
"144.46 375.505 CURVE",
"144.46 316.585 LINE",
"173.415 316.6 OFFCURVE",
"205.875 315.6 OFFCURVE",
"227.83 315.6 CURVE SMOOTH",
"438.76 315.6 LINE",
"440.685 326.45 OFFCURVE",
"441.655 338.21 OFFCURVE",
"441.655 346.045 CURVE SMOOTH",
"441.655 353.895 OFFCURVE",
"440.685 365.625 OFFCURVE",
"438.76 376.49 CURVE"
);
},
{
closed = 1;
nodes = (
"144.46 683 LINE",
"144.46 623.155 LINE",
"173.415 622.155 OFFCURVE",
"205.875 622.17 OFFCURVE",
"227.83 622.17 CURVE SMOOTH",
"486.7 622.17 LINE",
"490.625 632.96 OFFCURVE",
"491.565 646.72 OFFCURVE",
"491.565 654.555 CURVE SMOOTH",
"491.565 662.39 OFFCURVE",
"491.58 672.21 OFFCURVE",
"489.625 683 CURVE"
);
},
{
closed = 1;
nodes = (
"228.755 61.89 LINE",
"192.965 61.89 OFFCURVE",
"169.16 59.905 OFFCURVE",
"144.46 57.905 CURVE",
"144.46 0.045 LINE",
"458.405 0.045 LINE SMOOTH",
"482.865 0.045 OFFCURVE",
"499.565 9.775 OFFCURVE",
"503.49 32.325 CURVE SMOOTH",
"505.475 42.175 OFFCURVE",
"505.475 56.01 OFFCURVE",
"505.475 61.89 CURVE"
);
}
);
width = 561.82;
}
);
rightKerningGroup = E;
unicode = 0045;
},
{
glyphname = F;
lastChange = "2018-10-16 19:32:45 +0000";
layers = (
{
anchors = (
{
name = bottom_U;
position = "{135, -20}";
},
{
name = top_U;
position = "{299, 732}";
}
);
layerId = UUID0;
paths = (
{
closed = 1;
nodes = (
"172 479 LINE SMOOTH",
"172 528 OFFCURVE",
"171 578 OFFCURVE",
"171 627 CURVE SMOOTH",
"171 683 LINE",
"106 683 LINE",
"100 677 LINE",
"100 0 LINE",
"109 -2 OFFCURVE",
"122 -3 OFFCURVE",
"135 -3 CURVE SMOOTH",
"149 -3 OFFCURVE",
"162 -2 OFFCURVE",
"172 0 CURVE"
);
},
{
closed = 1;
nodes = (
"145 683 LINE",
"145 624 LINE",
"179 621 OFFCURVE",
"224 620 OFFCURVE",
"282 620 CURVE SMOOTH",
"443 620 LINE SMOOTH",
"473 620 OFFCURVE",
"487 630 OFFCURVE",
"487 653 CURVE SMOOTH",
"487 663 OFFCURVE",
"485 674 OFFCURVE",
"482 683 CURVE"
);
},
{
closed = 1;
nodes = (
"229 377 LINE SMOOTH",
"207 377 OFFCURVE",
"174 376 OFFCURVE",
"145 376 CURVE",
"145 316 LINE",
"174 316 OFFCURVE",
"207 315 OFFCURVE",
"229 315 CURVE SMOOTH",
"434 315 LINE",
"436 326 OFFCURVE",
"437 338 OFFCURVE",
"437 346 CURVE SMOOTH",
"437 354 OFFCURVE",
"436 366 OFFCURVE",
"434 377 CURVE"
);
}
);
width = 513;
},
{
anchors = (
{
name = bottom_U;
position = "{160, -20}";
},
{
name = top_U;
position = "{295, 732}";
}
);
layerId = UUID1;
paths = (
{
closed = 1;
nodes = (
"242 468 LINE SMOOTH",
"242 521 OFFCURVE",
"241 580 OFFCURVE",
"241 636 CURVE SMOOTH",
"241 683 LINE",
"81 683 LINE",
"74 677 LINE",
"74 0 LINE",
"103 -5 OFFCURVE",
"137 -6 OFFCURVE",
"160 -6 CURVE SMOOTH",
"183 -6 OFFCURVE",
"213 -5 OFFCURVE",
"242 0 CURVE"
);
},
{
closed = 1;
nodes = (
"172 683 LINE",
"172 542 LINE",
"217 542 OFFCURVE",
"260 541 OFFCURVE",
"309 541 CURVE SMOOTH",
"431 541 LINE SMOOTH",
"491 541 OFFCURVE",
"520 564 OFFCURVE",
"520 619 CURVE SMOOTH",
"520 638 OFFCURVE",
"518 665 OFFCURVE",
"513 683 CURVE"
);
},
{
closed = 1;
nodes = (
"258 408 LINE SMOOTH",
"229 408 OFFCURVE",
"197 407 OFFCURVE",
"178 406 CURVE",
"178 273 LINE",
"197 272 OFFCURVE",
"229 271 OFFCURVE",
"258 271 CURVE SMOOTH",
"451 271 LINE",
"457 291 OFFCURVE",
"460 321 OFFCURVE",
"460 340 CURVE SMOOTH",
"460 358 OFFCURVE",
"457 389 OFFCURVE",
"451 408 CURVE"
);
}
);
width = 537;
},
{
anchors = (
{
name = bottom_U;
position = "{168.75, -20}";
},
{
name = top_U;
position = "{293.6, 732}";
}
);
layerId = "3CDB9BDF-2CAB-4C38-BE1D-F1DC035F661C";
paths = (
{
closed = 1;
nodes = (
"266.5 464.15 LINE SMOOTH",
"266.5 518.55 OFFCURVE",
"265.5 580.7 OFFCURVE",
"265.5 639.15 CURVE SMOOTH",
"265.5 683 LINE",
"72.25 683 LINE",
"64.9 677 LINE",
"64.9 0 LINE",
"100.9 -6.05 OFFCURVE",
"142.25 -7.05 OFFCURVE",
"168.75 -7.05 CURVE SMOOTH",
"194.9 -7.05 OFFCURVE",
"230.85 -6.05 OFFCURVE",
"266.5 0 CURVE"
);
},
{
closed = 1;
nodes = (
"181.45 683 LINE",
"181.45 513.3 LINE",
"230.3 514.35 OFFCURVE",
"272.6 513.35 OFFCURVE",
"318.45 513.35 CURVE SMOOTH",
"426.8 513.35 LINE SMOOTH",
"497.3 513.35 OFFCURVE",
"531.55 540.9 OFFCURVE",
"531.55 607.1 CURVE SMOOTH",
"531.55 629.25 OFFCURVE",
"529.55 661.85 OFFCURVE",
"523.85 683 CURVE"
);
},
{
closed = 1;
nodes = (
"268.15 418.85 LINE SMOOTH",
"236.7 418.85 OFFCURVE",
"205.05 417.85 OFFCURVE",
"189.55 416.5 CURVE",
"189.55 257.95 LINE",
"205.05 256.6 OFFCURVE",
"236.7 255.6 OFFCURVE",
"268.15 255.6 CURVE SMOOTH",
"456.95 255.6 LINE",
"464.35 278.75 OFFCURVE",
"468.05 315.05 OFFCURVE",
"468.05 337.9 CURVE SMOOTH",
"468.05 359.4 OFFCURVE",
"464.35 397.05 OFFCURVE",
"456.95 418.85 CURVE"
);
}
);
width = 545.4;
},
{
anchors = (
{
name = bottom_U;
position = "{134.625, -20}";
},
{
name = top_U;
position = "{299.06, 732}";
}
);
layerId = "E4378254-F350-404F-89FA-E431A9318E35";
paths = (
{
closed = 1;
nodes = (
"170.95 479.165 LINE SMOOTH",
"170.95 528.105 OFFCURVE",
"169.95 577.97 OFFCURVE",
"169.95 626.865 CURVE SMOOTH",
"169.95 683 LINE",
"106.375 683 LINE",
"100.39 677 LINE",
"100.39 0 LINE",
"109.09 -1.955 OFFCURVE",
"121.775 -2.955 OFFCURVE",
"134.625 -2.955 CURVE SMOOTH",
"148.49 -2.955 OFFCURVE",
"161.235 -1.955 OFFCURVE",
"170.95 0 CURVE"
);
},
{
closed = 1;
nodes = (
"144.595 683 LINE",
"144.595 625.23 LINE",
"178.43 622.185 OFFCURVE",
"223.46 621.185 OFFCURVE",
"281.595 621.185 CURVE SMOOTH",
"443.18 621.185 LINE SMOOTH",
"472.73 621.185 OFFCURVE",
"486.505 630.99 OFFCURVE",
"486.505 653.51 CURVE SMOOTH",
"486.505 663.375 OFFCURVE",
"484.505 674.135 OFFCURVE",
"481.535 683 CURVE"
);
},
{
closed = 1;
nodes = (
"228.565 376.535 LINE SMOOTH",
"206.67 376.535 OFFCURVE",
"173.655 375.535 OFFCURVE",
"144.505 375.55 CURVE",
"144.505 316.645 LINE",
"173.655 316.66 OFFCURVE",
"206.67 315.66 OFFCURVE",
"228.565 315.66 CURVE SMOOTH",
"433.745 315.66 LINE",
"435.685 326.525 OFFCURVE",
"436.655 338.255 OFFCURVE",
"436.655 346.09 CURVE SMOOTH",
"436.655 353.94 OFFCURVE",
"435.685 365.655 OFFCURVE",
"433.745 376.535 CURVE"
);
}
);
width = 512.64;
}
);
unicode = 0046;
},
{
glyphname = G;
lastChange = "2018-10-16 19:32:45 +0000";
layers = (
{
anchors = (
{
name = bottom_U;
position = "{335, -20}";
},
{
name = top_U;
position = "{341, 732}";
}
);
layerId = UUID0;
paths = (
{
closed = 1;
nodes = (
"509 667 OFFCURVE",
"421 695 OFFCURVE",
"341 695 CURVE SMOOTH",
"202 695 OFFCURVE",
"58 598 OFFCURVE",
"58 337 CURVE SMOOTH",
"58 168 OFFCURVE",
"121 -12 OFFCURVE",
"329 -12 CURVE SMOOTH",
"420 -12 OFFCURVE",
"504 7 OFFCURVE",
"565 32 CURVE",
"529 91 LINE",
"496 75 OFFCURVE",
"433 52 OFFCURVE",
"342 52 CURVE SMOOTH",
"204 52 OFFCURVE",
"134 149 OFFCURVE",
"134 336 CURVE SMOOTH",
"134 557 OFFCURVE",
"231 630 OFFCURVE",
"335 630 CURVE SMOOTH",
"410 630 OFFCURVE",
"475 604 OFFCURVE",
"525 564 CURVE",
"540 574 OFFCURVE",
"558 595 OFFCURVE",
"564 620 CURVE"
);
},
{
closed = 1;
nodes = (
"494 30 LINE",
"532 31 OFFCURVE",
"536 30 OFFCURVE",
"565 32 CURVE",
"565 291 LINE",
"501 314 LINE",
"496 292 OFFCURVE",
"494 262 OFFCURVE",
"494 216 CURVE"
);
},
{
closed = 1;
nodes = (
"356 341 LINE",
"353 332 OFFCURVE",
"350 318 OFFCURVE",
"350 310 CURVE SMOOTH",
"350 287 OFFCURVE",
"361 276 OFFCURVE",
"383 276 CURVE SMOOTH",
"434 276 OFFCURVE",
"508 277 OFFCURVE",
"565 278 CURVE",
"565 291 LINE SMOOTH",
"565 326 OFFCURVE",
"550 341 OFFCURVE",
"508 341 CURVE SMOOTH"
);
}
);
width = 636;
},
{
anchors = (
{
name = bottom_U;
position = "{345, -20}";
},
{
name = top_U;
position = "{351, 732}";
}
);
layerId = UUID1;
paths = (
{
closed = 1;
nodes = (
"535 669 OFFCURVE",
"449 698 OFFCURVE",
"351 698 CURVE SMOOTH",
"192 698 OFFCURVE",
"34 578 OFFCURVE",
"34 337 CURVE SMOOTH",
"34 117 OFFCURVE",
"135 -15 OFFCURVE",
"339 -15 CURVE SMOOTH",
"452 -15 OFFCURVE",
"548 7 OFFCURVE",
"606 26 CURVE",
"518 140 LINE",
"484 131 OFFCURVE",
"432 116 OFFCURVE",
"368 116 CURVE SMOOTH",
"264 116 OFFCURVE",
"205 183 OFFCURVE",
"205 336 CURVE SMOOTH",
"205 491 OFFCURVE",
"264 560 OFFCURVE",
"364 560 CURVE SMOOTH",
"419 560 OFFCURVE",
"481 539 OFFCURVE",
"530 507 CURVE",
"564 529 OFFCURVE",
"601 580 OFFCURVE",
"604 627 CURVE"
);
},
{
closed = 1;
nodes = (
"449 24 LINE",
"487 25 OFFCURVE",
"576 24 OFFCURVE",
"606 26 CURVE",
"606 289 LINE",
"464 336 LINE",
"451 289 OFFCURVE",
"449 230 OFFCURVE",
"449 183 CURVE"
);
},
{
closed = 1;
nodes = (
"339 392 LINE",
"332 372 OFFCURVE",
"327 345 OFFCURVE",
"327 323 CURVE SMOOTH",
"327 271 OFFCURVE",
"352 253 OFFCURVE",
"407 253 CURVE SMOOTH",
"446 253 OFFCURVE",
"543 254 OFFCURVE",
"606 255 CURVE",
"606 289 LINE SMOOTH",
"606 349 OFFCURVE",
"579 394 OFFCURVE",
"496 393 CURVE SMOOTH"
);
}
);
width = 656;
},
{
anchors = (
{
name = bottom_U;
position = "{348.5, -20}";
},
{
name = top_U;
position = "{354.5, 732}";
}
);
layerId = "3CDB9BDF-2CAB-4C38-BE1D-F1DC035F661C";
paths = (
{
closed = 1;
nodes = (
"544.1 669.7 OFFCURVE",
"458.8 699.05 OFFCURVE",
"354.5 699.05 CURVE SMOOTH",
"188.5 699.05 OFFCURVE",
"25.6 571 OFFCURVE",
"25.6 337 CURVE SMOOTH",
"25.6 99.15 OFFCURVE",
"139.9 -16.05 OFFCURVE",
"342.5 -16.05 CURVE SMOOTH",
"463.2 -16.05 OFFCURVE",
"563.4 7 OFFCURVE",
"620.35 23.9 CURVE",
"514.15 157.15 LINE",
"479.8 150.6 OFFCURVE",
"431.65 138.4 OFFCURVE",
"377.1 138.4 CURVE SMOOTH",
"285 138.4 OFFCURVE",
"229.85 194.9 OFFCURVE",
"229.85 336 CURVE SMOOTH",
"229.85 467.9 OFFCURVE",
"275.55 535.5 OFFCURVE",
"374.15 535.5 CURVE SMOOTH",
"422.15 535.5 OFFCURVE",
"483.1 516.25 OFFCURVE",
"531.75 487.05 CURVE",
"572.4 513.25 OFFCURVE",
"616.05 574.75 OFFCURVE",
"618 629.45 CURVE"
);
},
{
closed = 1;
nodes = (
"433.25 21.9 LINE",
"471.25 22.9 OFFCURVE",
"590 21.9 OFFCURVE",
"620.35 23.9 CURVE",
"620.35 288.3 LINE",
"451.05 343.7 LINE",
"435.25 287.95 OFFCURVE",
"433.25 218.8 OFFCURVE",
"433.25 171.45 CURVE"
);
},
{
closed = 1;
nodes = (
"333.05 409.85 LINE",
"324.65 386 OFFCURVE",
"318.95 354.45 OFFCURVE",
"318.95 327.55 CURVE SMOOTH",
"318.95 265.4 OFFCURVE",
"348.85 244.95 OFFCURVE",
"415.4 244.95 CURVE SMOOTH",
"450.2 244.95 OFFCURVE",
"555.25 245.95 OFFCURVE",
"620.35 246.95 CURVE",
"620.35 288.3 LINE SMOOTH",
"620.35 357.05 OFFCURVE",
"589.15 412.55 OFFCURVE",
"491.8 411.2 CURVE SMOOTH"
);
}
);
width = 663;
},
{
anchors = (
{
name = bottom_U;
position = "{334.85, -20}";
},
{
name = top_U;
position = "{340.85, 732}";
}
);
layerId = "E4378254-F350-404F-89FA-E431A9318E35";
paths = (
{
closed = 1;
nodes = (
"508.61 666.97 OFFCURVE",
"420.58 694.955 OFFCURVE",
"340.85 694.955 CURVE SMOOTH",
"202.15 694.955 OFFCURVE",
"58.36 598.3 OFFCURVE",
"58.36 337 CURVE SMOOTH",
"58.36 168.765 OFFCURVE",
"120.79 -11.955 OFFCURVE",
"328.85 -11.955 CURVE SMOOTH",
"419.52 -11.955 OFFCURVE",
"503.34 7 OFFCURVE",
"564.385 32.09 CURVE",
"529.165 90.265 LINE",
"496.18 74.16 OFFCURVE",
"433.015 51.04 OFFCURVE",
"341.61 51.04 CURVE SMOOTH",
"203.1 51.04 OFFCURVE",
"132.935 148.49 OFFCURVE",
"132.935 336 CURVE SMOOTH",
"132.935 557.99 OFFCURVE",
"230.505 631.05 OFFCURVE",
"334.565 631.05 CURVE SMOOTH",
"409.865 631.05 OFFCURVE",
"474.91 604.975 OFFCURVE",
"524.925 564.855 CURVE",
"539.64 574.675 OFFCURVE",
"557.355 595.225 OFFCURVE",
"563.4 619.895 CURVE"
);
},
{
closed = 1;
nodes = (
"494.675 30.09 LINE",
"532.675 31.09 OFFCURVE",
"535.4 30.09 OFFCURVE",
"564.385 32.09 CURVE",
"564.385 291.03 LINE",
"501.555 313.67 LINE",
"496.675 292.045 OFFCURVE",
"494.675 262.48 OFFCURVE",
"494.675 216.495 CURVE"
);
},
{
closed = 1;
nodes = (
"356.255 340.235 LINE",
"353.315 331.4 OFFCURVE",
"350.345 317.595 OFFCURVE",
"350.345 309.805 CURVE SMOOTH",
"350.345 287.24 OFFCURVE",
"361.135 276.345 OFFCURVE",
"382.64 276.345 CURVE SMOOTH",
"433.82 276.345 OFFCURVE",
"507.475 277.345 OFFCURVE",
"564.385 278.345 CURVE",
"564.385 291.03 LINE SMOOTH",
"564.385 325.655 OFFCURVE",
"549.565 340.205 OFFCURVE",
"508.18 340.22 CURVE SMOOTH"
);
}
);
width = 635.7;
}
);
leftKerningGroup = C;
rightKerningGroup = G;
unicode = 0047;
},
{
glyphname = H;
lastChange = "2018-10-16 19:32:45 +0000";
layers = (
{
anchors = (
{
name = bottom_U;
position = "{333, -20}";
},
{
name = top_U;
position = "{333, 732}";
}
);
layerId = UUID0;
paths = (
{
closed = 1;
nodes = (
"435 321 LINE",
"441 321 OFFCURVE",
"489 322 OFFCURVE",
"496 322 CURVE SMOOTH",
"510 322 OFFCURVE",
"524 321 OFFCURVE",
"538 321 CURVE",
"538 385 LINE",
"524 385 OFFCURVE",
"510 384 OFFCURVE",
"496 384 CURVE SMOOTH",
"489 384 OFFCURVE",
"441 385 OFFCURVE",
"435 385 CURVE SMOOTH",
"232 385 LINE SMOOTH",
"226 385 OFFCURVE",
"178 384 OFFCURVE",
"171 384 CURVE SMOOTH",
"157 384 OFFCURVE",
"143 385 OFFCURVE",
"129 385 CURVE",
"129 321 LINE",
"143 321 OFFCURVE",
"157 322 OFFCURVE",
"171 322 CURVE SMOOTH",
"178 322 OFFCURVE",
"226 321 OFFCURVE",
"232 321 CURVE SMOOTH"
);
},
{
closed = 1;
nodes = (
"172 248 LINE SMOOTH",
"172 276 OFFCURVE",
"171 295 OFFCURVE",
"171 322 CURVE SMOOTH",
"171 384 LINE SMOOTH",
"171 411 OFFCURVE",
"172 430 OFFCURVE",
"172 458 CURVE SMOOTH",
"172 683 LINE",
"162 685 OFFCURVE",
"149 686 OFFCURVE",
"135 686 CURVE SMOOTH",
"122 686 OFFCURVE",
"109 685 OFFCURVE",
"100 683 CURVE",
"100 0 LINE",
"109 -2 OFFCURVE",
"122 -3 OFFCURVE",
"135 -3 CURVE SMOOTH",
"149 -3 OFFCURVE",
"162 -2 OFFCURVE",
"172 0 CURVE"
);
},
{
closed = 1;
nodes = (
"495 0 LINE",
"504 -2 OFFCURVE",
"517 -3 OFFCURVE",
"530 -3 CURVE SMOOTH",
"544 -3 OFFCURVE",
"557 -2 OFFCURVE",
"567 0 CURVE",
"567 683 LINE",
"557 685 OFFCURVE",
"544 686 OFFCURVE",
"530 686 CURVE SMOOTH",
"517 686 OFFCURVE",
"504 685 OFFCURVE",
"495 683 CURVE",
"495 458 LINE SMOOTH",
"495 430 OFFCURVE",
"496 411 OFFCURVE",
"496 384 CURVE SMOOTH",
"496 322 LINE SMOOTH",
"496 295 OFFCURVE",
"495 276 OFFCURVE",
"495 248 CURVE SMOOTH"
);
}
);
width = 667;
},
{
anchors = (
{
name = bottom_U;
position = "{344, -20}";
},
{
name = top_U;
position = "{344, 733}";
}
);
layerId = UUID1;
paths = (
{
closed = 1;
nodes = (
"398 282 LINE",
"413 282 OFFCURVE",
"432 283 OFFCURVE",
"447 283 CURVE SMOOTH",
"480 283 OFFCURVE",
"515 282 OFFCURVE",
"548 282 CURVE",
"548 422 LINE",
"515 422 OFFCURVE",
"480 421 OFFCURVE",
"447 421 CURVE SMOOTH",
"432 421 OFFCURVE",
"413 422 OFFCURVE",
"398 422 CURVE SMOOTH",
"290 422 LINE SMOOTH",
"275 422 OFFCURVE",
"256 421 OFFCURVE",
"241 421 CURVE SMOOTH",
"208 421 OFFCURVE",
"173 422 OFFCURVE",
"140 422 CURVE",
"140 282 LINE",
"173 282 OFFCURVE",
"208 283 OFFCURVE",
"241 283 CURVE SMOOTH",
"256 283 OFFCURVE",
"275 282 OFFCURVE",
"290 282 CURVE SMOOTH"
);
},
{
closed = 1;
nodes = (
"242 209 LINE SMOOTH",
"242 237 OFFCURVE",
"241 256 OFFCURVE",
"241 283 CURVE SMOOTH",
"241 421 LINE SMOOTH",
"241 448 OFFCURVE",
"242 467 OFFCURVE",
"242 495 CURVE SMOOTH",
"242 683 LINE",
"214 688 OFFCURVE",
"180 689 OFFCURVE",
"158 689 CURVE SMOOTH",
"138 689 OFFCURVE",
"101 688 OFFCURVE",
"74 683 CURVE",
"74 0 LINE",
"101 -5 OFFCURVE",
"138 -6 OFFCURVE",
"158 -6 CURVE SMOOTH",
"180 -6 OFFCURVE",
"214 -5 OFFCURVE",
"242 0 CURVE"
);
},
{
closed = 1;
nodes = (
"446 0 LINE",
"475 -5 OFFCURVE",
"509 -6 OFFCURVE",
"532 -6 CURVE SMOOTH",
"555 -6 OFFCURVE",
"585 -5 OFFCURVE",
"614 0 CURVE",
"614 683 LINE",
"587 688 OFFCURVE",
"550 689 OFFCURVE",
"530 689 CURVE SMOOTH",
"508 689 OFFCURVE",
"474 688 OFFCURVE",
"446 683 CURVE",
"446 495 LINE SMOOTH",
"446 467 OFFCURVE",
"447 448 OFFCURVE",
"447 421 CURVE SMOOTH",
"447 283 LINE SMOOTH",
"447 256 OFFCURVE",
"446 237 OFFCURVE",
"446 209 CURVE SMOOTH"
);
}
);
width = 688;
},
{
anchors = (
{
name = bottom_U;
position = "{347.85, -20}";
},
{
name = top_U;
position = "{347.85, 733.35}";
}
);
layerId = "3CDB9BDF-2CAB-4C38-BE1D-F1DC035F661C";
paths = (
{
closed = 1;
nodes = (
"385.05 268.35 LINE",
"403.2 268.35 OFFCURVE",
"412.05 269.35 OFFCURVE",
"429.85 269.35 CURVE SMOOTH",
"469.5 269.35 OFFCURVE",
"511.85 268.35 OFFCURVE",
"551.5 268.35 CURVE",
"551.5 434.95 LINE",
"511.85 434.95 OFFCURVE",
"469.5 433.95 OFFCURVE",
"429.85 433.95 CURVE SMOOTH",
"412.05 433.95 OFFCURVE",
"403.2 434.95 OFFCURVE",
"385.05 434.95 CURVE SMOOTH",
"310.3 434.95 LINE SMOOTH",
"292.15 434.95 OFFCURVE",
"283.3 433.95 OFFCURVE",
"265.5 433.95 CURVE SMOOTH",
"225.85 433.95 OFFCURVE",
"183.5 434.95 OFFCURVE",
"143.85 434.95 CURVE",
"143.85 268.35 LINE",
"183.5 268.35 OFFCURVE",
"225.85 269.35 OFFCURVE",
"265.5 269.35 CURVE SMOOTH",
"283.3 269.35 OFFCURVE",
"292.15 268.35 OFFCURVE",
"310.3 268.35 CURVE SMOOTH"
);
},
{
closed = 1;
nodes = (
"266.5 195.35 LINE SMOOTH",
"266.5 223.35 OFFCURVE",
"265.5 242.35 OFFCURVE",
"265.5 269.35 CURVE SMOOTH",
"265.5 433.95 LINE SMOOTH",
"265.5 460.95 OFFCURVE",
"266.5 479.95 OFFCURVE",
"266.5 507.95 CURVE SMOOTH",
"266.5 683 LINE",
"232.2 689.05 OFFCURVE",
"190.85 690.05 OFFCURVE",
"166.05 690.05 CURVE SMOOTH",
"143.6 690.05 OFFCURVE",
"98.2 689.05 OFFCURVE",
"64.9 683 CURVE",
"64.9 0 LINE",
"98.2 -6.05 OFFCURVE",
"143.6 -7.05 OFFCURVE",
"166.05 -7.05 CURVE SMOOTH",
"190.85 -7.05 OFFCURVE",
"232.2 -6.05 OFFCURVE",
"266.5 0 CURVE"
);
},
{
closed = 1;
nodes = (
"428.85 0 LINE",
"464.85 -6.05 OFFCURVE",
"506.2 -7.05 OFFCURVE",
"532.7 -7.05 CURVE SMOOTH",
"558.85 -7.05 OFFCURVE",
"594.8 -6.05 OFFCURVE",
"630.45 0 CURVE",
"630.45 683 LINE",
"597.5 689.05 OFFCURVE",
"552.1 690.05 OFFCURVE",
"530 690.05 CURVE SMOOTH",
"504.85 690.05 OFFCURVE",
"463.5 689.05 OFFCURVE",
"428.85 683 CURVE",
"428.85 507.95 LINE SMOOTH",
"428.85 479.95 OFFCURVE",
"429.85 460.95 OFFCURVE",
"429.85 433.95 CURVE SMOOTH",
"429.85 269.35 LINE SMOOTH",
"429.85 242.35 OFFCURVE",
"428.85 223.35 OFFCURVE",
"428.85 195.35 CURVE SMOOTH"
);
}
);
width = 695.35;
},
{
anchors = (
{
name = bottom_U;
position = "{332.835, -20}";
},
{
name = top_U;
position = "{332.835, 731.985}";
}
);
layerId = "E4378254-F350-404F-89FA-E431A9318E35";
paths = (
{
closed = 1;
nodes = (
"435.555 321.585 LINE",
"441.42 321.585 OFFCURVE",
"489.855 322.585 OFFCURVE",
"496.735 322.585 CURVE SMOOTH",
"510.45 322.585 OFFCURVE",
"524.135 321.585 OFFCURVE",
"537.85 321.585 CURVE",
"537.85 384.445 LINE",
"524.135 384.445 OFFCURVE",
"510.45 383.445 OFFCURVE",
"496.735 383.445 CURVE SMOOTH",
"489.855 383.445 OFFCURVE",
"441.42 384.445 OFFCURVE",
"435.555 384.445 CURVE SMOOTH",
"231.13 384.445 LINE SMOOTH",
"225.265 384.445 OFFCURVE",
"176.83 383.445 OFFCURVE",
"169.95 383.445 CURVE SMOOTH",
"156.235 383.445 OFFCURVE",
"142.55 384.445 OFFCURVE",
"128.835 384.445 CURVE",
"128.835 321.585 LINE",
"142.55 321.585 OFFCURVE",
"156.235 322.585 OFFCURVE",
"169.95 322.585 CURVE SMOOTH",
"176.83 322.585 OFFCURVE",
"225.265 321.585 OFFCURVE",
"231.13 321.585 CURVE SMOOTH"
);
},
{
closed = 1;
nodes = (
"170.95 248.585 LINE SMOOTH",
"170.95 276.585 OFFCURVE",
"169.95 295.585 OFFCURVE",
"169.95 322.585 CURVE SMOOTH",
"169.95 383.445 LINE SMOOTH",
"169.95 410.445 OFFCURVE",
"170.95 429.445 OFFCURVE",
"170.95 457.445 CURVE SMOOTH",
"170.95 683 LINE",
"161.22 684.955 OFFCURVE",
"148.535 685.955 OFFCURVE",
"134.655 685.955 CURVE SMOOTH",
"121.76 685.955 OFFCURVE",
"109.12 684.955 OFFCURVE",
"100.39 683 CURVE",
"100.39 0 LINE",
"109.12 -1.955 OFFCURVE",
"121.76 -2.955 OFFCURVE",
"134.655 -2.955 CURVE SMOOTH",
"148.535 -2.955 OFFCURVE",
"161.22 -1.955 OFFCURVE",
"170.95 0 CURVE"
);
},
{
closed = 1;
nodes = (
"495.735 0 LINE",
"504.435 -1.955 OFFCURVE",
"517.12 -2.955 OFFCURVE",
"529.97 -2.955 CURVE SMOOTH",
"543.835 -2.955 OFFCURVE",
"556.58 -1.955 OFFCURVE",
"566.295 0 CURVE",
"566.295 683 LINE",
"556.55 684.955 OFFCURVE",
"543.91 685.955 OFFCURVE",
"530 685.955 CURVE SMOOTH",
"517.135 685.955 OFFCURVE",
"504.45 684.955 OFFCURVE",
"495.735 683 CURVE",
"495.735 457.445 LINE SMOOTH",
"495.735 429.445 OFFCURVE",
"496.735 410.445 OFFCURVE",
"496.735 383.445 CURVE SMOOTH",
"496.735 322.585 LINE SMOOTH",
"496.735 295.585 OFFCURVE",
"495.735 276.585 OFFCURVE",
"495.735 248.585 CURVE SMOOTH"
);
}
);
width = 666.685;
}
);
unicode = 0048;
},
{
glyphname = I;
lastChange = "2018-10-16 19:32:45 +0000";
layers = (
{
anchors = (
{
name = bottom_U;
position = "{139, -20}";
},
{
name = top_U;
position = "{140, 732}";
}
);
layerId = UUID0;
paths = (
{
closed = 1;
nodes = (
"104 0 LINE",
"113 -2 OFFCURVE",
"126 -3 OFFCURVE",
"139 -3 CURVE SMOOTH",
"153 -3 OFFCURVE",
"166 -2 OFFCURVE",
"176 0 CURVE",
"176 683 LINE",
"166 685 OFFCURVE",
"153 686 OFFCURVE",
"139 686 CURVE SMOOTH",
"126 686 OFFCURVE",
"113 685 OFFCURVE",
"104 683 CURVE"
);
}
);
width = 280;
},
{
anchors = (
{
name = bottom_U;
position = "{160, -20}";
},
{
name = top_U;
position = "{160, 733}";
}
);
layerId = UUID1;
paths = (
{
closed = 1;
nodes = (
"76 0 LINE",
"103 -5 OFFCURVE",
"140 -6 OFFCURVE",
"160 -6 CURVE SMOOTH",
"182 -6 OFFCURVE",
"216 -5 OFFCURVE",
"244 0 CURVE",
"244 683 LINE",
"216 688 OFFCURVE",
"182 689 OFFCURVE",
"160 689 CURVE SMOOTH",
"140 689 OFFCURVE",
"103 688 OFFCURVE",
"76 683 CURVE"
);
}
);
width = 320;
},
{
anchors = (
{
name = bottom_U;
position = "{167.35, -20}";
},
{
name = top_U;
position = "{167, 733.35}";
}
);
layerId = "3CDB9BDF-2CAB-4C38-BE1D-F1DC035F661C";
paths = (
{
closed = 1;
nodes = (
"66.2 0 LINE",
"99.5 -6.05 OFFCURVE",
"144.9 -7.05 OFFCURVE",
"167.35 -7.05 CURVE SMOOTH",
"192.15 -7.05 OFFCURVE",
"233.5 -6.05 OFFCURVE",
"267.8 0 CURVE",
"267.8 683 LINE",
"233.5 689.05 OFFCURVE",
"192.15 690.05 OFFCURVE",
"167.35 690.05 CURVE SMOOTH",
"144.9 690.05 OFFCURVE",
"99.5 689.05 OFFCURVE",
"66.2 683 CURVE"
);
}
);
width = 334;
},
{
anchors = (
{
name = bottom_U;
position = "{138.685, -20}";
},
{
name = top_U;
position = "{139.7, 731.985}";
}
);
layerId = "E4378254-F350-404F-89FA-E431A9318E35";
paths = (
{
closed = 1;
nodes = (
"104.42 0 LINE",
"113.15 -1.955 OFFCURVE",
"125.79 -2.955 OFFCURVE",
"138.685 -2.955 CURVE SMOOTH",
"152.565 -2.955 OFFCURVE",
"165.25 -1.955 OFFCURVE",
"174.98 0 CURVE",
"174.98 683 LINE",
"165.25 684.955 OFFCURVE",
"152.565 685.955 OFFCURVE",
"138.685 685.955 CURVE SMOOTH",
"125.79 685.955 OFFCURVE",
"113.15 684.955 OFFCURVE",
"104.42 683 CURVE"
);
}
);
width = 279.4;
}
);
unicode = 0049;
},
{
glyphname = J;
lastChange = "2018-10-16 19:32:45 +0000";
layers = (
{
anchors = (
{
name = bottom_U;
position = "{191, -20}";
},
{
name = top_U;
position = "{313, 732}";
}
);
layerId = UUID0;
paths = (
{
closed = 1;
nodes = (
"25 71 OFFCURVE",
"15 53 OFFCURVE",
"10 31 CURVE",
"51 6 OFFCURVE",
"110 -10 OFFCURVE",
"161 -10 CURVE SMOOTH",
"325 -10 OFFCURVE",
"348 101 OFFCURVE",
"348 240 CURVE SMOOTH",
"348 683 LINE",
"339 685 OFFCURVE",
"326 686 OFFCURVE",
"313 686 CURVE SMOOTH",
"299 686 OFFCURVE",
"286 685 OFFCURVE",
"276 683 CURVE",
"276 225 LINE",
"276 100 OFFCURVE",
"246 52 OFFCURVE",
"158 52 CURVE SMOOTH",
"118 52 OFFCURVE",
"71 67 OFFCURVE",
"40 86 CURVE"
);
}
);
width = 434;
},
{
anchors = (
{
name = bottom_U;
position = "{217, -20}";
},
{
name = top_U;
position = "{326, 732}";
}
);
layerId = UUID1;
paths = (
{
closed = 1;
nodes = (
"37 124 OFFCURVE",
"16 76 OFFCURVE",
"10 34 CURVE",
"58 4 OFFCURVE",
"121 -10 OFFCURVE",
"174 -10 CURVE SMOOTH",
"364 -10 OFFCURVE",
"410 105 OFFCURVE",
"410 264 CURVE SMOOTH",
"410 683 LINE",
"382 688 OFFCURVE",
"348 689 OFFCURVE",
"326 689 CURVE SMOOTH",
"306 689 OFFCURVE",
"269 688 OFFCURVE",
"242 683 CURVE",
"242 249 LINE",
"242 174 OFFCURVE",
"226 128 OFFCURVE",
"155 128 CURVE SMOOTH",
"124 128 OFFCURVE",
"95 141 OFFCURVE",
"67 158 CURVE"
);
}
);
width = 474;
},
{
anchors = (
{
name = bottom_U;
position = "{226.1, -20}";
},
{
name = top_U;
position = "{330.55, 732}";
}
);
layerId = "3CDB9BDF-2CAB-4C38-BE1D-F1DC035F661C";
paths = (
{
closed = 1;
nodes = (
"41.2 142.55 OFFCURVE",
"16.35 84.05 OFFCURVE",
"10 35.05 CURVE",
"60.45 3.3 OFFCURVE",
"124.85 -10 OFFCURVE",
"178.55 -10 CURVE SMOOTH",
"377.65 -10 OFFCURVE",
"431.7 106.4 OFFCURVE",
"431.7 272.4 CURVE SMOOTH",
"431.7 683 LINE",
"397.05 689.05 OFFCURVE",
"355.7 690.05 OFFCURVE",
"330.55 690.05 CURVE SMOOTH",
"308.45 690.05 OFFCURVE",
"263.05 689.05 OFFCURVE",
"230.1 683 CURVE",
"230.1 257.4 LINE",
"230.1 199.9 OFFCURVE",
"219 154.6 OFFCURVE",
"153.95 154.6 CURVE SMOOTH",
"126.1 154.6 OFFCURVE",
"103.4 166.9 OFFCURVE",
"76.45 183.2 CURVE"
);
}
);
width = 488;
},
{
anchors = (
{
name = bottom_U;
position = "{190.61, -20}";
},
{
name = top_U;
position = "{312.805, 732}";
}
);
layerId = "E4378254-F350-404F-89FA-E431A9318E35";
paths = (
{
closed = 1;
nodes = (
"24.82 70.205 OFFCURVE",
"14.985 52.655 OFFCURVE",
"10 30.955 CURVE",
"50.895 6.03 OFFCURVE",
"109.835 -10 OFFCURVE",
"160.805 -10 CURVE SMOOTH",
"324.415 -10 OFFCURVE",
"347.07 100.94 OFFCURVE",
"347.07 239.64 CURVE SMOOTH",
"347.07 683 LINE",
"338.355 684.955 OFFCURVE",
"325.67 685.955 OFFCURVE",
"312.805 685.955 CURVE SMOOTH",
"298.895 685.955 OFFCURVE",
"286.255 684.955 OFFCURVE",
"276.51 683 CURVE",
"276.51 224.64 LINE",
"276.51 98.89 OFFCURVE",
"246.3 50.86 OFFCURVE",
"158.045 50.86 CURVE SMOOTH",
"117.91 50.86 OFFCURVE",
"70.64 65.89 OFFCURVE",
"39.595 84.92 CURVE"
);
}
);
width = 433.4;
}
);
leftKerningGroup = J;
rightKerningGroup = U;
unicode = 004A;
},
{
glyphname = K;
lastChange = "2018-10-16 19:32:45 +0000";
layers = (
{
anchors = (
{
name = bottom_U;
position = "{303, -20}";
},
{
name = top_U;
position = "{300, 732}";
}
);
layerId = UUID0;
paths = (
{
closed = 1;
nodes = (
"100 0 LINE",
"109 -2 OFFCURVE",
"122 -3 OFFCURVE",
"135 -3 CURVE SMOOTH",
"149 -3 OFFCURVE",
"162 -2 OFFCURVE",
"172 0 CURVE",
"172 683 LINE",
"162 685 OFFCURVE",
"149 686 OFFCURVE",
"135 686 CURVE SMOOTH",
"122 686 OFFCURVE",
"109 685 OFFCURVE",
"100 683 CURVE"
);
},
{
closed = 1;
nodes = (
"544 31 OFFCURVE",
"531 47 OFFCURVE",
"518 79 CURVE SMOOTH",
"455 237 LINE SMOOTH",
"418 329 OFFCURVE",
"384 369 OFFCURVE",
"288 369 CURVE SMOOTH",
"134 369 LINE",
"134 317 LINE",
"201 320 OFFCURVE",
"240 320 OFFCURVE",
"255 320 CURVE SMOOTH",
"322 320 OFFCURVE",
"357 292 OFFCURVE",
"390 208 CURVE SMOOTH",
"455 43 LINE SMOOTH",
"467 12 OFFCURVE",
"476 -5 OFFCURVE",
"508 -5 CURVE SMOOTH",
"524 -5 OFFCURVE",
"548 4 OFFCURVE",
"558 20 CURVE"
);
},
{
closed = 1;
nodes = (
"281 408 LINE",
"271 392 OFFCURVE",
"264 384 OFFCURVE",
"247 384 CURVE SMOOTH",
"134 381 LINE",
"134 338 LINE",
"250 338 LINE SMOOTH",
"297 338 OFFCURVE",
"332 363 OFFCURVE",
"356 401 CURVE SMOOTH",
"527 675 LINE",
"521 683 LINE",
"507 684 OFFCURVE",
"496 685 OFFCURVE",
"483 685 CURVE SMOOTH",
"454 685 OFFCURVE",
"445 672 OFFCURVE",
"431 649 CURVE SMOOTH"
);
}
);
width = 581;
},
{
anchors = (
{
name = bottom_U;
position = "{331, -20}";
},
{
name = top_U;
position = "{327, 732}";
}
);
layerId = UUID1;
paths = (
{
closed = 1;
nodes = (
"74 0 LINE",
"101 -5 OFFCURVE",
"138 -6 OFFCURVE",
"158 -6 CURVE SMOOTH",
"180 -6 OFFCURVE",
"214 -5 OFFCURVE",
"242 0 CURVE",
"242 683 LINE",
"214 688 OFFCURVE",
"180 689 OFFCURVE",
"158 689 CURVE SMOOTH",
"138 689 OFFCURVE",
"101 688 OFFCURVE",
"74 683 CURVE"
);
},
{
closed = 1;
nodes = (
"584 73 OFFCURVE",
"578 102 OFFCURVE",
"566 138 CURVE SMOOTH",
"527 259 LINE SMOOTH",
"506 323 OFFCURVE",
"474 377 OFFCURVE",
"360 377 CURVE SMOOTH",
"157 377 LINE",
"157 275 LINE",
"206 280 OFFCURVE",
"251 284 OFFCURVE",
"282 284 CURVE SMOOTH",
"328 284 OFFCURVE",
"353 260 OFFCURVE",
"372 199 CURVE SMOOTH",
"407 86 LINE SMOOTH",
"427 22 OFFCURVE",
"448 -9 OFFCURVE",
"508 -9 CURVE SMOOTH",
"553 -9 OFFCURVE",
"597 9 OFFCURVE",
"619 41 CURVE"
);
},
{
closed = 1;
nodes = (
"309 458 LINE",
"295 430 OFFCURVE",
"289 423 OFFCURVE",
"263 423 CURVE SMOOTH",
"157 421 LINE",
"157 327 LINE",
"279 327 LINE SMOOTH",
"382 327 OFFCURVE",
"438 372 OFFCURVE",
"477 447 CURVE SMOOTH",
"594 673 LINE",
"585 684 LINE",
"552 687 OFFCURVE",
"511 689 OFFCURVE",
"484 689 CURVE SMOOTH",
"436 689 OFFCURVE",
"419 671 OFFCURVE",
"399 632 CURVE SMOOTH"
);
}
);
width = 624;
},
{
anchors = (
{
name = bottom_U;
position = "{340.8, -20}";
},
{
name = top_U;
position = "{336.45, 732}";
}
);
layerId = "3CDB9BDF-2CAB-4C38-BE1D-F1DC035F661C";
paths = (
{
closed = 1;
nodes = (
"64.9 0 LINE",
"98.2 -6.05 OFFCURVE",
"143.6 -7.05 OFFCURVE",
"166.05 -7.05 CURVE SMOOTH",
"190.85 -7.05 OFFCURVE",
"232.2 -6.05 OFFCURVE",
"266.5 0 CURVE",
"266.5 683 LINE",
"232.2 689.05 OFFCURVE",
"190.85 690.05 OFFCURVE",
"166.05 690.05 CURVE SMOOTH",
"143.6 690.05 OFFCURVE",
"98.2 689.05 OFFCURVE",
"64.9 683 CURVE"
);
},
{
closed = 1;
nodes = (
"598 87.7 OFFCURVE",
"594.45 121.25 OFFCURVE",
"582.8 158.65 CURVE SMOOTH",
"552.2 266.7 LINE SMOOTH",
"536.8 320.9 OFFCURVE",
"505.5 379.8 OFFCURVE",
"385.2 379.8 CURVE SMOOTH",
"165.05 379.8 LINE",
"165.05 260.3 LINE",
"207.75 266 OFFCURVE",
"254.85 271.4 OFFCURVE",
"291.45 271.4 CURVE SMOOTH",
"330.1 271.4 OFFCURVE",
"351.6 248.8 OFFCURVE",
"365.7 195.85 CURVE SMOOTH",
"390.2 101.05 LINE SMOOTH",
"413 25.5 OFFCURVE",
"438.2 -10.4 OFFCURVE",
"508 -10.4 CURVE SMOOTH",
"563.15 -10.4 OFFCURVE",
"614.15 10.75 OFFCURVE",
"640.35 48.35 CURVE"
);
},
{
closed = 1;
nodes = (
"318.8 475.5 LINE",
"303.4 443.3 OFFCURVE",
"297.75 436.65 OFFCURVE",
"268.6 436.65 CURVE SMOOTH",
"165.05 435 LINE",
"165.05 323.15 LINE",
"289.15 323.15 LINE SMOOTH",
"411.75 323.15 OFFCURVE",
"475.1 375.15 OFFCURVE",
"519.35 463.1 CURVE SMOOTH",
"617.45 672.3 LINE",
"607.4 684.35 LINE",
"567.75 688.05 OFFCURVE",
"516.25 690.4 OFFCURVE",
"484.35 690.4 CURVE SMOOTH",
"429.7 690.4 OFFCURVE",
"409.9 670.65 OFFCURVE",
"387.8 626.05 CURVE SMOOTH"
);
}
);
width = 639.05;
},
{
anchors = (
{
name = bottom_U;
position = "{302.58, -20}";
},
{
name = top_U;
position = "{299.595, 732}";
}
);
layerId = "E4378254-F350-404F-89FA-E431A9318E35";
paths = (
{
closed = 1;
nodes = (
"100.39 0 LINE",
"109.12 -1.955 OFFCURVE",
"121.76 -2.955 OFFCURVE",
"134.655 -2.955 CURVE SMOOTH",
"148.535 -2.955 OFFCURVE",
"161.22 -1.955 OFFCURVE",
"170.95 0 CURVE",
"170.95 683 LINE",
"161.22 684.955 OFFCURVE",
"148.535 685.955 OFFCURVE",
"134.655 685.955 CURVE SMOOTH",
"121.76 685.955 OFFCURVE",
"109.12 684.955 OFFCURVE",
"100.39 683 CURVE"
);
},
{
closed = 1;
nodes = (
"543.4 30.37 OFFCURVE",
"530.295 46.175 OFFCURVE",
"517.28 78.115 CURVE SMOOTH",
"453.92 236.67 LINE SMOOTH",
"416.68 329.09 OFFCURVE",
"382.65 368.88 OFFCURVE",
"286.92 368.88 CURVE SMOOTH",
"133.655 368.88 LINE",
"133.655 317.63 LINE",
"200.925 320.6 OFFCURVE",
"239.835 320.54 OFFCURVE",
"254.595 320.54 CURVE SMOOTH",
"321.91 320.54 OFFCURVE",
"357.06 292.48 OFFCURVE",
"390.27 208.135 CURVE SMOOTH",
"455.72 42.355 LINE SMOOTH",
"467.6 11.85 OFFCURVE",
"476.42 -4.94 OFFCURVE",
"508 -4.94 CURVE SMOOTH",
"523.565 -4.94 OFFCURVE",
"547.265 3.925 OFFCURVE",
"557.085 19.685 CURVE"
);
},
{
closed = 1;
nodes = (
"280.58 407.25 LINE",
"270.64 391.43 OFFCURVE",
"263.625 383.415 OFFCURVE",
"246.76 383.415 CURVE SMOOTH",
"133.655 380.4 LINE",
"133.655 338.165 LINE",
"249.565 338.165 LINE SMOOTH",
"295.725 338.165 OFFCURVE",
"330.41 362.865 OFFCURVE",
"354.185 400.31 CURVE SMOOTH",
"525.995 675.03 LINE",
"520.04 682.985 LINE",
"506.325 683.955 OFFCURVE",
"495.775 684.94 OFFCURVE",
"482.985 684.94 CURVE SMOOTH",
"454.27 684.94 OFFCURVE",
"445.39 672.015 OFFCURVE",
"431.48 649.255 CURVE SMOOTH"
);
}
);
width = 580.355;
}
);
rightKerningGroup = K;
unicode = 004B;
},
{
glyphname = L;
lastChange = "2018-10-16 19:32:45 +0000";
layers = (
{
anchors = (
{
name = bottom_U;
position = "{289, -20}";
},
{
name = top_U;
position = "{135, 732}";
}
);
layerId = UUID0;
paths = (
{
closed = 1;
nodes = (
"172 639 LINE",
"172 670 OFFCURVE",
"167 686 OFFCURVE",
"135 686 CURVE SMOOTH",
"106 686 LINE",
"100 680 LINE",
"100 49 LINE SMOOTH",
"100 16 OFFCURVE",
"119 0 OFFCURVE",
"142 0 CURVE SMOOTH",
"172 0 LINE"
);
},
{
closed = 1;
nodes = (
"258 64 LINE",
"213 64 OFFCURVE",
"152 61 OFFCURVE",
"107 54 CURVE",
"142 0 LINE",
"425 0 LINE SMOOTH",
"450 0 OFFCURVE",
"467 10 OFFCURVE",
"471 33 CURVE SMOOTH",
"473 43 OFFCURVE",
"473 58 OFFCURVE",
"473 64 CURVE"
);
}
);
width = 505;
},
{
anchors = (
{
name = bottom_U;
position = "{285, -20}";
},
{
name = top_U;
position = "{156, 727}";
}
);
layerId = UUID1;
paths = (
{
closed = 1;
nodes = (
"241 584 LINE",
"241 659 OFFCURVE",
"205 690 OFFCURVE",
"141 690 CURVE SMOOTH",
"80 690 LINE",
"73 683 LINE",
"73 94 LINE SMOOTH",
"73 34 OFFCURVE",
"110 -3 OFFCURVE",
"170 -3 CURVE SMOOTH",
"241 -3 LINE"
);
},
{
closed = 1;
nodes = (
"335 141 LINE",
"262 141 OFFCURVE",
"171 134 OFFCURVE",
"80 118 CURVE",
"170 -3 LINE",
"391 -3 LINE SMOOTH",
"452 -3 OFFCURVE",
"492 26 OFFCURVE",
"501 79 CURVE SMOOTH",
"504 99 OFFCURVE",
"505 121 OFFCURVE",
"505 141 CURVE"
);
}
);
width = 524;
},
{
anchors = (
{
name = bottom_U;
position = "{283.6, -20}";
},
{
name = top_U;
position = "{163.35, 725.25}";
}
);
layerId = "3CDB9BDF-2CAB-4C38-BE1D-F1DC035F661C";
paths = (
{
closed = 1;
nodes = (
"265.15 564.75 LINE",
"265.15 655.15 OFFCURVE",
"218.3 691.4 OFFCURVE",
"143.1 691.4 CURVE SMOOTH",
"70.9 691.4 LINE",
"63.55 684.05 LINE",
"63.55 109.75 LINE SMOOTH",
"63.55 40.3 OFFCURVE",
"106.85 -4.05 OFFCURVE",
"179.8 -4.05 CURVE SMOOTH",
"265.15 -4.05 LINE"
);
},
{
closed = 1;
nodes = (
"361.95 167.95 LINE",
"279.15 167.95 OFFCURVE",
"177.65 159.55 OFFCURVE",
"70.55 140.4 CURVE",
"179.8 -4.05 LINE",
"379.1 -4.05 LINE SMOOTH",
"452.7 -4.05 OFFCURVE",
"500.75 31.6 OFFCURVE",
"511.5 95.1 CURVE SMOOTH",
"514.85 118.6 OFFCURVE",
"516.2 143.05 OFFCURVE",
"516.2 167.95 CURVE"
);
}
);
width = 530.65;
},
{
anchors = (
{
name = bottom_U;
position = "{289.06, -20}";
},
{
name = top_U;
position = "{134.685, 732.075}";
}
);
layerId = "E4378254-F350-404F-89FA-E431A9318E35";
paths = (
{
closed = 1;
nodes = (
"170.965 639.825 LINE",
"170.965 670.165 OFFCURVE",
"166.43 685.94 OFFCURVE",
"134.91 685.94 CURVE SMOOTH",
"106.39 685.94 LINE",
"100.405 679.955 LINE",
"100.405 48.325 LINE SMOOTH",
"100.405 15.73 OFFCURVE",
"119.135 0.045 OFFCURVE",
"141.58 0.045 CURVE SMOOTH",
"170.965 0.045 LINE"
);
},
{
closed = 1;
nodes = (
"256.845 62.845 LINE",
"212.265 62.845 OFFCURVE",
"151.715 59.905 OFFCURVE",
"107.405 53.04 CURVE",
"141.58 0.045 LINE",
"425.51 0.045 LINE SMOOTH",
"449.97 0.045 OFFCURVE",
"466.625 9.76 OFFCURVE",
"470.55 32.31 CURVE SMOOTH",
"472.535 42.16 OFFCURVE",
"472.52 57.055 OFFCURVE",
"472.52 62.845 CURVE"
);
}
);
width = 504.715;
}
);
rightKerningGroup = L;
unicode = 004C;
},
{
glyphname = M;
lastChange = "2018-10-16 19:32:45 +0000";
layers = (
{
anchors = (
{
name = bottom_U;
position = "{395, -20}";
},
{
name = top_U;
position = "{395, 732}";
}
);
layerId = UUID0;
paths = (
{
closed = 1;
nodes = (
"86 1 LINE",
"95 -2 OFFCURVE",
"109 -4 OFFCURVE",
"121 -4 CURVE SMOOTH",
"133 -4 OFFCURVE",
"145 -3 OFFCURVE",
"156 -1 CURVE",
"185 421 LINE SMOOTH",
"188 465 OFFCURVE",
"190 551 OFFCURVE",
"193 607 CURVE",
"198 607 LINE",
"360 107 LINE",
"370 105 OFFCURVE",
"382 104 OFFCURVE",
"395 104 CURVE SMOOTH",
"407 104 OFFCURVE",
"420 105 OFFCURVE",
"431 107 CURVE",
"593 607 LINE",
"598 607 LINE",
"600 551 OFFCURVE",
"603 465 OFFCURVE",
"606 421 CURVE SMOOTH",
"635 -1 LINE",
"646 -3 OFFCURVE",
"656 -4 OFFCURVE",
"668 -4 CURVE SMOOTH",
"680 -4 OFFCURVE",
"695 -2 OFFCURVE",
"705 1 CURVE",
"652 683 LINE",
"632 686 OFFCURVE",
"612 686 OFFCURVE",
"603 686 CURVE SMOOTH",
"593 686 OFFCURVE",
"577 686 OFFCURVE",
"557 683 CURVE",
"439 326 LINE SMOOTH",
"427 291 OFFCURVE",
"400 195 OFFCURVE",
"398 182 CURVE",
"393 182 LINE",
"391 195 OFFCURVE",
"364 291 OFFCURVE",
"352 326 CURVE SMOOTH",
"234 683 LINE",
"217 686 OFFCURVE",
"198 686 OFFCURVE",
"188 686 CURVE SMOOTH",
"179 686 OFFCURVE",
"157 686 OFFCURVE",
"139 683 CURVE"
);
}
);
width = 791;
},
{
anchors = (
{
name = bottom_U;
position = "{419, -20}";
},
{
name = top_U;
position = "{419, 732}";
}
);
layerId = UUID1;
paths = (
{
closed = 1;
nodes = (
"52 2 LINE",
"76 -4 OFFCURVE",
"110 -6 OFFCURVE",
"137 -6 CURVE SMOOTH",
"162 -6 OFFCURVE",
"186 -5 OFFCURVE",
"210 -1 CURVE",
"224 265 LINE SMOOTH",
"228 338 OFFCURVE",
"232 433 OFFCURVE",
"232 499 CURVE",
"239 499 LINE",
"332 100 LINE",
"357 96 OFFCURVE",
"397 94 OFFCURVE",
"418 94 CURVE SMOOTH",
"441 94 OFFCURVE",
"480 96 OFFCURVE",
"505 100 CURVE",
"598 499 LINE",
"605 499 LINE",
"605 433 OFFCURVE",
"609 338 OFFCURVE",
"613 265 CURVE SMOOTH",
"627 -1 LINE",
"651 -5 OFFCURVE",
"675 -6 OFFCURVE",
"700 -6 CURVE SMOOTH",
"727 -6 OFFCURVE",
"761 -4 OFFCURVE",
"785 2 CURVE",
"732 682 LINE",
"697 688 OFFCURVE",
"650 690 OFFCURVE",
"619 690 CURVE SMOOTH",
"588 690 OFFCURVE",
"548 688 OFFCURVE",
"513 682 CURVE",
"459 447 LINE SMOOTH",
"454 424 OFFCURVE",
"431 316 OFFCURVE",
"422 262 CURVE",
"415 262 LINE",
"406 316 OFFCURVE",
"383 424 OFFCURVE",
"378 447 CURVE SMOOTH",
"324 682 LINE",
"289 688 OFFCURVE",
"249 690 OFFCURVE",
"218 690 CURVE SMOOTH",
"187 690 OFFCURVE",
"140 688 OFFCURVE",
"105 682 CURVE"
);
}
);
width = 837;
},
{
anchors = (
{
name = bottom_U;
position = "{427.4, -20}";
},
{
name = top_U;
position = "{427.4, 732}";
}
);
layerId = "3CDB9BDF-2CAB-4C38-BE1D-F1DC035F661C";
paths = (
{
closed = 1;
nodes = (
"40.1 2.35 LINE",
"69.35 -4.7 OFFCURVE",
"110.35 -6.7 OFFCURVE",
"142.6 -6.7 CURVE SMOOTH",
"172.15 -6.7 OFFCURVE",
"200.35 -5.7 OFFCURVE",
"228.9 -1 CURVE",
"237.65 210.4 LINE SMOOTH",
"242 293.55 OFFCURVE",
"246.7 391.7 OFFCURVE",
"245.65 461.2 CURVE",
"253.35 461.2 LINE",
"322.2 97.55 LINE",
"352.45 92.85 OFFCURVE",
"402.25 90.5 OFFCURVE",
"426.05 90.5 CURVE SMOOTH",
"452.9 90.5 OFFCURVE",
"501 92.85 OFFCURVE",
"530.9 97.55 CURVE",
"599.75 461.2 LINE",
"607.45 461.2 LINE",
"606.75 391.7 OFFCURVE",
"611.1 293.55 OFFCURVE",
"615.45 210.4 CURVE SMOOTH",
"624.2 -1 LINE",
"652.75 -5.7 OFFCURVE",
"681.65 -6.7 OFFCURVE",
"711.2 -6.7 CURVE SMOOTH",
"743.45 -6.7 OFFCURVE",
"784.1 -4.7 OFFCURVE",
"813 2.35 CURVE",
"760 681.65 LINE",
"719.75 688.7 OFFCURVE",
"663.3 691.4 OFFCURVE",
"624.6 691.4 CURVE SMOOTH",
"586.25 691.4 OFFCURVE",
"537.85 688.7 OFFCURVE",
"497.6 681.65 CURVE",
"466 489.35 LINE SMOOTH",
"463.45 470.55 OFFCURVE",
"441.85 358.35 OFFCURVE",
"430.4 290 CURVE",
"422.7 290 LINE",
"411.25 358.35 OFFCURVE",
"389.65 470.55 OFFCURVE",
"387.1 489.35 CURVE SMOOTH",
"355.5 681.65 LINE",
"314.2 688.7 OFFCURVE",
"266.85 691.4 OFFCURVE",
"228.5 691.4 CURVE SMOOTH",
"189.8 691.4 OFFCURVE",
"134.05 688.7 OFFCURVE",
"93.1 681.65 CURVE"
);
}
);
width = 853.1;
},
{
anchors = (
{
name = bottom_U;
position = "{394.64, -20}";
},
{
name = top_U;
position = "{394.64, 732}";
}
);
layerId = "E4378254-F350-404F-89FA-E431A9318E35";
paths = (
{
closed = 1;
nodes = (
"86.51 0.985 LINE",
"95.285 -1.97 OFFCURVE",
"108.985 -3.97 OFFCURVE",
"120.76 -3.97 CURVE SMOOTH",
"132.565 -3.97 OFFCURVE",
"144.385 -2.97 OFFCURVE",
"155.19 -1 CURVE",
"184.415 423.34 LINE SMOOTH",
"187.4 466.905 OFFCURVE",
"189.37 552.77 OFFCURVE",
"192.415 608.62 CURVE",
"197.385 608.62 LINE",
"360.42 107.105 LINE",
"370.195 105.135 OFFCURVE",
"381.775 104.15 OFFCURVE",
"394.655 104.15 CURVE SMOOTH",
"406.49 104.15 OFFCURVE",
"419.1 105.135 OFFCURVE",
"429.89 107.105 CURVE",
"592.925 608.62 LINE",
"597.895 608.62 LINE",
"599.925 552.77 OFFCURVE",
"602.91 466.905 OFFCURVE",
"605.895 423.34 CURVE SMOOTH",
"635.12 -1 LINE",
"645.925 -2.97 OFFCURVE",
"655.715 -3.97 OFFCURVE",
"667.52 -3.97 CURVE SMOOTH",
"679.295 -3.97 OFFCURVE",
"694.01 -1.97 OFFCURVE",
"703.8 0.985 CURVE",
"650.8 683.015 LINE",
"631.025 685.97 OFFCURVE",
"611.43 685.94 OFFCURVE",
"602.76 685.94 CURVE SMOOTH",
"593.075 685.94 OFFCURVE",
"577.435 685.97 OFFCURVE",
"557.66 683.015 CURVE",
"438.7 324.185 LINE SMOOTH",
"426.595 289.005 OFFCURVE",
"399.535 193.185 OFFCURVE",
"397.64 180.8 CURVE",
"392.67 180.8 LINE",
"390.775 193.185 OFFCURVE",
"363.715 289.005 OFFCURVE",
"351.61 324.185 CURVE SMOOTH",
"232.65 683.015 LINE",
"215.92 685.97 OFFCURVE",
"197.235 685.94 OFFCURVE",
"187.55 685.94 CURVE SMOOTH",
"178.88 685.94 OFFCURVE",
"157.255 685.97 OFFCURVE",
"139.51 683.015 CURVE"
);
}
);
width = 790.31;
}
);
unicode = 004D;
},
{
glyphname = N;
lastChange = "2018-10-16 19:32:45 +0000";
layers = (
{
anchors = (
{
name = bottom_U;
position = "{332, -20}";
},
{
name = top_U;
position = "{337, 732}";
}
);
layerId = UUID0;
paths = (
{
closed = 1;
nodes = (
"100 0 LINE",
"112 -2 OFFCURVE",
"123 -3 OFFCURVE",
"133 -3 CURVE SMOOTH",
"143 -3 OFFCURVE",
"154 -2 OFFCURVE",
"167 0 CURVE",
"167 385 LINE SMOOTH",
"167 454 OFFCURVE",
"163 536 OFFCURVE",
"161 596 CURVE",
"168 596 LINE",
"188 683 LINE",
"176 685 OFFCURVE",
"153 686 OFFCURVE",
"143 686 CURVE SMOOTH",
"135 686 OFFCURVE",
"112 685 OFFCURVE",
"100 683 CURVE"
);
},
{
closed = 1;
nodes = (
"481 0 LINE",
"570 20 LINE",
"506 84 LINE",
"484 128 OFFCURVE",
"462 176 OFFCURVE",
"436 224 CURVE SMOOTH",
"188 683 LINE",
"100 673 LINE",
"164 596 LINE",
"186 551 OFFCURVE",
"207 507 OFFCURVE",
"233 459 CURVE SMOOTH"
);
},
{
closed = 1;
nodes = (
"564 686 LINE",
"540 686 LINE SMOOTH",
"508 686 OFFCURVE",
"503 670 OFFCURVE",
"503 639 CURVE SMOOTH",
"503 308 LINE SMOOTH",
"503 239 OFFCURVE",
"506 156 OFFCURVE",
"509 84 CURVE",
"502 84 LINE",
"481 0 LINE",
"493 -2 OFFCURVE",
"517 -3 OFFCURVE",
"526 -3 CURVE SMOOTH",
"535 -3 OFFCURVE",
"558 -2 OFFCURVE",
"570 0 CURVE",
"570 681 LINE"
);
}
);
width = 670;
},
{
anchors = (
{
name = bottom_U;
position = "{343, -20}";
},
{
name = top_U;
position = "{353, 732}";
}
);
layerId = UUID1;
paths = (
{
closed = 1;
nodes = (
"74 0 LINE",
"100 -5 OFFCURVE",
"134 -6 OFFCURVE",
"154 -6 CURVE SMOOTH",
"175 -6 OFFCURVE",
"203 -5 OFFCURVE",
"230 0 CURVE",
"230 183 LINE SMOOTH",
"230 267 OFFCURVE",
"225 402 OFFCURVE",
"217 489 CURVE",
"228 493 LINE",
"270 683 LINE",
"233 688 OFFCURVE",
"194 689 OFFCURVE",
"173 689 CURVE SMOOTH",
"152 689 OFFCURVE",
"100 686 OFFCURVE",
"74 680 CURVE"
);
},
{
closed = 1;
nodes = (
"426 0 LINE",
"624 23 LINE",
"478 182 LINE",
"464 218 OFFCURVE",
"441 275 OFFCURVE",
"416 335 CURVE SMOOTH",
"270 683 LINE",
"74 660 LINE",
"221 491 LINE",
"234 453 OFFCURVE",
"254 401 OFFCURVE",
"276 349 CURVE SMOOTH"
);
},
{
closed = 1;
nodes = (
"617 690 LINE",
"563 690 LINE SMOOTH",
"499 690 OFFCURVE",
"469 664 OFFCURVE",
"469 589 CURVE SMOOTH",
"469 485 LINE SMOOTH",
"469 416 OFFCURVE",
"473 279 OFFCURVE",
"482 184 CURVE",
"470 180 LINE",
"426 0 LINE",
"463 -5 OFFCURVE",
"502 -6 OFFCURVE",
"523 -6 CURVE SMOOTH",
"544 -6 OFFCURVE",
"597 -3 OFFCURVE",
"624 3 CURVE",
"624 683 LINE"
);
}
);
width = 698;
},
{
anchors = (
{
name = bottom_U;
position = "{346.85, -20}";
},
{
name = top_U;
position = "{358.6, 732}";
}
);
layerId = "3CDB9BDF-2CAB-4C38-BE1D-F1DC035F661C";
paths = (
{
closed = 1;
nodes = (
"64.9 0 LINE",
"95.8 -6.05 OFFCURVE",
"137.85 -7.05 OFFCURVE",
"161.35 -7.05 CURVE SMOOTH",
"186.2 -7.05 OFFCURVE",
"220.15 -6.05 OFFCURVE",
"252.05 0 CURVE",
"252.05 112.3 LINE SMOOTH",
"252.05 201.55 OFFCURVE",
"246.7 355.1 OFFCURVE",
"236.6 451.55 CURVE",
"249 456.95 LINE",
"298.7 683 LINE",
"252.95 689.05 OFFCURVE",
"208.35 690.05 OFFCURVE",
"183.5 690.05 CURVE SMOOTH",
"157.95 690.05 OFFCURVE",
"95.8 686.35 OFFCURVE",
"64.9 678.95 CURVE"
);
},
{
closed = 1;
nodes = (
"406.75 0 LINE",
"642.9 24.05 LINE",
"468.2 216.3 LINE",
"457 249.5 OFFCURVE",
"433.65 309.65 OFFCURVE",
"409 373.85 CURVE SMOOTH",
"298.7 683 LINE",
"64.9 655.45 LINE",
"240.95 454.25 LINE",
"250.8 418.7 OFFCURVE",
"270.45 363.9 OFFCURVE",
"291.05 310.5 CURVE SMOOTH"
);
},
{
closed = 1;
nodes = (
"635.55 691.4 LINE",
"571.05 691.4 LINE SMOOTH",
"495.85 691.4 OFFCURVE",
"457.1 661.9 OFFCURVE",
"457.1 571.5 CURVE SMOOTH",
"457.1 546.95 LINE SMOOTH",
"457.1 477.95 OFFCURVE",
"461.45 322.05 OFFCURVE",
"472.55 219 CURVE",
"458.8 213.6 LINE",
"406.75 0 LINE",
"452.5 -6.05 OFFCURVE",
"496.75 -7.05 OFFCURVE",
"521.95 -7.05 CURVE SMOOTH",
"547.15 -7.05 OFFCURVE",
"610.65 -3.35 OFFCURVE",
"642.9 4.05 CURVE",
"642.9 683.7 LINE"
);
}
);
width = 707.8;
},
{
anchors = (
{
name = bottom_U;
position = "{331.835, -20}";
},
{
name = top_U;
position = "{336.76, 732}";
}
);
layerId = "E4378254-F350-404F-89FA-E431A9318E35";
paths = (
{
closed = 1;
nodes = (
"100.39 0 LINE",
"112.18 -1.955 OFFCURVE",
"122.835 -2.955 OFFCURVE",
"132.685 -2.955 CURVE SMOOTH",
"142.52 -2.955 OFFCURVE",
"153.265 -1.955 OFFCURVE",
"166.055 0 CURVE",
"166.055 388.03 LINE SMOOTH",
"166.055 456.805 OFFCURVE",
"162.07 538.01 OFFCURVE",
"160.16 597.605 CURVE",
"167.1 597.545 LINE",
"186.77 683 LINE",
"175.145 684.955 OFFCURVE",
"152.385 685.955 OFFCURVE",
"142.55 685.955 CURVE SMOOTH",
"134.745 685.955 OFFCURVE",
"112.18 684.985 OFFCURVE",
"100.39 683.045 CURVE"
);
},
{
closed = 1;
nodes = (
"481.825 0 LINE",
"569.19 19.955 LINE",
"506.42 82.53 LINE",
"484.3 126.65 OFFCURVE",
"462.315 174.515 OFFCURVE",
"436.3 222.335 CURVE SMOOTH",
"186.77 683 LINE",
"100.39 673.195 LINE",
"163.145 597.575 LINE",
"185.28 552.47 OFFCURVE",
"206.295 508.59 OFFCURVE",
"232.355 460.65 CURVE SMOOTH"
);
},
{
closed = 1;
nodes = (
"563.205 685.94 LINE",
"539.655 685.94 LINE SMOOTH",
"508.135 685.94 OFFCURVE",
"503.51 670.09 OFFCURVE",
"503.51 639.75 CURVE SMOOTH",
"503.51 305.345 LINE SMOOTH",
"503.51 236.345 OFFCURVE",
"506.495 154.155 OFFCURVE",
"509.405 82.5 CURVE",
"502.48 82.56 LINE",
"481.825 0 LINE",
"493.45 -1.955 OFFCURVE",
"517.225 -2.955 OFFCURVE",
"526.045 -2.955 CURVE SMOOTH",
"534.865 -2.955 OFFCURVE",
"557.415 -1.985 OFFCURVE",
"569.19 -0.045 CURVE",
"569.19 680.97 LINE"
);
}
);
width = 669.58;
}
);
unicode = 004E;
},
{
glyphname = O;
lastChange = "2018-10-16 19:32:45 +0000";
layers = (
{
anchors = (
{
name = bottom_U;
position = "{326, -20}";
},
{
name = top_U;
position = "{326, 732}";
}
);
layerId = UUID0;
paths = (
{
closed = 1;
nodes = (
"134 473 OFFCURVE",
"171 634 OFFCURVE",
"326 634 CURVE SMOOTH",
"481 634 OFFCURVE",
"517 473 OFFCURVE",
"517 342 CURVE SMOOTH",
"517 211 OFFCURVE",
"481 49 OFFCURVE",
"326 49 CURVE SMOOTH",
"171 49 OFFCURVE",
"134 211 OFFCURVE",
"134 342 CURVE SMOOTH"
);
},
{
closed = 1;
nodes = (
"58 230 OFFCURVE",
"88 114 OFFCURVE",
"164 46 CURVE SMOOTH",
"203 11 OFFCURVE",
"252 -12 OFFCURVE",
"326 -12 CURVE SMOOTH",
"400 -12 OFFCURVE",
"449 11 OFFCURVE",
"488 46 CURVE SMOOTH",
"564 114 OFFCURVE",
"594 230 OFFCURVE",
"594 342 CURVE SMOOTH",
"594 452 OFFCURVE",
"564 569 OFFCURVE",
"488 637 CURVE SMOOTH",
"449 672 OFFCURVE",
"400 695 OFFCURVE",
"326 695 CURVE SMOOTH",
"252 695 OFFCURVE",
"203 672 OFFCURVE",
"164 637 CURVE SMOOTH",
"88 569 OFFCURVE",
"58 452 OFFCURVE",
"58 342 CURVE SMOOTH"
);
}
);
width = 652;
},
{
anchors = (
{
name = bottom_U;
position = "{334, -20}";
},
{
name = top_U;
position = "{334, 732}";
}
);
layerId = UUID1;
paths = (
{
closed = 1;
nodes = (
"209 445 OFFCURVE",
"222 570 OFFCURVE",
"334 570 CURVE SMOOTH",
"446 570 OFFCURVE",
"459 445 OFFCURVE",
"459 342 CURVE SMOOTH",
"459 239 OFFCURVE",
"446 113 OFFCURVE",
"334 113 CURVE SMOOTH",
"222 113 OFFCURVE",
"209 239 OFFCURVE",
"209 342 CURVE SMOOTH"
);
},
{
closed = 1;
nodes = (
"34 238 OFFCURVE",
"57 118 OFFCURVE",
"141 48 CURVE SMOOTH",
"187 11 OFFCURVE",
"243 -15 OFFCURVE",
"334 -15 CURVE SMOOTH",
"426 -15 OFFCURVE",
"481 11 OFFCURVE",
"527 48 CURVE SMOOTH",
"611 118 OFFCURVE",
"634 238 OFFCURVE",
"634 342 CURVE SMOOTH",
"634 447 OFFCURVE",
"611 565 OFFCURVE",
"527 635 CURVE SMOOTH",
"481 672 OFFCURVE",
"426 698 OFFCURVE",
"334 698 CURVE SMOOTH",
"243 698 OFFCURVE",
"187 672 OFFCURVE",
"141 635 CURVE SMOOTH",
"57 565 OFFCURVE",
"34 447 OFFCURVE",
"34 342 CURVE SMOOTH"
);
}
);
width = 668;
},
{
anchors = (
{
name = bottom_U;
position = "{336.8, -20}";
},
{
name = top_U;
position = "{336.8, 732}";
}
);
layerId = "3CDB9BDF-2CAB-4C38-BE1D-F1DC035F661C";
paths = (
{
closed = 1;
nodes = (
"235.25 435.2 OFFCURVE",
"239.85 547.6 OFFCURVE",
"336.8 547.6 CURVE SMOOTH",
"433.75 547.6 OFFCURVE",
"438.7 435.2 OFFCURVE",
"438.7 342 CURVE SMOOTH",
"438.7 248.8 OFFCURVE",
"433.75 135.4 OFFCURVE",
"336.8 135.4 CURVE SMOOTH",
"239.85 135.4 OFFCURVE",
"235.25 248.8 OFFCURVE",
"235.25 342 CURVE SMOOTH"
);
},
{
closed = 1;
nodes = (
"25.6 240.8 OFFCURVE",
"46.15 119.4 OFFCURVE",
"132.95 48.7 CURVE SMOOTH",
"181.4 11 OFFCURVE",
"239.85 -16.05 OFFCURVE",
"336.8 -16.05 CURVE SMOOTH",
"435.1 -16.05 OFFCURVE",
"492.2 11 OFFCURVE",
"540.65 48.7 CURVE SMOOTH",
"627.45 119.4 OFFCURVE",
"648 240.8 OFFCURVE",
"648 342 CURVE SMOOTH",
"648 445.25 OFFCURVE",
"627.45 563.6 OFFCURVE",
"540.65 634.3 CURVE SMOOTH",
"492.2 672 OFFCURVE",
"435.1 699.05 OFFCURVE",
"336.8 699.05 CURVE SMOOTH",
"239.85 699.05 OFFCURVE",
"181.4 672 OFFCURVE",
"132.95 634.3 CURVE SMOOTH",
"46.15 563.6 OFFCURVE",
"25.6 445.25 OFFCURVE",
"25.6 342 CURVE SMOOTH"
);
}
);
width = 673.6;
},
{
anchors = (
{
name = bottom_U;
position = "{325.88, -20}";
},
{
name = top_U;
position = "{325.88, 732}";
}
);
layerId = "E4378254-F350-404F-89FA-E431A9318E35";
paths = (
{
closed = 1;
nodes = (
"132.875 473.42 OFFCURVE",
"170.235 634.96 OFFCURVE",
"325.88 634.96 CURVE SMOOTH",
"481.525 634.96 OFFCURVE",
"517.87 473.42 OFFCURVE",
"517.87 342 CURVE SMOOTH",
"517.87 210.58 OFFCURVE",
"481.525 48.04 OFFCURVE",
"325.88 48.04 CURVE SMOOTH",
"170.235 48.04 OFFCURVE",
"132.875 210.58 OFFCURVE",
"132.875 342 CURVE SMOOTH"
);
},
{
closed = 1;
nodes = (
"58.36 229.88 OFFCURVE",
"88.465 113.94 OFFCURVE",
"164.345 45.97 CURVE SMOOTH",
"203.24 11 OFFCURVE",
"252.135 -11.955 OFFCURVE",
"325.88 -11.955 CURVE SMOOTH",
"399.61 -11.955 OFFCURVE",
"448.52 11 OFFCURVE",
"487.415 45.97 CURVE SMOOTH",
"563.295 113.94 OFFCURVE",
"593.4 229.88 OFFCURVE",
"593.4 342 CURVE SMOOTH",
"593.4 452.075 OFFCURVE",
"563.295 569.06 OFFCURVE",
"487.415 637.03 CURVE SMOOTH",
"448.52 672 OFFCURVE",
"399.61 694.955 OFFCURVE",
"325.88 694.955 CURVE SMOOTH",
"252.135 694.955 OFFCURVE",
"203.24 672 OFFCURVE",
"164.345 637.03 CURVE SMOOTH",
"88.465 569.06 OFFCURVE",
"58.36 452.075 OFFCURVE",
"58.36 342 CURVE SMOOTH"
);
}
);
width = 651.76;
}
);
leftKerningGroup = C;
rightKerningGroup = O;
unicode = 004F;
},
{
glyphname = P;
lastChange = "2018-10-16 19:32:45 +0000";
layers = (
{
anchors = (
{
name = bottom_U;
position = "{135, -20}";
},
{
name = top_U;
position = "{288, 732}";
}
);
layerId = UUID0;
paths = (
{
closed = 1;
nodes = (
"514 614 OFFCURVE",
"422 686 OFFCURVE",
"295 686 CURVE SMOOTH",
"232 686 OFFCURVE",
"175 684 OFFCURVE",
"106 683 CURVE",
"100 677 LINE",
"100 0 LINE",
"109 -2 OFFCURVE",
"122 -3 OFFCURVE",
"135 -3 CURVE SMOOTH",
"149 -3 OFFCURVE",
"162 -2 OFFCURVE",
"172 0 CURVE",
"172 626 LINE",
"209 625 OFFCURVE",
"264 625 OFFCURVE",
"298 625 CURVE SMOOTH",
"410 625 OFFCURVE",
"437 543 OFFCURVE",
"437 473 CURVE SMOOTH",
"437 405 OFFCURVE",
"410 320 OFFCURVE",
"298 320 CURVE SMOOTH",
"264 320 OFFCURVE",
"179 320 OFFCURVE",
"142 319 CURVE",
"142 259 LINE",
"295 259 LINE",
"424 259 OFFCURVE",
"514 333 OFFCURVE",
"514 473 CURVE SMOOTH"
);
}
);
width = 554;
},
{
anchors = (
{
name = bottom_U;
position = "{158, -20}";
},
{
name = top_U;
position = "{301, 732}";
}
);
layerId = UUID1;
paths = (
{
closed = 1;
nodes = (
"564 613 OFFCURVE",
"460 689 OFFCURVE",
"317 689 CURVE SMOOTH",
"240 689 OFFCURVE",
"168 687 OFFCURVE",
"81 685 CURVE",
"74 678 LINE",
"74 0 LINE",
"101 -5 OFFCURVE",
"138 -6 OFFCURVE",
"158 -6 CURVE SMOOTH",
"180 -6 OFFCURVE",
"214 -5 OFFCURVE",
"242 0 CURVE",
"242 562 LINE",
"268 561 OFFCURVE",
"283 561 OFFCURVE",
"302 561 CURVE SMOOTH",
"379 561 OFFCURVE",
"393 494 OFFCURVE",
"393 449 CURVE SMOOTH",
"393 403 OFFCURVE",
"379 337 OFFCURVE",
"302 337 CURVE SMOOTH",
"283 337 OFFCURVE",
"197 334 OFFCURVE",
"171 332 CURVE",
"171 210 LINE",
"317 210 LINE",
"460 210 OFFCURVE",
"564 291 OFFCURVE",
"564 449 CURVE SMOOTH"
);
}
);
width = 592;
},
{
anchors = (
{
name = bottom_U;
position = "{166.05, -20}";
},
{
name = top_U;
position = "{305.55, 732}";
}
);
layerId = "3CDB9BDF-2CAB-4C38-BE1D-F1DC035F661C";
paths = (
{
closed = 1;
nodes = (
"581.5 612.65 OFFCURVE",
"473.3 690.05 OFFCURVE",
"324.7 690.05 CURVE SMOOTH",
"242.8 690.05 OFFCURVE",
"165.55 688.05 OFFCURVE",
"72.25 685.7 CURVE",
"64.9 678.35 LINE",
"64.9 0 LINE",
"98.2 -6.05 OFFCURVE",
"143.6 -7.05 OFFCURVE",
"166.05 -7.05 CURVE SMOOTH",
"190.85 -7.05 OFFCURVE",
"232.2 -6.05 OFFCURVE",
"266.5 0 CURVE",
"266.5 539.6 LINE",
"288.65 538.6 OFFCURVE",
"289.65 538.6 OFFCURVE",
"303.4 538.6 CURVE SMOOTH",
"368.15 538.6 OFFCURVE",
"377.6 476.85 OFFCURVE",
"377.6 440.6 CURVE SMOOTH",
"377.6 402.3 OFFCURVE",
"368.15 342.95 OFFCURVE",
"303.4 342.95 CURVE SMOOTH",
"289.65 342.95 OFFCURVE",
"203.3 338.9 OFFCURVE",
"181.15 336.55 CURVE",
"181.15 192.85 LINE",
"324.7 192.85 LINE",
"472.6 192.85 OFFCURVE",
"581.5 276.3 OFFCURVE",
"581.5 440.6 CURVE SMOOTH"
);
}
);
width = 605.3;
},
{
anchors = (
{
name = bottom_U;
position = "{134.655, -20}";
},
{
name = top_U;
position = "{287.805, 732}";
}
);
layerId = "E4378254-F350-404F-89FA-E431A9318E35";
paths = (
{
closed = 1;
nodes = (
"513.25 614.015 OFFCURVE",
"421.43 685.955 OFFCURVE",
"294.67 685.955 CURVE SMOOTH",
"231.88 685.955 OFFCURVE",
"175.105 683.955 OFFCURVE",
"106.375 682.97 CURVE",
"100.39 676.985 LINE",
"100.39 0 LINE",
"109.12 -1.955 OFFCURVE",
"121.76 -2.955 OFFCURVE",
"134.655 -2.955 CURVE SMOOTH",
"148.535 -2.955 OFFCURVE",
"161.22 -1.955 OFFCURVE",
"170.95 0 CURVE",
"170.95 626.96 LINE",
"208.115 625.96 OFFCURVE",
"263.715 625.96 OFFCURVE",
"297.94 625.96 CURVE SMOOTH",
"410.465 625.96 OFFCURVE",
"437.66 543.735 OFFCURVE",
"437.66 473.36 CURVE SMOOTH",
"437.66 405.03 OFFCURVE",
"410.465 319.745 OFFCURVE",
"297.94 319.745 CURVE SMOOTH",
"263.715 319.745 OFFCURVE",
"178.73 319.79 OFFCURVE",
"141.565 318.805 CURVE",
"141.565 259.735 LINE",
"294.67 259.735 LINE",
"423.46 259.735 OFFCURVE",
"513.25 333.63 OFFCURVE",
"513.25 473.36 CURVE SMOOTH"
);
}
);
width = 553.43;
}
);
unicode = 0050;
},
{
glyphname = Q;
lastChange = "2018-10-16 19:32:45 +0000";
layers = (
{
anchors = (
{
name = bottom_U;
position = "{320, -20}";
},
{
name = top_U;
position = "{320, 732}";
}
);
layerId = UUID0;
paths = (
{
closed = 1;
nodes = (
"134 475 OFFCURVE",
"165 634 OFFCURVE",
"320 634 CURVE SMOOTH",
"475 634 OFFCURVE",
"505 475 OFFCURVE",
"505 342 CURVE SMOOTH",
"505 209 OFFCURVE",
"475 52 OFFCURVE",
"320 52 CURVE SMOOTH",
"165 52 OFFCURVE",
"134 209 OFFCURVE",
"134 342 CURVE SMOOTH"
);
},
{
closed = 1;
nodes = (
"58 233 OFFCURVE",
"83 112 OFFCURVE",
"159 44 CURVE SMOOTH",
"198 9 OFFCURVE",
"252 -12 OFFCURVE",
"326 -12 CURVE SMOOTH",
"358 -12 OFFCURVE",
"366 -4 OFFCURVE",
"383 4 CURVE SMOOTH",
"418 5 OFFCURVE",
"451 20 OFFCURVE",
"483 49 CURVE SMOOTH",
"559 117 OFFCURVE",
"582 233 OFFCURVE",
"582 342 CURVE SMOOTH",
"582 449 OFFCURVE",
"557 571 OFFCURVE",
"481 639 CURVE SMOOTH",
"442 674 OFFCURVE",
"394 695 OFFCURVE",
"320 695 CURVE SMOOTH",
"246 695 OFFCURVE",
"198 674 OFFCURVE",
"159 639 CURVE SMOOTH",
"83 571 OFFCURVE",
"58 449 OFFCURVE",
"58 342 CURVE SMOOTH"
);
},
{
closed = 1;
nodes = (
"464 -98 LINE",
"482 -110 OFFCURVE",
"499 -117 OFFCURVE",
"522 -117 CURVE SMOOTH",
"545 -117 OFFCURVE",
"572 -103 OFFCURVE",
"575 -63 CURVE",
"544 -62 OFFCURVE",
"518 -52 OFFCURVE",
"448 -2 CURVE SMOOTH",
"391 39 LINE",
"306 13 LINE"
);
}
);
width = 640;
},
{
anchors = (
{
name = bottom_U;
position = "{282, -18}";
},
{
name = top_U;
position = "{336, 732}";
}
);
layerId = UUID1;
paths = (
{
closed = 1;
nodes = (
"206 446 OFFCURVE",
"223 570 OFFCURVE",
"336 570 CURVE SMOOTH",
"449 570 OFFCURVE",
"465 446 OFFCURVE",
"465 342 CURVE SMOOTH",
"465 239 OFFCURVE",
"449 113 OFFCURVE",
"336 113 CURVE SMOOTH",
"223 113 OFFCURVE",
"206 239 OFFCURVE",
"206 342 CURVE SMOOTH"
);
},
{
closed = 1;
nodes = (
"34 238 OFFCURVE",
"59 119 OFFCURVE",
"143 48 CURVE SMOOTH",
"189 11 OFFCURVE",
"244 -15 OFFCURVE",
"335 -15 CURVE SMOOTH",
"369 -15 OFFCURVE",
"399 2 OFFCURVE",
"424 22 CURVE SMOOTH",
"476 22 OFFCURVE",
"523 38 OFFCURVE",
"562 84 CURVE SMOOTH",
"623 153 OFFCURVE",
"638 250 OFFCURVE",
"638 341 CURVE SMOOTH",
"638 447 OFFCURVE",
"612 565 OFFCURVE",
"529 635 CURVE SMOOTH",
"484 673 OFFCURVE",
"428 698 OFFCURVE",
"336 698 CURVE SMOOTH",
"245 698 OFFCURVE",
"188 673 OFFCURVE",
"143 635 CURVE SMOOTH",
"59 565 OFFCURVE",
"34 447 OFFCURVE",
"34 342 CURVE SMOOTH"
);
},
{
closed = 1;
nodes = (
"433 -105 LINE",
"461 -130 OFFCURVE",
"495 -147 OFFCURVE",
"544 -147 CURVE SMOOTH",
"600 -147 OFFCURVE",
"648 -101 OFFCURVE",
"649 -28 CURVE",
"607 -28 OFFCURVE",
"574 -18 OFFCURVE",
"523 18 CURVE SMOOTH",
"426 87 LINE",
"276 36 LINE"
);
}
);
width = 672;
},
{
anchors = (
{
name = bottom_U;
position = "{268.7, -17.3}";
},
{
name = top_U;
position = "{341.6, 732}";
}
);
layerId = "3CDB9BDF-2CAB-4C38-BE1D-F1DC035F661C";
paths = (
{
closed = 1;
nodes = (
"231.2 435.85 OFFCURVE",
"243.3 547.6 OFFCURVE",
"341.6 547.6 CURVE SMOOTH",
"439.9 547.6 OFFCURVE",
"451 435.85 OFFCURVE",
"451 342 CURVE SMOOTH",
"451 249.5 OFFCURVE",
"439.9 134.35 OFFCURVE",
"341.6 134.35 CURVE SMOOTH",
"243.3 134.35 OFFCURVE",
"231.2 249.5 OFFCURVE",
"231.2 342 CURVE SMOOTH"
);
},
{
closed = 1;
nodes = (
"25.6 239.75 OFFCURVE",
"50.6 121.45 OFFCURVE",
"137.4 49.4 CURVE SMOOTH",
"185.85 11.7 OFFCURVE",
"241.2 -16.05 OFFCURVE",
"338.15 -16.05 CURVE SMOOTH",
"372.85 -16.05 OFFCURVE",
"410.55 4.1 OFFCURVE",
"438.35 28.3 CURVE SMOOTH",
"496.3 27.95 OFFCURVE",
"548.2 44.3 OFFCURVE",
"589.65 96.25 CURVE SMOOTH",
"645.4 165.6 OFFCURVE",
"657.6 255.95 OFFCURVE",
"657.6 340.65 CURVE SMOOTH",
"657.6 446.3 OFFCURVE",
"631.25 562.9 OFFCURVE",
"545.8 633.6 CURVE SMOOTH",
"498.7 672.65 OFFCURVE",
"439.9 699.05 OFFCURVE",
"341.6 699.05 CURVE SMOOTH",
"244.65 699.05 OFFCURVE",
"184.5 672.65 OFFCURVE",
"137.4 633.6 CURVE SMOOTH",
"50.6 562.9 OFFCURVE",
"25.6 446.3 OFFCURVE",
"25.6 342 CURVE SMOOTH"
);
},
{
closed = 1;
nodes = (
"422.15 -107.45 LINE",
"453.65 -137 OFFCURVE",
"493.6 -157.5 OFFCURVE",
"551.7 -157.5 CURVE SMOOTH",
"619.25 -157.5 OFFCURVE",
"674.6 -100.3 OFFCURVE",
"674.9 -15.75 CURVE",
"629.05 -16.1 OFFCURVE",
"593.6 -6.1 OFFCURVE",
"549.25 25 CURVE SMOOTH",
"438.25 103.8 LINE",
"265.5 44.05 LINE"
);
}
);
width = 683.2;
},
{
anchors = (
{
name = bottom_U;
position = "{320.57, -20.03}";
},
{
name = top_U;
position = "{319.76, 732}";
}
);
layerId = "E4378254-F350-404F-89FA-E431A9318E35";
paths = (
{
closed = 1;
nodes = (
"132.92 475.435 OFFCURVE",
"164.13 634.96 OFFCURVE",
"319.76 634.96 CURVE SMOOTH",
"475.39 634.96 OFFCURVE",
"505.6 475.435 OFFCURVE",
"505.6 342 CURVE SMOOTH",
"505.6 208.55 OFFCURVE",
"475.39 51.085 OFFCURVE",
"319.76 51.085 CURVE SMOOTH",
"164.13 51.085 OFFCURVE",
"132.92 208.55 OFFCURVE",
"132.92 342 CURVE SMOOTH"
);
},
{
closed = 1;
nodes = (
"58.36 232.925 OFFCURVE",
"83.36 111.895 OFFCURVE",
"159.24 43.94 CURVE SMOOTH",
"198.135 8.97 OFFCURVE",
"252.12 -11.955 OFFCURVE",
"325.865 -11.955 CURVE SMOOTH",
"357.835 -11.955 OFFCURVE",
"365.505 -4.09 OFFCURVE",
"382.385 3.73 CURVE SMOOTH",
"417.13 4.745 OFFCURVE",
"449.92 19.73 OFFCURVE",
"481.815 48.475 CURVE SMOOTH",
"558.04 116.46 OFFCURVE",
"581.16 232.745 OFFCURVE",
"581.16 342.015 CURVE SMOOTH",
"581.16 449.03 OFFCURVE",
"556.175 571.09 OFFCURVE",
"480.28 639.06 CURVE SMOOTH",
"441.37 674.015 OFFCURVE",
"393.49 694.955 OFFCURVE",
"319.76 694.955 CURVE SMOOTH",
"246.015 694.955 OFFCURVE",
"198.15 674.015 OFFCURVE",
"159.24 639.06 CURVE SMOOTH",
"83.36 571.09 OFFCURVE",
"58.36 449.03 OFFCURVE",
"58.36 342 CURVE SMOOTH"
);
},
{
closed = 1;
nodes = (
"464.465 -97.895 LINE",
"482.315 -109.7 OFFCURVE",
"499.06 -116.55 OFFCURVE",
"521.67 -116.55 CURVE SMOOTH",
"544.175 -116.55 OFFCURVE",
"570.86 -103.03 OFFCURVE",
"573.89 -63.525 CURVE",
"543.055 -62.51 OFFCURVE",
"517.16 -52.51 OFFCURVE",
"446.875 -2.3 CURVE SMOOTH",
"390.475 38.28 LINE",
"306.45 12.655 LINE"
);
}
);
width = 639.52;
}
);
leftKerningGroup = C;
rightKerningGroup = O;
unicode = 0051;
},
{
glyphname = R;
lastChange = "2018-10-16 19:32:45 +0000";
layers = (
{
anchors = (
{
name = bottom_U;
position = "{303, -20}";
},
{
name = top_U;
position = "{295, 732}";
}
);
layerId = UUID0;
paths = (
{
closed = 1;
nodes = (
"522 610 OFFCURVE",
"445 686 OFFCURVE",
"306 686 CURVE SMOOTH",
"243 686 OFFCURVE",
"175 684 OFFCURVE",
"106 683 CURVE",
"100 677 LINE",
"100 0 LINE",
"109 -2 OFFCURVE",
"122 -3 OFFCURVE",
"135 -3 CURVE SMOOTH",
"149 -3 OFFCURVE",
"162 -2 OFFCURVE",
"172 0 CURVE",
"172 626 LINE",
"209 625 OFFCURVE",
"272 625 OFFCURVE",
"306 625 CURVE SMOOTH",
"418 625 OFFCURVE",
"446 555 OFFCURVE",
"446 489 CURVE SMOOTH",
"446 425 OFFCURVE",
"418 353 OFFCURVE",
"306 353 CURVE SMOOTH",
"256 353 OFFCURVE",
"189 352 OFFCURVE",
"142 350 CURVE",
"142 290 LINE",
"279 290 LINE SMOOTH",
"347 290 OFFCURVE",
"371 250 OFFCURVE",
"391 197 CURVE SMOOTH",
"450 42 LINE SMOOTH",
"462 11 OFFCURVE",
"473 -6 OFFCURVE",
"502 -6 CURVE SMOOTH",
"518 -6 OFFCURVE",
"542 1 OFFCURVE",
"552 18 CURVE",
"529 36 OFFCURVE",
"520 64 OFFCURVE",
"510 89 CURVE SMOOTH",
"457 227 LINE SMOOTH",
"443 263 OFFCURVE",
"420 297 OFFCURVE",
"390 307 CURVE",
"472 331 OFFCURVE",
"522 399 OFFCURVE",
"522 489 CURVE SMOOTH"
);
}
);
width = 591;
},
{
anchors = (
{
name = bottom_U;
position = "{327, -20}";
},
{
name = top_U;
position = "{305, 732}";
}
);
layerId = UUID1;
paths = (
{
closed = 1;
nodes = (
"570 624 OFFCURVE",
"463 689 OFFCURVE",
"324 689 CURVE SMOOTH",
"247 689 OFFCURVE",
"168 687 OFFCURVE",
"81 685 CURVE",
"74 678 LINE",
"74 0 LINE",
"101 -5 OFFCURVE",
"137 -6 OFFCURVE",
"157 -6 CURVE SMOOTH",
"179 -6 OFFCURVE",
"212 -5 OFFCURVE",
"240 0 CURVE",
"240 564 LINE",
"268 563 OFFCURVE",
"290 563 OFFCURVE",
"309 563 CURVE SMOOTH",
"382 563 OFFCURVE",
"399 521 OFFCURVE",
"399 470 CURVE SMOOTH",
"399 421 OFFCURVE",
"382 377 OFFCURVE",
"309 377 CURVE SMOOTH",
"290 377 OFFCURVE",
"210 374 OFFCURVE",
"172 372 CURVE",
"172 247 LINE",
"276 247 LINE SMOOTH",
"328 247 OFFCURVE",
"347 220 OFFCURVE",
"358 187 CURVE SMOOTH",
"392 87 LINE SMOOTH",
"414 23 OFFCURVE",
"434 -9 OFFCURVE",
"494 -9 CURVE SMOOTH",
"539 -9 OFFCURVE",
"584 12 OFFCURVE",
"605 40 CURVE",
"583 57 OFFCURVE",
"565 84 OFFCURVE",
"555 114 CURVE SMOOTH",
"527 194 LINE SMOOTH",
"512 238 OFFCURVE",
"487 273 OFFCURVE",
"449 287 CURVE",
"504 309 OFFCURVE",
"570 373 OFFCURVE",
"570 470 CURVE SMOOTH"
);
}
);
width = 617;
},
{
anchors = (
{
name = bottom_U;
position = "{335.4, -20}";
},
{
name = top_U;
position = "{308.5, 732}";
}
);
layerId = "3CDB9BDF-2CAB-4C38-BE1D-F1DC035F661C";
paths = (
{
closed = 1;
nodes = (
"586.8 628.9 OFFCURVE",
"469.3 690.05 OFFCURVE",
"330.3 690.05 CURVE SMOOTH",
"248.4 690.05 OFFCURVE",
"165.55 688.05 OFFCURVE",
"72.25 685.7 CURVE",
"64.9 678.35 LINE",
"64.9 0 LINE",
"98.2 -6.05 OFFCURVE",
"142.25 -7.05 OFFCURVE",
"164.7 -7.05 CURVE SMOOTH",
"189.5 -7.05 OFFCURVE",
"229.5 -6.05 OFFCURVE",
"263.8 0 CURVE",
"263.8 542.3 LINE",
"288.65 541.3 OFFCURVE",
"296.3 541.3 OFFCURVE",
"310.05 541.3 CURVE SMOOTH",
"369.4 541.3 OFFCURVE",
"382.55 509.1 OFFCURVE",
"382.55 463.35 CURVE SMOOTH",
"382.55 419.6 OFFCURVE",
"369.4 385.4 OFFCURVE",
"310.05 385.4 CURVE SMOOTH",
"301.9 385.4 OFFCURVE",
"217.35 381.7 OFFCURVE",
"182.5 379.7 CURVE",
"182.5 231.95 LINE",
"274.95 231.95 LINE SMOOTH",
"321.35 231.95 OFFCURVE",
"338.6 209.5 OFFCURVE",
"346.45 183.5 CURVE SMOOTH",
"371.7 102.75 LINE SMOOTH",
"397.2 27.2 OFFCURVE",
"420.35 -10.05 OFFCURVE",
"491.2 -10.05 CURVE SMOOTH",
"546.35 -10.05 OFFCURVE",
"598.7 15.85 OFFCURVE",
"623.55 47.7 CURVE",
"601.9 64.35 OFFCURVE",
"580.75 91 OFFCURVE",
"570.75 122.75 CURVE SMOOTH",
"551.5 182.45 LINE SMOOTH",
"536.15 229.25 OFFCURVE",
"510.45 264.6 OFFCURVE",
"469.65 280 CURVE",
"515.2 301.3 OFFCURVE",
"586.8 363.9 OFFCURVE",
"586.8 463.35 CURVE SMOOTH"
);
}
);
width = 626.1;
},
{
anchors = (
{
name = bottom_U;
position = "{302.64, -20}";
},
{
name = top_U;
position = "{294.85, 732}";
}
);
layerId = "E4378254-F350-404F-89FA-E431A9318E35";
paths = (
{
closed = 1;
nodes = (
"521.28 609.79 OFFCURVE",
"444.73 685.955 OFFCURVE",
"305.73 685.955 CURVE SMOOTH",
"242.94 685.955 OFFCURVE",
"175.105 683.955 OFFCURVE",
"106.375 682.97 CURVE",
"100.39 676.985 LINE",
"100.39 0 LINE",
"109.12 -1.955 OFFCURVE",
"121.775 -2.955 OFFCURVE",
"134.67 -2.955 CURVE SMOOTH",
"148.55 -2.955 OFFCURVE",
"161.25 -1.955 OFFCURVE",
"170.98 0 CURVE",
"170.98 626.93 LINE",
"208.115 625.93 OFFCURVE",
"271.73 625.93 OFFCURVE",
"305.955 625.93 CURVE SMOOTH",
"418.54 625.93 OFFCURVE",
"446.705 555.51 OFFCURVE",
"446.705 489.285 CURVE SMOOTH",
"446.705 425.06 OFFCURVE",
"418.54 352.64 OFFCURVE",
"305.955 352.64 CURVE SMOOTH",
"255.49 352.64 OFFCURVE",
"188.685 351.67 OFFCURVE",
"141.55 349.67 CURVE",
"141.55 290.645 LINE",
"279.045 290.645 LINE SMOOTH",
"347.285 290.645 OFFCURVE",
"371.36 250.45 OFFCURVE",
"391.495 197.15 CURVE SMOOTH",
"450.87 41.325 LINE SMOOTH",
"462.72 10.82 OFFCURVE",
"473.585 -5.955 OFFCURVE",
"502.12 -5.955 CURVE SMOOTH",
"517.685 -5.955 OFFCURVE",
"541.37 0.835 OFFCURVE",
"551.205 17.67 CURVE",
"528.19 35.685 OFFCURVE",
"519.325 63.7 OFFCURVE",
"509.325 88.625 CURVE SMOOTH",
"455.95 227.495 LINE SMOOTH",
"441.965 263.375 OFFCURVE",
"418.995 297.36 OFFCURVE",
"389.115 307.3 CURVE",
"471.52 331.33 OFFCURVE",
"521.28 399.39 OFFCURVE",
"521.28 489.285 CURVE SMOOTH"
);
}
);
width = 590.61;
}
);
rightKerningGroup = R;
unicode = 0052;
},
{
glyphname = S;
lastChange = "2018-10-16 19:32:45 +0000";
layers = (
{
anchors = (
{
name = bottom_U;
position = "{273, -20}";
},
{
name = top_U;
position = "{288, 732}";
}
);
layerId = UUID0;
paths = (
{
closed = 1;
nodes = (
"102 18 OFFCURVE",
"187 -12 OFFCURVE",
"271 -12 CURVE SMOOTH",
"430 -12 OFFCURVE",
"505 69 OFFCURVE",
"505 180 CURVE SMOOTH",
"505 272 OFFCURVE",
"434 326 OFFCURVE",
"356 360 CURVE SMOOTH",
"243 409 LINE SMOOTH",
"190 432 OFFCURVE",
"144 461 OFFCURVE",
"144 517 CURVE SMOOTH",
"144 586 OFFCURVE",
"204 633 OFFCURVE",
"289 633 CURVE SMOOTH",
"339 633 OFFCURVE",
"401 614 OFFCURVE",
"454 587 CURVE",
"471 601 OFFCURVE",
"483 626 OFFCURVE",
"483 647 CURVE",
"431 672 OFFCURVE",
"362 695 OFFCURVE",
"286 695 CURVE SMOOTH",
"153 695 OFFCURVE",
"71 610 OFFCURVE",
"71 511 CURVE SMOOTH",
"71 432 OFFCURVE",
"120 381 OFFCURVE",
"205 344 CURVE SMOOTH",
"322 293 LINE SMOOTH",
"382 267 OFFCURVE",
"432 227 OFFCURVE",
"431 164 CURVE SMOOTH",
"430 94 OFFCURVE",
"369 52 OFFCURVE",
"274 52 CURVE SMOOTH",
"207 52 OFFCURVE",
"133 80 OFFCURVE",
"74 121 CURVE",
"58 109 OFFCURVE",
"42 85 OFFCURVE",
"40 63 CURVE"
);
}
);
width = 555;
},
{
anchors = (
{
name = bottom_U;
position = "{270, -20}";
},
{
name = top_U;
position = "{285, 732}";
}
);
layerId = UUID1;
paths = (
{
closed = 1;
nodes = (
"88 11 OFFCURVE",
"187 -15 OFFCURVE",
"268 -15 CURVE SMOOTH",
"444 -15 OFFCURVE",
"533 79 OFFCURVE",
"533 201 CURVE SMOOTH",
"533 287 OFFCURVE",
"480 358 OFFCURVE",
"382 400 CURVE SMOOTH",
"261 451 LINE SMOOTH",
"218 469 OFFCURVE",
"206 487 OFFCURVE",
"206 510 CURVE SMOOTH",
"206 533 OFFCURVE",
"225 564 OFFCURVE",
"280 564 CURVE SMOOTH",
"334 564 OFFCURVE",
"411 539 OFFCURVE",
"462 515 CURVE",
"494 545 OFFCURVE",
"515 592 OFFCURVE",
"518 640 CURVE",
"466 667 OFFCURVE",
"376 698 OFFCURVE",
"280 698 CURVE SMOOTH",
"144 698 OFFCURVE",
"34 614 OFFCURVE",
"34 487 CURVE SMOOTH",
"34 390 OFFCURVE",
"96 337 OFFCURVE",
"178 301 CURVE SMOOTH",
"296 251 LINE SMOOTH",
"351 227 OFFCURVE",
"355 199 OFFCURVE",
"355 181 CURVE SMOOTH",
"355 152 OFFCURVE",
"335 119 OFFCURVE",
"280 119 CURVE SMOOTH",
"208 119 OFFCURVE",
"133 151 OFFCURVE",
"77 184 CURVE",
"45 156 OFFCURVE",
"17 106 OFFCURVE",
"13 59 CURVE"
);
}
);
width = 557;
},
{
anchors = (
{
name = bottom_U;
position = "{268.95, -20}";
},
{
name = top_U;
position = "{283.95, 732}";
}
);
layerId = "3CDB9BDF-2CAB-4C38-BE1D-F1DC035F661C";
paths = (
{
closed = 1;
nodes = (
"83.1 8.55 OFFCURVE",
"187 -16.05 OFFCURVE",
"266.95 -16.05 CURVE SMOOTH",
"448.9 -16.05 OFFCURVE",
"542.8 82.5 OFFCURVE",
"542.8 208.35 CURVE SMOOTH",
"542.8 292.25 OFFCURVE",
"496.1 369.2 OFFCURVE",
"391.1 414 CURVE SMOOTH",
"267.3 465.7 LINE SMOOTH",
"227.8 481.95 OFFCURVE",
"227.7 496.1 OFFCURVE",
"227.7 507.55 CURVE SMOOTH",
"227.7 514.45 OFFCURVE",
"232.35 539.85 OFFCURVE",
"276.85 539.85 CURVE SMOOTH",
"332.25 539.85 OFFCURVE",
"414.5 512.75 OFFCURVE",
"464.8 489.8 CURVE",
"502.05 525.4 OFFCURVE",
"526.2 580.1 OFFCURVE",
"530.25 637.55 CURVE",
"478.25 665.25 OFFCURVE",
"380.9 699.05 OFFCURVE",
"277.9 699.05 CURVE SMOOTH",
"140.85 699.05 OFFCURVE",
"21.05 615.4 OFFCURVE",
"21.05 478.6 CURVE SMOOTH",
"21.05 375.3 OFFCURVE",
"87.6 321.6 OFFCURVE",
"168.55 285.95 CURVE SMOOTH",
"286.9 236.3 LINE SMOOTH",
"340.15 213 OFFCURVE",
"328.05 189.2 OFFCURVE",
"328.4 186.95 CURVE SMOOTH",
"328.75 172.3 OFFCURVE",
"323.1 142.45 OFFCURVE",
"282.1 142.45 CURVE SMOOTH",
"208.35 142.45 OFFCURVE",
"133 175.85 OFFCURVE",
"78.05 206.05 CURVE",
"40.45 172.45 OFFCURVE",
"8.25 113.35 OFFCURVE",
"3.55 57.6 CURVE"
);
}
);
width = 557.7;
},
{
anchors = (
{
name = bottom_U;
position = "{273.045, -20}";
},
{
name = top_U;
position = "{288.045, 732}";
}
);
layerId = "E4378254-F350-404F-89FA-E431A9318E35";
paths = (
{
closed = 1;
nodes = (
"102.21 18.105 OFFCURVE",
"187 -11.955 OFFCURVE",
"271.045 -11.955 CURVE SMOOTH",
"429.79 -11.955 OFFCURVE",
"504.58 68.85 OFFCURVE",
"504.58 179.685 CURVE SMOOTH",
"504.58 271.775 OFFCURVE",
"433.31 325.52 OFFCURVE",
"355.61 359.4 CURVE SMOOTH",
"242.73 408.37 LINE SMOOTH",
"189.58 431.445 OFFCURVE",
"143.07 460.61 OFFCURVE",
"143.07 517.105 CURVE SMOOTH",
"143.07 586.795 OFFCURVE",
"203.685 634.035 OFFCURVE",
"289.135 634.035 CURVE SMOOTH",
"339.075 634.035 OFFCURVE",
"400.85 615.125 OFFCURVE",
"453.88 588.08 CURVE",
"470.655 601.84 OFFCURVE",
"482.52 626.51 OFFCURVE",
"482.475 647.105 CURVE",
"430.475 672.075 OFFCURVE",
"361.79 694.955 OFFCURVE",
"286.09 694.955 CURVE SMOOTH",
"153.135 694.955 OFFCURVE",
"71.555 609.94 OFFCURVE",
"71.555 511.36 CURVE SMOOTH",
"71.555 432.63 OFFCURVE",
"120.36 381.66 OFFCURVE",
"205.405 344.645 CURVE SMOOTH",
"322.39 293.63 LINE SMOOTH",
"382.465 267.6 OFFCURVE",
"433.155 227.42 OFFCURVE",
"432.14 163.745 CURVE SMOOTH",
"431.125 93.13 OFFCURVE",
"369.51 50.995 OFFCURVE",
"273.91 50.995 CURVE SMOOTH",
"206.985 50.995 OFFCURVE",
"133 78.935 OFFCURVE",
"73.955 120.055 CURVE",
"58.195 108.295 OFFCURVE",
"42.375 84.685 OFFCURVE",
"40.405 63.06 CURVE"
);
}
);
width = 554.97;
}
);
leftKerningGroup = S;
rightKerningGroup = S;
unicode = 0053;
},
{
glyphname = T;
lastChange = "2018-10-16 19:32:45 +0000";
layers = (
{
anchors = (
{
name = bottom_U;
position = "{241, -20}";
},
{
name = top_U;
position = "{240, 732}";
}
);
layerId = UUID0;
paths = (
{
closed = 1;
nodes = (
"151 621 LINE SMOOTH",
"164 621 OFFCURVE",
"192 622 OFFCURVE",
"205 622 CURVE SMOOTH",
"277 622 LINE SMOOTH",
"290 622 OFFCURVE",
"319 621 OFFCURVE",
"331 621 CURVE SMOOTH",
"420 621 LINE SMOOTH",
"450 621 OFFCURVE",
"464 630 OFFCURVE",
"464 653 CURVE SMOOTH",
"464 663 OFFCURVE",
"462 674 OFFCURVE",
"459 683 CURVE",
"22 683 LINE",
"20 672 OFFCURVE",
"19 662 OFFCURVE",
"19 652 CURVE SMOOTH",
"19 642 OFFCURVE",
"20 631 OFFCURVE",
"22 621 CURVE"
);
},
{
closed = 1;
nodes = (
"205 0 LINE",
"215 -2 OFFCURVE",
"229 -3 OFFCURVE",
"241 -3 CURVE SMOOTH",
"253 -3 OFFCURVE",
"267 -2 OFFCURVE",
"277 0 CURVE",
"277 548 LINE SMOOTH",
"277 575 OFFCURVE",
"277 594 OFFCURVE",
"277 622 CURVE SMOOTH",
"277 652 LINE",
"205 652 LINE",
"205 622 LINE SMOOTH",
"205 594 OFFCURVE",
"205 575 OFFCURVE",
"205 548 CURVE SMOOTH"
);
}
);
width = 481;
},
{
anchors = (
{
name = bottom_U;
position = "{257, -20}";
},
{
name = top_U;
position = "{257, 732}";
}
);
layerId = UUID1;
paths = (
{
closed = 1;
nodes = (
"109 544 LINE SMOOTH",
"124 544 OFFCURVE",
"158 545 OFFCURVE",
"173 545 CURVE SMOOTH",
"341 545 LINE SMOOTH",
"356 545 OFFCURVE",
"390 544 OFFCURVE",
"405 544 CURVE SMOOTH",
"429 544 LINE SMOOTH",
"489 544 OFFCURVE",
"516 564 OFFCURVE",
"516 619 CURVE SMOOTH",
"516 640 OFFCURVE",
"513 666 OFFCURVE",
"508 683 CURVE",
"8 683 LINE",
"3 658 OFFCURVE",
"2 632 OFFCURVE",
"2 613 CURVE SMOOTH",
"2 594 OFFCURVE",
"3 569 OFFCURVE",
"8 544 CURVE"
);
},
{
closed = 1;
nodes = (
"173 0 LINE",
"202 -5 OFFCURVE",
"234 -6 OFFCURVE",
"257 -6 CURVE SMOOTH",
"280 -6 OFFCURVE",
"312 -5 OFFCURVE",
"341 0 CURVE",
"341 471 LINE SMOOTH",
"341 498 OFFCURVE",
"340 517 OFFCURVE",
"340 545 CURVE SMOOTH",
"340 614 LINE",
"174 614 LINE",
"174 545 LINE SMOOTH",
"174 517 OFFCURVE",
"173 498 OFFCURVE",
"173 471 CURVE SMOOTH"
);
}
);
width = 512;
},
{
anchors = (
{
name = bottom_U;
position = "{262.6, -20}";
},
{
name = top_U;
position = "{262.95, 732}";
}
);
layerId = "3CDB9BDF-2CAB-4C38-BE1D-F1DC035F661C";
paths = (
{
closed = 1;
nodes = (
"94.3 517.05 LINE SMOOTH",
"110 517.05 OFFCURVE",
"146.1 518.05 OFFCURVE",
"161.8 518.05 CURVE SMOOTH",
"363.4 518.05 LINE SMOOTH",
"379.1 518.05 OFFCURVE",
"414.85 517.05 OFFCURVE",
"430.9 517.05 CURVE SMOOTH",
"432.15 517.05 LINE SMOOTH",
"502.65 517.05 OFFCURVE",
"534.2 540.9 OFFCURVE",
"534.2 607.1 CURVE SMOOTH",
"534.2 631.95 OFFCURVE",
"530.85 663.2 OFFCURVE",
"525.15 683 CURVE",
"3.1 683 LINE",
"-2.95 653.1 OFFCURVE",
"-3.95 621.5 OFFCURVE",
"-3.95 599.35 CURVE SMOOTH",
"-3.95 577.2 OFFCURVE",
"-2.95 547.3 OFFCURVE",
"3.1 517.05 CURVE"
);
},
{
closed = 1;
nodes = (
"161.8 0 LINE",
"197.45 -6.05 OFFCURVE",
"235.75 -7.05 OFFCURVE",
"262.6 -7.05 CURVE SMOOTH",
"289.45 -7.05 OFFCURVE",
"327.75 -6.05 OFFCURVE",
"363.4 0 CURVE",
"363.4 444.05 LINE SMOOTH",
"363.4 471.05 OFFCURVE",
"362.05 490.05 OFFCURVE",
"362.05 518.05 CURVE SMOOTH",
"362.05 600.7 LINE",
"163.15 600.7 LINE",
"163.15 518.05 LINE SMOOTH",
"163.15 490.05 OFFCURVE",
"161.8 471.05 OFFCURVE",
"161.8 444.05 CURVE SMOOTH"
);
}
);
width = 522.85;
},
{
anchors = (
{
name = bottom_U;
position = "{240.76, -20}";
},
{
name = top_U;
position = "{239.745, 732}";
}
);
layerId = "E4378254-F350-404F-89FA-E431A9318E35";
paths = (
{
closed = 1;
nodes = (
"151.63 622.155 LINE SMOOTH",
"164.6 622.155 OFFCURVE",
"192.51 623.155 OFFCURVE",
"205.48 623.155 CURVE SMOOTH",
"276.04 623.155 LINE SMOOTH",
"289.01 623.155 OFFCURVE",
"317.935 622.155 OFFCURVE",
"329.89 622.155 CURVE SMOOTH",
"419.865 622.155 LINE SMOOTH",
"449.415 622.155 OFFCURVE",
"463.22 630.99 OFFCURVE",
"463.22 653.51 CURVE SMOOTH",
"463.22 663.345 OFFCURVE",
"461.235 674.12 OFFCURVE",
"458.265 683 CURVE",
"22.21 683 LINE",
"20.255 672.21 OFFCURVE",
"19.255 662.45 OFFCURVE",
"19.255 652.585 CURVE SMOOTH",
"19.255 642.72 OFFCURVE",
"20.255 631.93 OFFCURVE",
"22.21 622.155 CURVE"
);
},
{
closed = 1;
nodes = (
"205.48 0 LINE",
"215.195 -1.955 OFFCURVE",
"228.925 -2.955 OFFCURVE",
"240.76 -2.955 CURVE SMOOTH",
"252.595 -2.955 OFFCURVE",
"266.325 -1.955 OFFCURVE",
"276.04 0 CURVE",
"276.04 549.155 LINE SMOOTH",
"276.04 576.155 OFFCURVE",
"276.055 595.155 OFFCURVE",
"276.055 623.155 CURVE SMOOTH",
"276.055 652.57 LINE",
"205.465 652.57 LINE",
"205.465 623.155 LINE SMOOTH",
"205.465 595.155 OFFCURVE",
"205.48 576.155 OFFCURVE",
"205.48 549.155 CURVE SMOOTH"
);
}
);
width = 480.535;
}
);
leftKerningGroup = T;
rightKerningGroup = T;
unicode = 0054;
},
{
glyphname = U;
lastChange = "2018-10-16 19:32:45 +0000";
layers = (
{
anchors = (
{
name = bottom_U;
position = "{333, -20}";
},
{
name = top_U;
position = "{333, 732}";
}
);
layerId = UUID0;
paths = (
{
closed = 1;
nodes = (
"574 683 LINE",
"564 685 OFFCURVE",
"551 686 OFFCURVE",
"537 686 CURVE SMOOTH",
"524 686 OFFCURVE",
"511 685 OFFCURVE",
"502 683 CURVE",
"502 233 LINE",
"502 112 OFFCURVE",
"439 48 OFFCURVE",
"333 48 CURVE",
"227 48 OFFCURVE",
"164 112 OFFCURVE",
"164 233 CURVE SMOOTH",
"164 639 LINE SMOOTH",
"164 670 OFFCURVE",
"159 686 OFFCURVE",
"127 686 CURVE SMOOTH",
"98 686 LINE",
"92 680 LINE",
"92 232 LINE SMOOTH",
"92 69 OFFCURVE",
"193 -12 OFFCURVE",
"332 -12 CURVE",
"473 -12 OFFCURVE",
"574 69 OFFCURVE",
"574 232 CURVE"
);
}
);
width = 666;
},
{
anchors = (
{
name = bottom_U;
position = "{337, -20}";
},
{
name = top_U;
position = "{334, 732}";
}
);
layerId = UUID1;
paths = (
{
closed = 1;
nodes = (
"610 683 LINE",
"583 688 OFFCURVE",
"544 689 OFFCURVE",
"524 689 CURVE SMOOTH",
"502 689 OFFCURVE",
"470 688 OFFCURVE",
"442 683 CURVE",
"442 252 LINE",
"442 163 OFFCURVE",
"415 118 OFFCURVE",
"337 118 CURVE",
"259 118 OFFCURVE",
"232 163 OFFCURVE",
"232 252 CURVE SMOOTH",
"232 584 LINE SMOOTH",
"232 659 OFFCURVE",
"196 690 OFFCURVE",
"132 690 CURVE SMOOTH",
"71 690 LINE",
"64 683 LINE",
"64 254 LINE SMOOTH",
"64 84 OFFCURVE",
"161 -15 OFFCURVE",
"337 -15 CURVE",
"513 -15 OFFCURVE",
"610 84 OFFCURVE",
"610 254 CURVE"
);
}
);
width = 674;
},
{
anchors = (
{
name = bottom_U;
position = "{338.4, -20}";
},
{
name = top_U;
position = "{334.35, 732}";
}
);
layerId = "3CDB9BDF-2CAB-4C38-BE1D-F1DC035F661C";
paths = (
{
closed = 1;
nodes = (
"622.6 683 LINE",
"589.65 689.05 OFFCURVE",
"541.55 690.05 OFFCURVE",
"519.45 690.05 CURVE SMOOTH",
"494.3 690.05 OFFCURVE",
"455.65 689.05 OFFCURVE",
"421 683 CURVE",
"421 258.65 LINE",
"421 180.85 OFFCURVE",
"406.6 142.5 OFFCURVE",
"338.4 142.5 CURVE",
"270.2 142.5 OFFCURVE",
"255.8 180.85 OFFCURVE",
"255.8 258.65 CURVE SMOOTH",
"255.8 564.75 LINE SMOOTH",
"255.8 655.15 OFFCURVE",
"208.95 691.4 OFFCURVE",
"133.75 691.4 CURVE SMOOTH",
"61.55 691.4 LINE",
"54.2 684.05 LINE",
"54.2 261.7 LINE SMOOTH",
"54.2 89.25 OFFCURVE",
"149.8 -16.05 OFFCURVE",
"338.75 -16.05 CURVE",
"527 -16.05 OFFCURVE",
"622.6 89.25 OFFCURVE",
"622.6 261.7 CURVE"
);
}
);
width = 676.8;
},
{
anchors = (
{
name = bottom_U;
position = "{332.94, -20}";
},
{
name = top_U;
position = "{332.985, 732}";
}
);
layerId = "E4378254-F350-404F-89FA-E431A9318E35";
paths = (
{
closed = 1;
nodes = (
"573.46 683 LINE",
"563.715 684.955 OFFCURVE",
"551.105 685.955 OFFCURVE",
"537.195 685.955 CURVE SMOOTH",
"524.33 685.955 OFFCURVE",
"511.615 684.955 OFFCURVE",
"502.9 683 CURVE",
"502.9 232.715 LINE",
"502.9 111.235 OFFCURVE",
"439.36 46.95 OFFCURVE",
"332.94 46.95 CURVE",
"226.52 46.95 OFFCURVE",
"162.98 111.235 OFFCURVE",
"162.98 232.715 CURVE SMOOTH",
"162.98 639.825 LINE SMOOTH",
"162.98 670.165 OFFCURVE",
"158.445 685.94 OFFCURVE",
"126.925 685.94 CURVE SMOOTH",
"98.405 685.94 LINE",
"92.42 679.955 LINE",
"92.42 231.67 LINE SMOOTH",
"92.42 68.775 OFFCURVE",
"193.48 -11.955 OFFCURVE",
"331.925 -11.955 CURVE",
"472.4 -11.955 OFFCURVE",
"573.46 68.775 OFFCURVE",
"573.46 231.67 CURVE"
);
}
);
width = 665.88;
}
);
leftKerningGroup = U;
rightKerningGroup = U;
unicode = 0055;
},
{
glyphname = V;
lastChange = "2018-10-16 19:32:45 +0000";
layers = (
{
anchors = (
{
name = bottom_U;
position = "{279, -20}";
},
{
name = top_U;
position = "{284, 732}";
}
);
layerId = UUID0;
paths = (
{
closed = 1;
nodes = (
"289 71 LINE",
"285 71 OFFCURVE",
"283 72 OFFCURVE",
"281 79 CURVE SMOOTH",
"267 128 OFFCURVE",
"247 202 OFFCURVE",
"234 245 CURVE SMOOTH",
"113 654 LINE SMOOTH",
"105 682 OFFCURVE",
"91 689 OFFCURVE",
"73 689 CURVE SMOOTH",
"58 689 OFFCURVE",
"42 684 OFFCURVE",
"28 677 CURVE",
"223 34 LINE SMOOTH",
"233 0 OFFCURVE",
"251 -4 OFFCURVE",
"274 -4 CURVE SMOOTH",
"293 -4 OFFCURVE",
"308 -3 OFFCURVE",
"327 -1 CURVE",
"532 676 LINE",
"529 682 LINE",
"521 684 OFFCURVE",
"509 686 OFFCURVE",
"496 686 CURVE SMOOTH",
"483 686 OFFCURVE",
"473 685 OFFCURVE",
"465 683 CURVE"
);
}
);
width = 554;
},
{
anchors = (
{
name = bottom_U;
position = "{304, -20}";
},
{
name = top_U;
position = "{307, 732}";
}
);
layerId = UUID1;
paths = (
{
closed = 1;
nodes = (
"319 139 LINE",
"313 139 OFFCURVE",
"310 141 OFFCURVE",
"308 152 CURVE SMOOTH",
"299 211 OFFCURVE",
"287 275 OFFCURVE",
"271 335 CURVE SMOOTH",
"198 609 LINE SMOOTH",
"183 666 OFFCURVE",
"158 692 OFFCURVE",
"108 692 CURVE SMOOTH",
"71 692 OFFCURVE",
"37 681 OFFCURVE",
"7 668 CURVE",
"171 69 LINE SMOOTH",
"189 5 OFFCURVE",
"228 -6 OFFCURVE",
"284 -6 CURVE SMOOTH",
"327 -6 OFFCURVE",
"379 -4 OFFCURVE",
"418 0 CURVE",
"604 669 LINE",
"597 678 LINE",
"574 686 OFFCURVE",
"540 689 OFFCURVE",
"520 689 CURVE SMOOTH",
"498 689 OFFCURVE",
"472 689 OFFCURVE",
"447 683 CURVE"
);
}
);
width = 611;
},
{
anchors = (
{
name = bottom_U;
position = "{312.75, -20}";
},
{
name = top_U;
position = "{315.05, 732}";
}
);
layerId = "3CDB9BDF-2CAB-4C38-BE1D-F1DC035F661C";
paths = (
{
closed = 1;
nodes = (
"329.5 162.8 LINE",
"322.8 162.8 OFFCURVE",
"319.45 165.15 OFFCURVE",
"317.45 177.55 CURVE SMOOTH",
"310.2 240.05 OFFCURVE",
"301 300.55 OFFCURVE",
"283.95 366.5 CURVE SMOOTH",
"227.75 593.25 LINE SMOOTH",
"210.3 660.4 OFFCURVE",
"181.45 693.05 OFFCURVE",
"120.25 693.05 CURVE SMOOTH",
"75.55 693.05 OFFCURVE",
"35.25 679.95 OFFCURVE",
"-0.35 664.85 CURVE",
"152.8 81.25 LINE SMOOTH",
"173.6 6.75 OFFCURVE",
"219.95 -6.7 OFFCURVE",
"287.5 -6.7 CURVE SMOOTH",
"338.9 -6.7 OFFCURVE",
"403.85 -4.35 OFFCURVE",
"449.85 0.35 CURVE",
"629.2 666.55 LINE",
"620.8 676.6 LINE",
"592.55 686.7 OFFCURVE",
"550.85 690.05 OFFCURVE",
"528.4 690.05 CURVE SMOOTH",
"503.25 690.05 OFFCURVE",
"471.65 690.4 OFFCURVE",
"440.7 683 CURVE"
);
}
);
width = 630.95;
},
{
anchors = (
{
name = bottom_U;
position = "{278.625, -20}";
},
{
name = top_U;
position = "{283.655, 732}";
}
);
layerId = "E4378254-F350-404F-89FA-E431A9318E35";
paths = (
{
closed = 1;
nodes = (
"288.55 69.98 LINE",
"284.58 69.98 OFFCURVE",
"282.595 70.965 OFFCURVE",
"280.595 77.905 CURVE SMOOTH",
"266.52 126.755 OFFCURVE",
"246.4 200.905 OFFCURVE",
"233.445 243.65 CURVE SMOOTH",
"111.725 654.675 LINE SMOOTH",
"103.83 682.24 OFFCURVE",
"89.995 688.955 OFFCURVE",
"72.475 688.955 CURVE SMOOTH",
"57.805 688.955 OFFCURVE",
"42.075 684.045 OFFCURVE",
"28.315 677.135 CURVE",
"223.78 33.475 LINE SMOOTH",
"233.66 -0.075 OFFCURVE",
"251.345 -3.97 OFFCURVE",
"273.85 -3.97 CURVE SMOOTH",
"292.49 -3.97 OFFCURVE",
"306.935 -2.985 OFFCURVE",
"325.635 -1.015 CURVE",
"530.92 676.105 LINE",
"527.98 682.06 LINE",
"520.205 683.97 OFFCURVE",
"508.535 685.955 OFFCURVE",
"495.64 685.955 CURVE SMOOTH",
"482.775 685.955 OFFCURVE",
"473.015 684.94 OFFCURVE",
"465.27 683 CURVE"
);
}
);
width = 553.145;
}
);
unicode = 0056;
},
{
glyphname = W;
lastChange = "2018-10-16 19:32:45 +0000";
layers = (
{
anchors = (
{
name = bottom_U;
position = "{412, -20}";
},
{
name = top_U;
position = "{412, 732}";
}
);
layerId = UUID0;
paths = (
{
closed = 1;
nodes = (
"170 36 LINE",
"177 2 OFFCURVE",
"199 -4 OFFCURVE",
"221 -4 CURVE SMOOTH",
"238 -4 OFFCURVE",
"267 -3 OFFCURVE",
"285 0 CURVE",
"357 336 LINE SMOOTH",
"370 395 OFFCURVE",
"389 492 OFFCURVE",
"408 592 CURVE",
"414 592 LINE",
"432 492 OFFCURVE",
"451 393 OFFCURVE",
"462 336 CURVE SMOOTH",
"519 35 LINE SMOOTH",
"525 2 OFFCURVE",
"542 -4 OFFCURVE",
"564 -4 CURVE SMOOTH",
"582 -4 OFFCURVE",
"614 -3 OFFCURVE",
"633 1 CURVE",
"783 677 LINE",
"779 682 LINE",
"768 685 OFFCURVE",
"755 686 OFFCURVE",
"744 686 CURVE SMOOTH",
"733 686 OFFCURVE",
"720 685 OFFCURVE",
"711 683 CURVE",
"621 260 LINE SMOOTH",
"612 217 OFFCURVE",
"593 124 OFFCURVE",
"582 59 CURVE",
"577 59 OFFCURVE",
"576 60 OFFCURVE",
"574 69 CURVE SMOOTH",
"459 668 LINE",
"449 670 OFFCURVE",
"425 671 OFFCURVE",
"412 671 CURVE SMOOTH",
"400 671 OFFCURVE",
"378 670 OFFCURVE",
"364 668 CURVE",
"238 59 LINE",
"233 59 OFFCURVE",
"232 59 OFFCURVE",
"230 69 CURVE SMOOTH",
"221 117 OFFCURVE",
"203 217 OFFCURVE",
"195 260 CURVE SMOOTH",
"119 651 LINE SMOOTH",
"114 678 OFFCURVE",
"104 689 OFFCURVE",
"82 689 CURVE SMOOTH",
"69 689 OFFCURVE",
"57 688 OFFCURVE",
"40 680 CURVE"
);
}
);
width = 816;
},
{
anchors = (
{
name = bottom_U;
position = "{456, -20}";
},
{
name = top_U;
position = "{456, 732}";
}
);
layerId = UUID1;
paths = (
{
closed = 1;
nodes = (
"130 69 LINE",
"143 2 OFFCURVE",
"182 -6 OFFCURVE",
"236 -6 CURVE SMOOTH",
"282 -6 OFFCURVE",
"336 -3 OFFCURVE",
"376 1 CURVE",
"419 278 LINE SMOOTH",
"432 359 OFFCURVE",
"444 448 OFFCURVE",
"450 508 CURVE",
"458 508 LINE",
"462 448 OFFCURVE",
"473 358 OFFCURVE",
"485 278 CURVE SMOOTH",
"517 69 LINE SMOOTH",
"527 2 OFFCURVE",
"569 -6 OFFCURVE",
"619 -6 CURVE SMOOTH",
"663 -6 OFFCURVE",
"723 -3 OFFCURVE",
"761 1 CURVE",
"892 668 LINE",
"884 678 LINE",
"862 685 OFFCURVE",
"831 689 OFFCURVE",
"805 689 CURVE SMOOTH",
"782 689 OFFCURVE",
"755 688 OFFCURVE",
"730 683 CURVE",
"676 355 LINE SMOOTH",
"664 285 OFFCURVE",
"652 194 OFFCURVE",
"647 140 CURVE",
"641 140 OFFCURVE",
"638 140 OFFCURVE",
"636 154 CURVE SMOOTH",
"563 670 LINE",
"531 676 OFFCURVE",
"490 678 OFFCURVE",
"456 678 CURVE SMOOTH",
"423 678 OFFCURVE",
"382 676 OFFCURVE",
"349 670 CURVE",
"270 140 LINE",
"263 140 OFFCURVE",
"261 141 OFFCURVE",
"260 154 CURVE SMOOTH",
"256 202 OFFCURVE",
"244 286 OFFCURVE",
"233 353 CURVE SMOOTH",
"194 600 LINE SMOOTH",
"183 672 OFFCURVE",
"160 692 OFFCURVE",
"101 692 CURVE SMOOTH",
"71 692 OFFCURVE",
"37 683 OFFCURVE",
"13 673 CURVE"
);
}
);
width = 911;
},
{
anchors = (
{
name = bottom_U;
position = "{471.4, -20}";
},
{
name = top_U;
position = "{471.4, 732}";
}
);
layerId = "3CDB9BDF-2CAB-4C38-BE1D-F1DC035F661C";
paths = (
{
closed = 1;
nodes = (
"116 80.55 LINE",
"131.1 2 OFFCURVE",
"176.05 -6.7 OFFCURVE",
"241.25 -6.7 CURVE SMOOTH",
"297.4 -6.7 OFFCURVE",
"360.15 -3 OFFCURVE",
"407.85 1.35 CURVE",
"440.7 257.7 LINE SMOOTH",
"453.7 346.4 OFFCURVE",
"463.25 432.6 OFFCURVE",
"464.7 478.6 CURVE",
"473.4 478.6 LINE",
"472.5 432.6 OFFCURVE",
"480.7 345.75 OFFCURVE",
"493.05 257.7 CURVE SMOOTH",
"516.3 80.9 LINE SMOOTH",
"527.7 2 OFFCURVE",
"578.45 -6.7 OFFCURVE",
"638.25 -6.7 CURVE SMOOTH",
"691.35 -6.7 OFFCURVE",
"761.15 -3 OFFCURVE",
"805.8 1 CURVE",
"930.15 664.85 LINE",
"920.75 676.6 LINE",
"894.9 685 OFFCURVE",
"857.6 690.05 OFFCURVE",
"826.35 690.05 CURVE SMOOTH",
"799.15 690.05 OFFCURVE",
"767.25 689.05 OFFCURVE",
"736.65 683 CURVE",
"695.25 388.25 LINE SMOOTH",
"682.2 308.8 OFFCURVE",
"672.65 218.5 OFFCURVE",
"669.75 168.35 CURVE",
"663.4 168.35 OFFCURVE",
"659.7 168 OFFCURVE",
"657.7 183.75 CURVE SMOOTH",
"599.4 670.7 LINE",
"559.7 678.1 OFFCURVE",
"512.75 680.45 OFFCURVE",
"471.4 680.45 CURVE SMOOTH",
"431.05 680.45 OFFCURVE",
"383.4 678.1 OFFCURVE",
"343.75 670.7 CURVE",
"281.2 168.35 LINE",
"273.5 168.35 OFFCURVE",
"271.15 169.7 OFFCURVE",
"270.5 183.75 CURVE SMOOTH",
"268.25 231.75 OFFCURVE",
"258.35 310.15 OFFCURVE",
"246.3 385.55 CURVE SMOOTH",
"220.25 582.15 LINE SMOOTH",
"207.15 669.9 OFFCURVE",
"179.6 693.05 OFFCURVE",
"107.65 693.05 CURVE SMOOTH",
"71.7 693.05 OFFCURVE",
"30 681.25 OFFCURVE",
"3.55 670.55 CURVE"
);
}
);
width = 944.25;
},
{
anchors = (
{
name = bottom_U;
position = "{411.34, -20}";
},
{
name = top_U;
position = "{411.34, 732}";
}
);
layerId = "E4378254-F350-404F-89FA-E431A9318E35";
paths = (
{
closed = 1;
nodes = (
"170.6 35.505 LINE",
"177.51 2 OFFCURVE",
"199.255 -3.97 OFFCURVE",
"220.775 -3.97 CURVE SMOOTH",
"237.34 -3.97 OFFCURVE",
"265.965 -3 OFFCURVE",
"283.635 -0.015 CURVE",
"356.07 336.87 LINE SMOOTH",
"369.07 395.54 OFFCURVE",
"388.175 492.66 OFFCURVE",
"407.37 593.26 CURVE",
"413.34 593.26 LINE",
"431.55 492.66 OFFCURVE",
"450.67 393.525 OFFCURVE",
"461.655 336.87 CURVE SMOOTH",
"519.03 34.49 LINE SMOOTH",
"524.97 2 OFFCURVE",
"541.595 -3.97 OFFCURVE",
"563.175 -3.97 CURVE SMOOTH",
"580.785 -3.97 OFFCURVE",
"612.365 -3 OFFCURVE",
"631.08 1 CURVE",
"781.365 677.135 LINE",
"777.425 682.06 LINE",
"766.59 685 OFFCURVE",
"753.86 685.955 OFFCURVE",
"743.085 685.955 CURVE SMOOTH",
"732.265 685.955 OFFCURVE",
"719.475 684.955 OFFCURVE",
"710.715 683 CURVE",
"620.175 258.575 LINE SMOOTH",
"611.22 215.98 OFFCURVE",
"592.115 122.95 OFFCURVE",
"581.025 57.785 CURVE",
"576.04 57.785 OFFCURVE",
"575.07 58.8 OFFCURVE",
"573.07 67.725 CURVE SMOOTH",
"457.44 667.97 LINE",
"447.77 669.91 OFFCURVE",
"424.025 670.895 OFFCURVE",
"411.34 670.895 CURVE SMOOTH",
"399.655 670.895 OFFCURVE",
"377.94 669.91 OFFCURVE",
"364.225 667.97 CURVE",
"237.52 57.785 LINE",
"232.55 57.785 OFFCURVE",
"231.565 57.77 OFFCURVE",
"229.55 67.725 CURVE SMOOTH",
"220.475 115.725 OFFCURVE",
"202.385 215.965 OFFCURVE",
"194.43 258.605 CURVE SMOOTH",
"117.875 651.765 LINE SMOOTH",
"112.965 678.09 OFFCURVE",
"103.16 688.955 OFFCURVE",
"81.715 688.955 CURVE SMOOTH",
"68.97 688.955 OFFCURVE",
"57.3 688.075 OFFCURVE",
"40.405 680.105 CURVE"
);
}
);
width = 814.575;
}
);
leftKerningGroup = W;
rightKerningGroup = W;
unicode = 0057;
},
{
glyphname = X;
lastChange = "2018-10-16 19:32:45 +0000";
layers = (
{
anchors = (
{
name = bottom_U;
position = "{284, -20}";
},
{
name = top_U;
position = "{290, 732}";
}
);
layerId = UUID0;
paths = (
{
closed = 1;
nodes = (
"451 24 LINE",
"465 2 OFFCURVE",
"481 -6 OFFCURVE",
"496 -6 CURVE SMOOTH",
"511 -6 OFFCURVE",
"529 -1 OFFCURVE",
"545 11 CURVE",
"147 659 LINE SMOOTH",
"133 681 OFFCURVE",
"117 689 OFFCURVE",
"102 689 CURVE SMOOTH",
"87 689 OFFCURVE",
"69 684 OFFCURVE",
"53 672 CURVE"
);
},
{
closed = 1;
nodes = (
"283 406 LINE",
"253 375 LINE",
"24 9 LINE",
"27 3 LINE",
"34 -1 OFFCURVE",
"49 -4 OFFCURVE",
"64 -4 CURVE SMOOTH",
"74 -4 OFFCURVE",
"91 -2 OFFCURVE",
"96 0 CURVE",
"290 318 LINE",
"320 348 LINE",
"523 674 LINE",
"520 680 LINE",
"513 684 OFFCURVE",
"498 687 OFFCURVE",
"483 687 CURVE SMOOTH",
"473 687 OFFCURVE",
"458 685 OFFCURVE",
"453 683 CURVE"
);
}
);
width = 569;
},
{
anchors = (
{
name = bottom_U;
position = "{305, -20}";
},
{
name = top_U;
position = "{314, 732}";
}
);
layerId = UUID1;
paths = (
{
closed = 1;
nodes = (
"396 56 LINE",
"428 6 OFFCURVE",
"456 -10 OFFCURVE",
"504 -10 CURVE SMOOTH",
"539 -10 OFFCURVE",
"580 4 OFFCURVE",
"613 26 CURVE",
"237 628 LINE SMOOTH",
"206 677 OFFCURVE",
"179 693 OFFCURVE",
"131 693 CURVE SMOOTH",
"96 693 OFFCURVE",
"55 679 OFFCURVE",
"22 657 CURVE"
);
},
{
closed = 1;
nodes = (
"309 475 LINE",
"241 399 LINE",
"7 17 LINE",
"11 8 LINE",
"35 0 OFFCURVE",
"69 -6 OFFCURVE",
"101 -6 CURVE SMOOTH",
"130 -6 OFFCURVE",
"153 -4 OFFCURVE",
"171 0 CURVE",
"311 237 LINE",
"379 314 LINE",
"593 667 LINE",
"589 675 LINE",
"567 683 OFFCURVE",
"533 689 OFFCURVE",
"501 689 CURVE SMOOTH",
"472 689 OFFCURVE",
"449 687 OFFCURVE",
"431 683 CURVE"
);
}
);
width = 620;
},
{
anchors = (
{
name = bottom_U;
position = "{312.35, -20}";
},
{
name = top_U;
position = "{322.4, 732}";
}
);
layerId = "3CDB9BDF-2CAB-4C38-BE1D-F1DC035F661C";
paths = (
{
closed = 1;
nodes = (
"376.75 67.2 LINE",
"415.05 7.4 OFFCURVE",
"447.25 -11.4 OFFCURVE",
"506.8 -11.4 CURVE SMOOTH",
"548.8 -11.4 OFFCURVE",
"597.85 5.75 OFFCURVE",
"636.8 31.25 CURVE",
"268.5 617.15 LINE SMOOTH",
"231.55 675.6 OFFCURVE",
"200.7 694.4 OFFCURVE",
"141.15 694.4 CURVE SMOOTH",
"99.15 694.4 OFFCURVE",
"50.1 677.25 OFFCURVE",
"11.15 651.75 CURVE"
);
},
{
closed = 1;
nodes = (
"318.1 499.15 LINE",
"236.8 407.4 LINE",
"1.05 19.8 LINE",
"5.4 9.75 LINE",
"35.35 0.35 OFFCURVE",
"76 -6.7 OFFCURVE",
"113.95 -6.7 CURVE SMOOTH",
"149.6 -6.7 OFFCURVE",
"174.7 -4.7 OFFCURVE",
"197.25 0 CURVE",
"318.35 208.65 LINE",
"399.65 302.1 LINE",
"617.5 664.55 LINE",
"613.15 673.25 LINE",
"585.9 682.65 OFFCURVE",
"545.25 689.7 OFFCURVE",
"507.3 689.7 CURVE SMOOTH",
"471.65 689.7 OFFCURVE",
"445.85 687.7 OFFCURVE",
"423.3 683 CURVE"
);
}
);
width = 637.85;
},
{
anchors = (
{
name = bottom_U;
position = "{283.685, -20}";
},
{
name = top_U;
position = "{289.64, 732}";
}
);
layerId = "E4378254-F350-404F-89FA-E431A9318E35";
paths = (
{
closed = 1;
nodes = (
"451.825 23.52 LINE",
"465.555 1.94 OFFCURVE",
"481.375 -5.94 OFFCURVE",
"495.88 -5.94 CURVE SMOOTH",
"510.58 -5.94 OFFCURVE",
"528.235 -1.075 OFFCURVE",
"543.98 10.775 CURVE",
"145.65 659.465 LINE SMOOTH",
"131.905 681.06 OFFCURVE",
"116.07 688.94 OFFCURVE",
"101.565 688.94 CURVE SMOOTH",
"86.865 688.94 OFFCURVE",
"69.21 684.075 OFFCURVE",
"53.465 672.225 CURVE"
);
},
{
closed = 1;
nodes = (
"282.61 404.965 LINE",
"253.18 374.64 LINE",
"24.255 8.88 LINE",
"27.24 2.925 LINE",
"33.985 -1.015 OFFCURVE",
"48.7 -3.97 OFFCURVE",
"63.445 -3.97 CURVE SMOOTH",
"73.16 -3.97 OFFCURVE",
"90.07 -1.97 OFFCURVE",
"94.875 0 CURVE",
"289.685 319.215 LINE",
"319.115 348.51 LINE",
"521.95 674.105 LINE",
"518.965 680.075 LINE",
"512.19 684.015 OFFCURVE",
"497.475 686.97 OFFCURVE",
"482.73 686.97 CURVE SMOOTH",
"473.015 686.97 OFFCURVE",
"458.135 684.97 OFFCURVE",
"453.33 683 CURVE"
);
}
);
width = 568.235;
}
);
unicode = 0058;
},
{
glyphname = Y;
lastChange = "2018-10-16 19:32:45 +0000";
layers = (
{
anchors = (
{
name = bottom_U;
position = "{239, -20}";
},
{
name = top_U;
position = "{243, 732}";
}
);
layerId = UUID0;
paths = (
{
closed = 1;
nodes = (
"204 0 LINE",
"213 -2 OFFCURVE",
"226 -3 OFFCURVE",
"239 -3 CURVE SMOOTH",
"253 -3 OFFCURVE",
"266 -2 OFFCURVE",
"276 0 CURVE",
"276 269 LINE",
"204 269 LINE"
);
},
{
closed = 1;
nodes = (
"288 416 LINE SMOOTH",
"281 398 OFFCURVE",
"257 336 OFFCURVE",
"247 303 CURVE",
"242 303 LINE",
"232 335 OFFCURVE",
"215 385 OFFCURVE",
"202 416 CURVE SMOOTH",
"103 655 LINE SMOOTH",
"94 678 OFFCURVE",
"83 690 OFFCURVE",
"63 690 CURVE SMOOTH",
"51 690 OFFCURVE",
"37 687 OFFCURVE",
"16 675 CURVE",
"214 202 LINE",
"267 202 LINE",
"464 676 LINE",
"461 682 LINE",
"450 685 OFFCURVE",
"439 687 OFFCURVE",
"426 687 CURVE SMOOTH",
"416 687 OFFCURVE",
"404 686 OFFCURVE",
"394 683 CURVE"
);
}
);
width = 478;
},
{
anchors = (
{
name = bottom_U;
position = "{275, -20}";
},
{
name = top_U;
position = "{277, 732}";
}
);
layerId = UUID1;
paths = (
{
closed = 1;
nodes = (
"190 0 LINE",
"217 -5 OFFCURVE",
"255 -6 OFFCURVE",
"275 -6 CURVE SMOOTH",
"297 -6 OFFCURVE",
"330 -5 OFFCURVE",
"358 0 CURVE",
"358 309 LINE",
"190 309 LINE"
);
},
{
closed = 1;
nodes = (
"331 522 LINE SMOOTH",
"312 474 OFFCURVE",
"294 422 OFFCURVE",
"281 370 CURVE",
"275 370 LINE",
"261 426 OFFCURVE",
"246 473 OFFCURVE",
"229 516 CURVE SMOOTH",
"186 625 LINE SMOOTH",
"167 672 OFFCURVE",
"145 691 OFFCURVE",
"98 691 CURVE SMOOTH",
"62 691 OFFCURVE",
"24 679 OFFCURVE",
"-4 663 CURVE",
"200 190 LINE",
"350 190 LINE",
"552 668 LINE",
"545 677 LINE",
"523 685 OFFCURVE",
"491 689 OFFCURVE",
"463 689 CURVE SMOOTH",
"441 689 OFFCURVE",
"418 688 OFFCURVE",
"395 683 CURVE"
);
}
);
width = 548;
},
{
anchors = (
{
name = bottom_U;
position = "{287.6, -20}";
},
{
name = top_U;
position = "{288.9, 732}";
}
);
layerId = "3CDB9BDF-2CAB-4C38-BE1D-F1DC035F661C";
paths = (
{
closed = 1;
nodes = (
"185.1 0 LINE",
"218.4 -6.05 OFFCURVE",
"265.15 -7.05 OFFCURVE",
"287.6 -7.05 CURVE SMOOTH",
"312.4 -7.05 OFFCURVE",
"352.4 -6.05 OFFCURVE",
"386.7 0 CURVE",
"386.7 323 LINE",
"185.1 323 LINE"
);
},
{
closed = 1;
nodes = (
"346.05 559.1 LINE SMOOTH",
"322.85 500.6 OFFCURVE",
"306.95 452.1 OFFCURVE",
"292.9 393.45 CURVE",
"286.55 393.45 LINE",
"271.15 457.85 OFFCURVE",
"256.85 503.8 OFFCURVE",
"238.45 551 CURVE SMOOTH",
"215.05 614.5 LINE SMOOTH",
"192.55 669.9 OFFCURVE",
"166.7 691.35 OFFCURVE",
"110.25 691.35 CURVE SMOOTH",
"65.85 691.35 OFFCURVE",
"19.45 676.2 OFFCURVE",
"-11 658.8 CURVE",
"195.1 185.8 LINE",
"379.05 185.8 LINE",
"582.8 665.2 LINE",
"574.4 675.25 LINE",
"548.55 685 OFFCURVE",
"509.2 689.7 OFFCURVE",
"475.95 689.7 CURVE SMOOTH",
"449.75 689.7 OFFCURVE",
"422.9 688.7 OFFCURVE",
"395.35 683 CURVE"
);
}
);
width = 572.5;
},
{
anchors = (
{
name = bottom_U;
position = "{238.46, -20}";
},
{
name = top_U;
position = "{242.49, 732}";
}
);
layerId = "E4378254-F350-404F-89FA-E431A9318E35";
paths = (
{
closed = 1;
nodes = (
"204.21 0 LINE",
"212.94 -1.955 OFFCURVE",
"225.565 -2.955 OFFCURVE",
"238.46 -2.955 CURVE SMOOTH",
"252.34 -2.955 OFFCURVE",
"265.04 -1.955 OFFCURVE",
"274.77 0 CURVE",
"274.77 268.4 LINE",
"204.21 268.4 LINE"
);
},
{
closed = 1;
nodes = (
"287.355 414.41 LINE SMOOTH",
"280.535 396.86 OFFCURVE",
"256.445 334.71 OFFCURVE",
"246.49 301.995 CURVE",
"241.505 301.995 LINE",
"231.565 333.635 OFFCURVE",
"214.535 383.68 OFFCURVE",
"201.595 414.5 CURVE SMOOTH",
"101.755 655.45 LINE SMOOTH",
"92.905 678.09 OFFCURVE",
"82.07 689.985 OFFCURVE",
"62.475 689.985 CURVE SMOOTH",
"50.835 689.985 OFFCURVE",
"37.195 687.12 OFFCURVE",
"16.3 675.18 CURVE",
"214.21 202.18 LINE",
"265.755 202.18 LINE",
"462.68 676.12 LINE",
"459.74 682.075 LINE",
"448.905 685 OFFCURVE",
"438.22 686.97 OFFCURVE",
"425.445 686.97 CURVE SMOOTH",
"415.625 686.97 OFFCURVE",
"403.79 685.97 OFFCURVE",
"393.985 683 CURVE"
);
}
);
width = 476.95;
}
);
leftKerningGroup = Y;
rightKerningGroup = Y;
unicode = 0059;
},
{
glyphname = Z;
lastChange = "2018-10-16 19:32:45 +0000";
layers = (
{
anchors = (
{
name = bottom_U;
position = "{278, -20}";
},
{
name = top_U;
position = "{281, 732}";
}
);
layerId = UUID0;
paths = (
{
closed = 1;
nodes = (
"65 86 LINE",
"57 73 OFFCURVE",
"54 60 OFFCURVE",
"54 49 CURVE SMOOTH",
"54 40 OFFCURVE",
"55 31 OFFCURVE",
"65 0 CURVE",
"443 0 LINE SMOOTH",
"484 0 OFFCURVE",
"497 17 OFFCURVE",
"497 43 CURVE SMOOTH",
"497 56 OFFCURVE",
"494 69 OFFCURVE",
"490 81 CURVE",
"464 69 OFFCURVE",
"424 65 OFFCURVE",
"369 65 CURVE SMOOTH",
"234 65 LINE SMOOTH",
"210 65 OFFCURVE",
"174 64 OFFCURVE",
"132 60 CURVE",
"129 63 LINE",
"155 101 OFFCURVE",
"185 143 OFFCURVE",
"208 179 CURVE SMOOTH",
"477 599 LINE SMOOTH",
"485 612 OFFCURVE",
"489 623 OFFCURVE",
"489 633 CURVE SMOOTH",
"489 642 OFFCURVE",
"487 653 OFFCURVE",
"478 683 CURVE",
"85 683 LINE",
"81 670 OFFCURVE",
"79 657 OFFCURVE",
"79 644 CURVE SMOOTH",
"79 636 OFFCURVE",
"80 627 OFFCURVE",
"82 619 CURVE",
"254 619 LINE",
"278 619 OFFCURVE",
"388 621 OFFCURVE",
"411 626 CURVE",
"414 623 LINE",
"384 580 OFFCURVE",
"359 546 OFFCURVE",
"337 512 CURVE SMOOTH"
);
}
);
width = 551;
},
{
anchors = (
{
name = bottom_U;
position = "{286, -20}";
},
{
name = top_U;
position = "{289, 732}";
}
);
layerId = UUID1;
paths = (
{
closed = 1;
nodes = (
"56 161 LINE",
"43 143 OFFCURVE",
"36 120 OFFCURVE",
"36 100 CURVE SMOOTH",
"36 86 OFFCURVE",
"38 74 OFFCURVE",
"54 0 CURVE",
"437 0 LINE SMOOTH",
"500 0 OFFCURVE",
"546 28 OFFCURVE",
"546 88 CURVE SMOOTH",
"546 114 OFFCURVE",
"541 143 OFFCURVE",
"535 163 CURVE",
"508 150 OFFCURVE",
"471 139 OFFCURVE",
"423 139 CURVE SMOOTH",
"374 139 LINE SMOOTH",
"330 139 OFFCURVE",
"263 135 OFFCURVE",
"220 132 CURVE",
"217 135 LINE",
"243 161 OFFCURVE",
"276 201 OFFCURVE",
"295 227 CURVE SMOOTH",
"514 523 LINE SMOOTH",
"528 543 OFFCURVE",
"532 562 OFFCURVE",
"532 581 CURVE SMOOTH",
"532 593 OFFCURVE",
"531 604 OFFCURVE",
"509 683 CURVE",
"62 683 LINE",
"55 655 OFFCURVE",
"51 632 OFFCURVE",
"51 603 CURVE SMOOTH",
"51 585 OFFCURVE",
"52 567 OFFCURVE",
"57 547 CURVE",
"198 547 LINE",
"240 547 OFFCURVE",
"303 550 OFFCURVE",
"352 556 CURVE",
"355 553 LINE",
"330 527 OFFCURVE",
"293 482 OFFCURVE",
"274 456 CURVE SMOOTH"
);
}
);
width = 582;
},
{
anchors = (
{
name = bottom_U;
position = "{288.8, -20}";
},
{
name = top_U;
position = "{291.8, 732}";
}
);
layerId = "3CDB9BDF-2CAB-4C38-BE1D-F1DC035F661C";
paths = (
{
closed = 1;
nodes = (
"52.85 187.25 LINE",
"38.1 167.5 OFFCURVE",
"29.7 141 OFFCURVE",
"29.7 117.85 CURVE SMOOTH",
"29.7 102.1 OFFCURVE",
"32.05 89.05 OFFCURVE",
"50.15 0 CURVE",
"434.9 0 LINE SMOOTH",
"505.6 0 OFFCURVE",
"563.15 31.85 OFFCURVE",
"563.15 103.75 CURVE SMOOTH",
"563.15 134.3 OFFCURVE",
"557.45 168.9 OFFCURVE",
"550.75 191.7 CURVE",
"523.4 178.35 OFFCURVE",
"487.45 164.9 OFFCURVE",
"441.9 164.9 CURVE SMOOTH",
"423 164.9 LINE SMOOTH",
"372 164.9 OFFCURVE",
"294.15 159.85 OFFCURVE",
"250.8 157.2 CURVE",
"247.8 160.2 LINE",
"273.8 182 OFFCURVE",
"307.85 221.3 OFFCURVE",
"325.45 243.8 CURVE SMOOTH",
"526.95 496.4 LINE SMOOTH",
"543.05 518.85 OFFCURVE",
"547.05 540.65 OFFCURVE",
"547.05 562.8 CURVE SMOOTH",
"547.05 575.85 OFFCURVE",
"546.4 586.85 OFFCURVE",
"519.85 683 CURVE",
"53.95 683 LINE",
"45.9 649.75 OFFCURVE",
"41.2 623.25 OFFCURVE",
"41.2 588.65 CURVE SMOOTH",
"41.2 567.15 OFFCURVE",
"42.2 546 OFFCURVE",
"48.25 521.8 CURVE",
"178.4 521.8 LINE",
"226.7 521.8 OFFCURVE",
"273.25 525.15 OFFCURVE",
"331.35 531.5 CURVE",
"334.35 528.5 LINE",
"311.1 508.45 OFFCURVE",
"269.9 459.6 OFFCURVE",
"251.95 436.4 CURVE SMOOTH"
);
}
);
width = 592.85;
},
{
anchors = (
{
name = bottom_U;
position = "{277.88, -20}";
},
{
name = top_U;
position = "{280.88, 732}";
}
);
layerId = "E4378254-F350-404F-89FA-E431A9318E35";
paths = (
{
closed = 1;
nodes = (
"65.135 84.875 LINE",
"57.21 71.95 OFFCURVE",
"54.27 59.1 OFFCURVE",
"54.27 48.235 CURVE SMOOTH",
"54.27 39.31 OFFCURVE",
"55.255 30.355 OFFCURVE",
"65.165 0 CURVE",
"443.09 0 LINE SMOOTH",
"483.76 0 OFFCURVE",
"496.265 16.835 OFFCURVE",
"496.265 42.325 CURVE SMOOTH",
"496.265 55.13 OFFCURVE",
"493.295 67.89 OFFCURVE",
"489.325 79.77 CURVE",
"463.34 67.785 OFFCURVE",
"423.295 63.89 OFFCURVE",
"368.19 63.89 CURVE SMOOTH",
"231.9 63.89 LINE SMOOTH",
"208.2 63.89 OFFCURVE",
"172.665 62.935 OFFCURVE",
"130.68 58.92 CURVE",
"127.68 61.92 LINE",
"153.68 100.1 OFFCURVE",
"183.635 142.13 OFFCURVE",
"206.695 178.28 CURVE SMOOTH",
"476.445 600.14 LINE SMOOTH",
"484.355 613.035 OFFCURVE",
"488.355 623.915 OFFCURVE",
"488.355 633.78 CURVE SMOOTH",
"488.355 642.735 OFFCURVE",
"486.34 653.735 OFFCURVE",
"477.535 683 CURVE",
"85.345 683 LINE",
"81.39 670.225 OFFCURVE",
"79.42 657.375 OFFCURVE",
"79.42 644.615 CURVE SMOOTH",
"79.42 636.765 OFFCURVE",
"80.42 627.9 OFFCURVE",
"82.375 620.08 CURVE",
"254.84 620.08 LINE",
"278.57 620.08 OFFCURVE",
"389.275 622.065 OFFCURVE",
"411.885 627.05 CURVE",
"414.885 624.05 LINE",
"384.81 580.795 OFFCURVE",
"359.99 546.96 OFFCURVE",
"337.945 512.84 CURVE SMOOTH"
);
}
);
width = 550.535;
}
);
leftKerningGroup = Z;
rightKerningGroup = Z;
unicode = 005A;
},
{
glyphname = a;
lastChange = "2018-10-16 19:32:45 +0000";
layers = (
{
anchors = (
{
name = bottom;
position = "{246, -20}";
},
{
name = top;
position = "{241, 542}";
}
);
layerId = UUID0;
paths = (
{
closed = 1;
nodes = (
"52 62 OFFCURVE",
"99 -12 OFFCURVE",
"196 -12 CURVE SMOOTH",
"282 -12 OFFCURVE",
"348 55 OFFCURVE",
"382 95 CURVE",
"370 161 LINE",
"327 85 OFFCURVE",
"258 48 OFFCURVE",
"204 48 CURVE SMOOTH",
"151 48 OFFCURVE",
"123 88 OFFCURVE",
"123 138 CURVE SMOOTH",
"123 203 OFFCURVE",
"168 240 OFFCURVE",
"239 240 CURVE SMOOTH",
"285 240 OFFCURVE",
"335 237 OFFCURVE",
"375 228 CURVE",
"375 278 LINE",
"332 289 OFFCURVE",
"281 293 OFFCURVE",
"239 293 CURVE SMOOTH",
"127 293 OFFCURVE",
"52 243 OFFCURVE",
"52 133 CURVE SMOOTH"
);
},
{
closed = 1;
nodes = (
"421 53 OFFCURVE",
"418 85 OFFCURVE",
"418 128 CURVE SMOOTH",
"418 334 LINE SMOOTH",
"418 441 OFFCURVE",
"369 500 OFFCURVE",
"264 500 CURVE SMOOTH",
"194 500 OFFCURVE",
"119 475 OFFCURVE",
"70 453 CURVE",
"70 434 OFFCURVE",
"82 409 OFFCURVE",
"95 398 CURVE",
"148 422 OFFCURVE",
"204 440 OFFCURVE",
"259 440 CURVE SMOOTH",
"315 440 OFFCURVE",
"351 412 OFFCURVE",
"351 336 CURVE SMOOTH",
"351 103 LINE",
"351 51 OFFCURVE",
"366 12 OFFCURVE",
"413 -7 CURVE",
"428 0 OFFCURVE",
"441 16 OFFCURVE",
"446 29 CURVE"
);
}
);
width = 503;
},
{
anchors = (
{
name = bottom;
position = "{256, -20}";
},
{
name = top;
position = "{251, 542}";
}
);
layerId = UUID1;
paths = (
{
closed = 1;
nodes = (
"28 65 OFFCURVE",
"77 -15 OFFCURVE",
"181 -15 CURVE SMOOTH",
"271 -15 OFFCURVE",
"322 34 OFFCURVE",
"362 81 CURVE",
"339 183 LINE",
"312 135 OFFCURVE",
"269 105 OFFCURVE",
"230 105 CURVE SMOOTH",
"204 105 OFFCURVE",
"187 123 OFFCURVE",
"187 148 CURVE SMOOTH",
"187 183 OFFCURVE",
"203 208 OFFCURVE",
"245 208 CURVE SMOOTH",
"270 208 OFFCURVE",
"316 208 OFFCURVE",
"344 202 CURVE",
"344 305 LINE",
"308 312 OFFCURVE",
"256 312 OFFCURVE",
"227 312 CURVE SMOOTH",
"125 312 OFFCURVE",
"28 258 OFFCURVE",
"28 137 CURVE SMOOTH"
);
},
{
closed = 1;
nodes = (
"468 89 OFFCURVE",
"459 110 OFFCURVE",
"459 138 CURVE SMOOTH",
"459 341 LINE SMOOTH",
"459 469 OFFCURVE",
"365 512 OFFCURVE",
"279 512 CURVE SMOOTH",
"215 512 OFFCURVE",
"116 496 OFFCURVE",
"47 468 CURVE",
"51 428 OFFCURVE",
"63 382 OFFCURVE",
"86 355 CURVE",
"138 370 OFFCURVE",
"190 386 OFFCURVE",
"232 386 CURVE SMOOTH",
"276 386 OFFCURVE",
"295 365 OFFCURVE",
"295 326 CURVE SMOOTH",
"295 114 LINE",
"305 61 OFFCURVE",
"346 -8 OFFCURVE",
"438 -8 CURVE",
"458 8 OFFCURVE",
"481 47 OFFCURVE",
"487 76 CURVE"
);
}
);
width = 514;
},
{
anchors = (
{
name = bottom;
position = "{259.5, -20}";
},
{
name = top;
position = "{254.5, 542}";
}
);
layerId = "3CDB9BDF-2CAB-4C38-BE1D-F1DC035F661C";
paths = (
{
closed = 1;
nodes = (
"19.6 66.05 OFFCURVE",
"69.3 -16.05 OFFCURVE",
"175.75 -16.05 CURVE SMOOTH",
"267.15 -16.05 OFFCURVE",
"312.9 26.65 OFFCURVE",
"355 76.1 CURVE",
"328.15 190.7 LINE",
"306.75 152.5 OFFCURVE",
"272.85 124.95 OFFCURVE",
"239.1 124.95 CURVE SMOOTH",
"222.55 124.95 OFFCURVE",
"209.4 135.25 OFFCURVE",
"209.4 151.5 CURVE SMOOTH",
"209.4 176 OFFCURVE",
"215.25 196.8 OFFCURVE",
"247.1 196.8 CURVE SMOOTH",
"264.75 196.8 OFFCURVE",
"309.35 197.85 OFFCURVE",
"333.15 192.9 CURVE",
"333.15 314.45 LINE",
"299.6 320.05 OFFCURVE",
"247.25 318.65 OFFCURVE",
"222.8 318.65 CURVE SMOOTH",
"124.3 318.65 OFFCURVE",
"19.6 263.25 OFFCURVE",
"19.6 138.4 CURVE SMOOTH"
);
},
{
closed = 1;
nodes = (
"484.45 101.6 OFFCURVE",
"473.35 118.75 OFFCURVE",
"473.35 141.5 CURVE SMOOTH",
"473.35 343.45 LINE SMOOTH",
"473.35 478.8 OFFCURVE",
"363.6 516.2 OFFCURVE",
"284.25 516.2 CURVE SMOOTH",
"222.35 516.2 OFFCURVE",
"114.95 503.35 OFFCURVE",
"38.95 473.25 CURVE",
"44.35 425.9 OFFCURVE",
"56.35 372.55 OFFCURVE",
"82.85 339.95 CURVE",
"134.5 351.8 OFFCURVE",
"185.1 367.1 OFFCURVE",
"222.55 367.1 CURVE SMOOTH",
"262.35 367.1 OFFCURVE",
"275.4 348.55 OFFCURVE",
"275.4 322.5 CURVE SMOOTH",
"275.4 117.85 LINE",
"288.9 64.5 OFFCURVE",
"339 -15 OFFCURVE",
"446.75 -8.35 CURVE",
"468.5 10.8 OFFCURVE",
"495 57.85 OFFCURVE",
"501.35 92.45 CURVE"
);
}
);
width = 517.85;
},
{
anchors = (
{
name = bottom;
position = "{245.85, -20}";
},
{
name = top;
position = "{240.85, 542}";
}
);
layerId = "E4378254-F350-404F-89FA-E431A9318E35";
paths = (
{
closed = 1;
nodes = (
"52.36 61.955 OFFCURVE",
"99.33 -11.955 OFFCURVE",
"196.225 -11.955 CURVE SMOOTH",
"282.165 -11.955 OFFCURVE",
"348.39 55.315 OFFCURVE",
"382.3 95.21 CURVE",
"370.465 160.67 LINE",
"327.225 84.25 OFFCURVE",
"257.835 47.145 OFFCURVE",
"203.61 47.145 CURVE SMOOTH",
"150.205 47.145 OFFCURVE",
"122.04 87.475 OFFCURVE",
"122.04 137.85 CURVE SMOOTH",
"122.04 203.3 OFFCURVE",
"167.475 240.48 OFFCURVE",
"238.91 240.48 CURVE SMOOTH",
"285.225 240.48 OFFCURVE",
"335.285 237.435 OFFCURVE",
"375.465 228.39 CURVE",
"375.465 277.595 LINE",
"332.36 288.655 OFFCURVE",
"281.375 292.715 OFFCURVE",
"239.18 292.715 CURVE SMOOTH",
"127.03 292.715 OFFCURVE",
"52.36 242.775 OFFCURVE",
"52.36 132.94 CURVE SMOOTH"
);
},
{
closed = 1;
nodes = (
"420.295 52.46 OFFCURVE",
"417.385 84.625 OFFCURVE",
"417.385 127.85 CURVE SMOOTH",
"417.385 333.895 LINE SMOOTH",
"417.385 440.58 OFFCURVE",
"369.06 499.82 OFFCURVE",
"263.775 499.82 CURVE SMOOTH",
"193.685 499.82 OFFCURVE",
"119.045 474.685 OFFCURVE",
"70.345 452.775 CURVE",
"70.285 434.09 OFFCURVE",
"82.285 409.405 OFFCURVE",
"95.135 398.645 CURVE",
"148.15 422.78 OFFCURVE",
"204.21 440.81 OFFCURVE",
"259.405 440.81 CURVE SMOOTH",
"315.585 440.81 OFFCURVE",
"351.84 412.705 OFFCURVE",
"351.84 336.15 CURVE SMOOTH",
"351.84 102.835 LINE",
"351.69 50.85 OFFCURVE",
"366.3 12.3 OFFCURVE",
"412.625 -6.985 CURVE",
"427.55 -0.12 OFFCURVE",
"440.4 15.535 OFFCURVE",
"445.385 28.295 CURVE"
);
}
);
width = 502.835;
}
);
leftKerningGroup = a;
rightKerningGroup = a;
unicode = 0061;
},
{
glyphname = b;
lastChange = "2018-10-16 19:32:45 +0000";
layers = (
{
anchors = (
{
name = bottom;
position = "{261, -20}";
},
{
name = top;
position = "{261, 542}";
}
);
layerId = UUID0;
paths = (
{
closed = 1;
nodes = (
"158 687 LINE",
"158 718 OFFCURVE",
"153 735 OFFCURVE",
"121 735 CURVE SMOOTH",
"96 735 LINE",
"90 729 LINE",
"90 25 LINE",
"158 25 LINE"
);
},
{
closed = 1;
nodes = (
"471 396 OFFCURVE",
"413 498 OFFCURVE",
"301 498 CURVE SMOOTH",
"216 498 OFFCURVE",
"153 438 OFFCURVE",
"129 400 CURVE",
"140 337 LINE",
"169 391 OFFCURVE",
"230 437 OFFCURVE",
"292 437 CURVE SMOOTH",
"349 437 OFFCURVE",
"401 383 OFFCURVE",
"401 251 CURVE SMOOTH",
"401 111 OFFCURVE",
"336 47 OFFCURVE",
"262 47 CURVE SMOOTH",
"208 47 OFFCURVE",
"170 57 OFFCURVE",
"126 82 CURVE",
"90 25 LINE",
"147 4 OFFCURVE",
"204 -7 OFFCURVE",
"263 -7 CURVE SMOOTH",
"366 -7 OFFCURVE",
"471 68 OFFCURVE",
"471 251 CURVE SMOOTH"
);
}
);
width = 523;
},
{
anchors = (
{
name = bottom;
position = "{261, -20}";
},
{
name = top;
position = "{261, 542}";
}
);
layerId = UUID1;
paths = (
{
closed = 1;
nodes = (
"217 638 LINE",
"217 711 OFFCURVE",
"190 736 OFFCURVE",
"126 736 CURVE SMOOTH",
"64 736 LINE",
"57 729 LINE",
"57 25 LINE",
"217 25 LINE"
);
},
{
closed = 1;
nodes = (
"508 403 OFFCURVE",
"449 510 OFFCURVE",
"330 510 CURVE SMOOTH",
"261 510 OFFCURVE",
"213 482 OFFCURVE",
"171 442 CURVE",
"194 319 LINE",
"218 364 OFFCURVE",
"254 380 OFFCURVE",
"280 379 CURVE SMOOTH",
"322 378 OFFCURVE",
"340 341 OFFCURVE",
"340 254 CURVE SMOOTH",
"340 165 OFFCURVE",
"318 108 OFFCURVE",
"258 108 CURVE SMOOTH",
"213 108 OFFCURVE",
"171 121 OFFCURVE",
"134 145 CURVE",
"57 25 LINE",
"110 4 OFFCURVE",
"181 -9 OFFCURVE",
"255 -9 CURVE SMOOTH",
"412 -9 OFFCURVE",
"509 96 OFFCURVE",
"508 257 CURVE SMOOTH"
);
}
);
width = 536;
},
{
anchors = (
{
name = bottom;
position = "{261, -20}";
},
{
name = top;
position = "{261, 542}";
}
);
layerId = "3CDB9BDF-2CAB-4C38-BE1D-F1DC035F661C";
paths = (
{
closed = 1;
nodes = (
"237.65 620.85 LINE",
"237.65 708.55 OFFCURVE",
"202.95 736.35 OFFCURVE",
"127.75 736.35 CURVE SMOOTH",
"52.8 736.35 LINE",
"45.45 729 LINE",
"45.45 25 LINE",
"237.65 25 LINE"
);
},
{
closed = 1;
nodes = (
"520.95 405.45 OFFCURVE",
"461.6 514.2 OFFCURVE",
"340.15 514.2 CURVE SMOOTH",
"276.75 514.2 OFFCURVE",
"234 497.4 OFFCURVE",
"185.7 456.7 CURVE",
"212.9 312.7 LINE",
"235.15 354.55 OFFCURVE",
"262.4 360.05 OFFCURVE",
"275.8 358.7 CURVE SMOOTH",
"312.55 357.35 OFFCURVE",
"318.65 326.3 OFFCURVE",
"318.65 255.05 CURVE SMOOTH",
"318.65 183.9 OFFCURVE",
"311.7 129.35 OFFCURVE",
"256.6 129.35 CURVE SMOOTH",
"214.75 129.35 OFFCURVE",
"171.35 143.4 OFFCURVE",
"136.8 167.05 CURVE",
"45.45 25 LINE",
"97.05 4 OFFCURVE",
"172.95 -9.7 OFFCURVE",
"252.2 -9.7 CURVE SMOOTH",
"428.1 -9.7 OFFCURVE",
"522.3 105.8 OFFCURVE",
"520.95 259.1 CURVE SMOOTH"
);
}
);
width = 540.55;
},
{
anchors = (
{
name = bottom;
position = "{261, -20}";
},
{
name = top;
position = "{261, 542}";
}
);
layerId = "E4378254-F350-404F-89FA-E431A9318E35";
paths = (
{
closed = 1;
nodes = (
"157.115 687.735 LINE",
"157.115 718.105 OFFCURVE",
"152.445 734.985 OFFCURVE",
"120.925 734.985 CURVE SMOOTH",
"96.48 734.985 LINE",
"90.495 729 LINE",
"90.495 25 LINE",
"157.115 25 LINE"
);
},
{
closed = 1;
nodes = (
"470.445 395.895 OFFCURVE",
"412.46 497.82 OFFCURVE",
"300.565 497.82 CURVE SMOOTH",
"215.325 497.82 OFFCURVE",
"152.1 437.34 OFFCURVE",
"128.37 399.37 CURVE",
"139.19 337.27 LINE",
"168.265 391.405 OFFCURVE",
"229.64 437.855 OFFCURVE",
"292.18 437.87 CURVE SMOOTH",
"349.405 437.885 OFFCURVE",
"401.915 383.63 OFFCURVE",
"401.915 250.955 CURVE SMOOTH",
"401.915 110.19 OFFCURVE",
"336.27 46.085 OFFCURVE",
"262.06 46.085 CURVE SMOOTH",
"207.925 46.085 OFFCURVE",
"169.985 56.04 OFFCURVE",
"125.88 81.055 CURVE",
"90.495 25 LINE",
"147.555 4 OFFCURVE",
"204.345 -6.97 OFFCURVE",
"263.12 -6.97 CURVE SMOOTH",
"365.31 -6.97 OFFCURVE",
"470.43 67.58 OFFCURVE",
"470.445 250.91 CURVE SMOOTH"
);
}
);
width = 522.805;
}
);
unicode = 0062;
},
{
glyphname = c;
lastChange = "2018-10-16 19:32:45 +0000";
layers = (
{
anchors = (
{
name = bottom;
position = "{247, -20}";
},
{
name = top;
position = "{251, 542}";
}
);
layerId = UUID0;
paths = (
{
closed = 1;
nodes = (
"369 317 OFFCURVE",
"378 316 OFFCURVE",
"388 316 CURVE SMOOTH",
"420 316 OFFCURVE",
"425 337 OFFCURVE",
"425 361 CURVE SMOOTH",
"425 411 OFFCURVE",
"381 502 OFFCURVE",
"253 502 CURVE SMOOTH",
"150 502 OFFCURVE",
"53 421 OFFCURVE",
"53 241 CURVE SMOOTH",
"53 117 OFFCURVE",
"104 -12 OFFCURVE",
"247 -12 CURVE SMOOTH",
"317 -12 OFFCURVE",
"373 17 OFFCURVE",
"419 60 CURVE",
"415 77 OFFCURVE",
"399 96 OFFCURVE",
"385 105 CURVE",
"348 77 OFFCURVE",
"306 49 OFFCURVE",
"256 49 CURVE SMOOTH",
"175 49 OFFCURVE",
"126 112 OFFCURVE",
"126 241 CURVE SMOOTH",
"126 375 OFFCURVE",
"177 446 OFFCURVE",
"251 446 CURVE SMOOTH",
"337 446 OFFCURVE",
"362 376 OFFCURVE",
"358 319 CURVE"
);
}
);
width = 469;
},
{
anchors = (
{
name = bottom;
position = "{251, -20}";
},
{
name = top;
position = "{252, 542}";
}
);
layerId = UUID1;
paths = (
{
closed = 1;
nodes = (
"325 270 OFFCURVE",
"343 268 OFFCURVE",
"371 268 CURVE SMOOTH",
"416 268 OFFCURVE",
"451 292 OFFCURVE",
"451 347 CURVE SMOOTH",
"451 450 OFFCURVE",
"365 515 OFFCURVE",
"254 515 CURVE SMOOTH",
"144 515 OFFCURVE",
"28 444 OFFCURVE",
"28 249 CURVE SMOOTH",
"28 86 OFFCURVE",
"107 -15 OFFCURVE",
"251 -15 CURVE SMOOTH",
"325 -15 OFFCURVE",
"403 15 OFFCURVE",
"447 62 CURVE",
"440 94 OFFCURVE",
"412 138 OFFCURVE",
"386 153 CURVE",
"355 131 OFFCURVE",
"316 112 OFFCURVE",
"278 112 CURVE SMOOTH",
"223 112 OFFCURVE",
"195 145 OFFCURVE",
"195 249 CURVE SMOOTH",
"195 351 OFFCURVE",
"207 394 OFFCURVE",
"251 394 CURVE SMOOTH",
"300 394 OFFCURVE",
"305 353 OFFCURVE",
"305 274 CURVE"
);
}
);
width = 475;
},
{
anchors = (
{
name = bottom;
position = "{252.4, -20}";
},
{
name = top;
position = "{252.35, 542}";
}
);
layerId = "3CDB9BDF-2CAB-4C38-BE1D-F1DC035F661C";
paths = (
{
closed = 1;
nodes = (
"309.6 253.55 OFFCURVE",
"330.75 251.2 OFFCURVE",
"365.05 251.2 CURVE SMOOTH",
"414.6 251.2 OFFCURVE",
"460.1 276.25 OFFCURVE",
"460.1 342.1 CURVE SMOOTH",
"460.1 463.65 OFFCURVE",
"359.4 519.55 OFFCURVE",
"254.35 519.55 CURVE SMOOTH",
"141.9 519.55 OFFCURVE",
"19.25 452.05 OFFCURVE",
"19.25 251.8 CURVE SMOOTH",
"19.25 75.15 OFFCURVE",
"108.05 -16.05 OFFCURVE",
"252.4 -16.05 CURVE SMOOTH",
"327.8 -16.05 OFFCURVE",
"413.5 14.3 OFFCURVE",
"456.8 62.7 CURVE",
"448.75 99.95 OFFCURVE",
"416.55 152.7 OFFCURVE",
"386.35 169.8 CURVE",
"357.45 149.9 OFFCURVE",
"319.5 134.05 OFFCURVE",
"285.7 134.05 CURVE SMOOTH",
"239.8 134.05 OFFCURVE",
"219.15 156.55 OFFCURVE",
"219.15 251.8 CURVE SMOOTH",
"219.15 342.6 OFFCURVE",
"217.5 375.8 OFFCURVE",
"251 375.8 CURVE SMOOTH",
"287.05 375.8 OFFCURVE",
"285.05 344.95 OFFCURVE",
"286.45 258.25 CURVE"
);
}
);
width = 477.1;
},
{
anchors = (
{
name = bottom;
position = "{246.94, -20}";
},
{
name = top;
position = "{250.985, 542}";
}
);
layerId = "E4378254-F350-404F-89FA-E431A9318E35";
paths = (
{
closed = 1;
nodes = (
"369.66 317.705 OFFCURVE",
"378.525 316.72 OFFCURVE",
"388.255 316.72 CURVE SMOOTH",
"420.06 316.72 OFFCURVE",
"424.61 337.675 OFFCURVE",
"424.61 361.21 CURVE SMOOTH",
"424.61 410.415 OFFCURVE",
"381.24 501.805 OFFCURVE",
"252.985 501.805 CURVE SMOOTH",
"150.09 501.805 OFFCURVE",
"53.375 420.655 OFFCURVE",
"53.375 240.88 CURVE SMOOTH",
"53.375 117.465 OFFCURVE",
"103.955 -11.955 OFFCURVE",
"246.94 -11.955 CURVE SMOOTH",
"316.88 -11.955 OFFCURVE",
"372.55 17.03 OFFCURVE",
"418.58 59.97 CURVE",
"414.625 76.745 OFFCURVE",
"398.805 95.37 OFFCURVE",
"384.985 104.28 CURVE",
"347.895 76.19 OFFCURVE",
"305.85 48.055 OFFCURVE",
"255.67 48.055 CURVE SMOOTH",
"174.28 48.055 OFFCURVE",
"124.965 111.505 OFFCURVE",
"124.965 240.88 CURVE SMOOTH",
"124.965 375.36 OFFCURVE",
"176.55 446.78 OFFCURVE",
"251 446.78 CURVE SMOOTH",
"337.555 446.78 OFFCURVE",
"362.855 376.345 OFFCURVE",
"358.795 319.675 CURVE"
);
}
);
width = 468.91;
}
);
leftKerningGroup = c;
rightKerningGroup = c;
unicode = 0063;
},
{
glyphname = d;
lastChange = "2018-10-16 19:32:45 +0000";
layers = (
{
anchors = (
{
name = bottom;
position = "{262, -20}";
},
{
name = top;
position = "{262, 542}";
}
);
layerId = UUID0;
paths = (
{
closed = 1;
nodes = (
"433 687 LINE",
"433 718 OFFCURVE",
"428 735 OFFCURVE",
"396 735 CURVE SMOOTH",
"371 735 LINE",
"365 729 LINE",
"365 113 LINE SMOOTH",
"365 61 OFFCURVE",
"377 13 OFFCURVE",
"428 -7 CURVE",
"443 0 OFFCURVE",
"456 16 OFFCURVE",
"461 29 CURVE",
"436 53 OFFCURVE",
"433 95 OFFCURVE",
"433 138 CURVE SMOOTH"
);
},
{
closed = 1;
nodes = (
"52 90 OFFCURVE",
"110 -12 OFFCURVE",
"219 -12 CURVE SMOOTH",
"310 -12 OFFCURVE",
"377 52 OFFCURVE",
"402 111 CURVE",
"390 180 LINE",
"365 100 OFFCURVE",
"294 49 OFFCURVE",
"232 49 CURVE SMOOTH",
"175 49 OFFCURVE",
"122 103 OFFCURVE",
"122 239 CURVE SMOOTH",
"122 380 OFFCURVE",
"183 437 OFFCURVE",
"244 437 CURVE SMOOTH",
"305 437 OFFCURVE",
"358 398 OFFCURVE",
"396 369 CURVE",
"399 432 LINE",
"351 470 OFFCURVE",
"298 498 OFFCURVE",
"238 498 CURVE SMOOTH",
"152 498 OFFCURVE",
"52 422 OFFCURVE",
"52 239 CURVE SMOOTH"
);
}
);
width = 524;
},
{
anchors = (
{
name = bottom;
position = "{264, -20}";
},
{
name = top;
position = "{262, 542}";
}
);
layerId = UUID1;
paths = (
{
closed = 1;
nodes = (
"481 638 LINE",
"481 711 OFFCURVE",
"456 736 OFFCURVE",
"392 736 CURVE SMOOTH",
"328 736 LINE",
"321 729 LINE",
"321 145 LINE SMOOTH",
"321 59 OFFCURVE",
"369 -8 OFFCURVE",
"460 -8 CURVE",
"480 8 OFFCURVE",
"503 47 OFFCURVE",
"509 76 CURVE",
"493 87 OFFCURVE",
"481 114 OFFCURVE",
"481 145 CURVE SMOOTH"
);
},
{
closed = 1;
nodes = (
"30 92 OFFCURVE",
"88 -15 OFFCURVE",
"211 -15 CURVE SMOOTH",
"310 -15 OFFCURVE",
"391 69 OFFCURVE",
"399 152 CURVE",
"362 242 LINE",
"335 134 OFFCURVE",
"283 116 OFFCURVE",
"254 116 CURVE SMOOTH",
"221 116 OFFCURVE",
"198 154 OFFCURVE",
"198 243 CURVE SMOOTH",
"198 331 OFFCURVE",
"214 389 OFFCURVE",
"261 389 CURVE SMOOTH",
"291 389 OFFCURVE",
"332 364 OFFCURVE",
"371 332 CURVE",
"398 447 LINE",
"354 473 OFFCURVE",
"302 510 OFFCURVE",
"232 510 CURVE SMOOTH",
"120 510 OFFCURVE",
"30 415 OFFCURVE",
"30 244 CURVE SMOOTH"
);
}
);
width = 540;
},
{
anchors = (
{
name = bottom;
position = "{264.7, -20}";
},
{
name = top;
position = "{262, 542}";
}
);
layerId = "3CDB9BDF-2CAB-4C38-BE1D-F1DC035F661C";
paths = (
{
closed = 1;
nodes = (
"497.8 620.85 LINE",
"497.8 708.55 OFFCURVE",
"465.8 736.35 OFFCURVE",
"390.6 736.35 CURVE SMOOTH",
"312.95 736.35 LINE",
"305.6 729 LINE",
"305.6 156.2 LINE SMOOTH",
"305.6 58.3 OFFCURVE",
"366.2 -15.35 OFFCURVE",
"471.2 -8.35 CURVE",
"492.95 10.8 OFFCURVE",
"519.45 57.85 OFFCURVE",
"525.8 92.45 CURVE",
"512.95 98.9 OFFCURVE",
"497.8 120.65 OFFCURVE",
"497.8 147.45 CURVE SMOOTH"
);
},
{
closed = 1;
nodes = (
"22.3 92.7 OFFCURVE",
"80.3 -16.05 OFFCURVE",
"208.2 -16.05 CURVE SMOOTH",
"310 -16.05 OFFCURVE",
"395.9 74.95 OFFCURVE",
"397.95 166.35 CURVE",
"352.2 263.7 LINE",
"324.5 145.9 OFFCURVE",
"279.15 139.45 OFFCURVE",
"261.7 139.45 CURVE SMOOTH",
"237.1 139.45 OFFCURVE",
"224.6 171.85 OFFCURVE",
"224.6 244.4 CURVE SMOOTH",
"224.6 313.85 OFFCURVE",
"224.85 372.2 OFFCURVE",
"266.95 372.2 CURVE SMOOTH",
"286.1 372.2 OFFCURVE",
"322.9 352.1 OFFCURVE",
"362.25 319.05 CURVE",
"397.65 452.25 LINE",
"355.05 474.05 OFFCURVE",
"303.4 514.2 OFFCURVE",
"229.9 514.2 CURVE SMOOTH",
"108.8 514.2 OFFCURVE",
"22.3 412.55 OFFCURVE",
"22.3 245.75 CURVE SMOOTH"
);
}
);
width = 545.6;
},
{
anchors = (
{
name = bottom;
position = "{261.97, -20}";
},
{
name = top;
position = "{262, 542}";
}
);
layerId = "E4378254-F350-404F-89FA-E431A9318E35";
paths = (
{
closed = 1;
nodes = (
"432.28 687.735 LINE",
"432.28 718.105 OFFCURVE",
"427.58 734.985 OFFCURVE",
"396.06 734.985 CURVE SMOOTH",
"371.645 734.985 LINE",
"365.66 729 LINE",
"365.66 112.52 LINE SMOOTH",
"365.66 61.03 OFFCURVE",
"377.12 13.315 OFFCURVE",
"427.52 -6.985 CURVE",
"442.445 -0.12 OFFCURVE",
"455.295 15.535 OFFCURVE",
"460.28 28.295 CURVE",
"435.145 52.49 OFFCURVE",
"432.28 94.715 OFFCURVE",
"432.28 137.895 CURVE SMOOTH"
);
},
{
closed = 1;
nodes = (
"52.33 89.97 OFFCURVE",
"110.33 -11.955 OFFCURVE",
"219.12 -11.955 CURVE SMOOTH",
"310 -11.955 OFFCURVE",
"376.79 51.745 OFFCURVE",
"402.045 110.385 CURVE",
"390.42 179.07 LINE",
"365.45 99.49 OFFCURVE",
"294.165 47.995 OFFCURVE",
"231.67 47.995 CURVE SMOOTH",
"174.31 47.995 OFFCURVE",
"120.86 102.235 OFFCURVE",
"120.86 238.94 CURVE SMOOTH",
"120.86 380.735 OFFCURVE",
"182.535 437.72 OFFCURVE",
"243.745 437.72 CURVE SMOOTH",
"305.21 437.72 OFFCURVE",
"358.39 398.51 OFFCURVE",
"396.375 369.555 CURVE",
"399.015 431.775 LINE",
"350.955 469.955 OFFCURVE",
"297.94 497.82 OFFCURVE",
"238.09 497.82 CURVE SMOOTH",
"152.48 497.82 OFFCURVE",
"52.33 422.105 OFFCURVE",
"52.33 238.925 CURVE SMOOTH"
);
}
);
width = 523.76;
}
);
leftKerningGroup = d;
unicode = 0064;
},
{
glyphname = e;
lastChange = "2018-10-16 19:32:45 +0000";
layers = (
{
anchors = (
{
name = bottom;
position = "{253, -20}";
},
{
name = top;
position = "{255, 542}";
}
);
layerId = UUID0;
paths = (
{
closed = 1;
nodes = (
"440 224 LINE",
"443 248 OFFCURVE",
"444 264 OFFCURVE",
"444 288 CURVE SMOOTH",
"444 406 OFFCURVE",
"380 502 OFFCURVE",
"252 502 CURVE SMOOTH",
"126 502 OFFCURVE",
"53 394 OFFCURVE",
"53 246 CURVE SMOOTH",
"53 109 OFFCURVE",
"101 -12 OFFCURVE",
"249 -12 CURVE SMOOTH",
"317 -12 OFFCURVE",
"384 12 OFFCURVE",
"430 44 CURVE",
"428 59 OFFCURVE",
"417 81 OFFCURVE",
"404 93 CURVE",
"360 68 OFFCURVE",
"312 50 OFFCURVE",
"258 50 CURVE SMOOTH",
"159 50 OFFCURVE",
"127 129 OFFCURVE",
"127 240 CURVE SMOOTH",
"127 262 LINE SMOOTH",
"127 373 OFFCURVE",
"171 448 OFFCURVE",
"252 448 CURVE SMOOTH",
"339 448 OFFCURVE",
"373 377 OFFCURVE",
"373 292 CURVE SMOOTH",
"373 278 LINE",
"95 278 LINE",
"95 224 LINE"
);
}
);
width = 503;
},
{
anchors = (
{
name = bottom;
position = "{254, -20}";
},
{
name = top;
position = "{255, 542}";
}
);
layerId = UUID1;
paths = (
{
closed = 1;
nodes = (
"450 197 LINE",
"460 231 OFFCURVE",
"464 257 OFFCURVE",
"464 303 CURVE SMOOTH",
"464 424 OFFCURVE",
"386 515 OFFCURVE",
"254 515 CURVE SMOOTH",
"92 515 OFFCURVE",
"28 397 OFFCURVE",
"28 246 CURVE SMOOTH",
"28 114 OFFCURVE",
"75 -15 OFFCURVE",
"253 -15 CURVE SMOOTH",
"324 -15 OFFCURVE",
"400 5 OFFCURVE",
"451 42 CURVE",
"446 74 OFFCURVE",
"432 114 OFFCURVE",
"408 138 CURVE",
"368 122 OFFCURVE",
"324 109 OFFCURVE",
"280 109 CURVE SMOOTH",
"201 109 OFFCURVE",
"192 168 OFFCURVE",
"192 233 CURVE SMOOTH",
"192 282 LINE SMOOTH",
"192 363 OFFCURVE",
"207 399 OFFCURVE",
"253 399 CURVE SMOOTH",
"297 399 OFFCURVE",
"314 363 OFFCURVE",
"314 320 CURVE SMOOTH",
"314 309 LINE",
"133 309 LINE",
"133 197 LINE"
);
}
);
width = 496;
},
{
anchors = (
{
name = bottom;
position = "{254.35, -20}";
},
{
name = top;
position = "{255, 542}";
}
);
layerId = "3CDB9BDF-2CAB-4C38-BE1D-F1DC035F661C";
paths = (
{
closed = 1;
nodes = (
"453.5 187.55 LINE",
"465.95 225.05 OFFCURVE",
"471 254.55 OFFCURVE",
"471 308.25 CURVE SMOOTH",
"471 430.3 OFFCURVE",
"388.1 519.55 OFFCURVE",
"254.7 519.55 CURVE SMOOTH",
"80.1 519.55 OFFCURVE",
"19.25 398.05 OFFCURVE",
"19.25 246 CURVE SMOOTH",
"19.25 115.75 OFFCURVE",
"65.9 -16.05 OFFCURVE",
"254.4 -16.05 CURVE SMOOTH",
"326.45 -16.05 OFFCURVE",
"405.6 2.55 OFFCURVE",
"458.35 41.3 CURVE",
"452.3 79.25 OFFCURVE",
"437.25 125.55 OFFCURVE",
"409.4 153.75 CURVE",
"370.8 140.9 OFFCURVE",
"328.2 129.65 OFFCURVE",
"287.7 129.65 CURVE SMOOTH",
"215.7 129.65 OFFCURVE",
"214.75 181.65 OFFCURVE",
"214.75 230.55 CURVE SMOOTH",
"214.75 289 LINE SMOOTH",
"214.75 359.5 OFFCURVE",
"219.6 381.85 OFFCURVE",
"253.35 381.85 CURVE SMOOTH",
"282.3 381.85 OFFCURVE",
"293.35 358.1 OFFCURVE",
"293.35 329.8 CURVE SMOOTH",
"293.35 319.85 LINE",
"146.3 319.85 LINE",
"146.3 187.55 LINE"
);
}
);
width = 493.55;
},
{
anchors = (
{
name = bottom;
position = "{252.985, -20}";
},
{
name = top;
position = "{255, 542}";
}
);
layerId = "E4378254-F350-404F-89FA-E431A9318E35";
paths = (
{
closed = 1;
nodes = (
"439.85 224.405 LINE",
"442.745 248.255 OFFCURVE",
"443.7 264.105 OFFCURVE",
"443.7 287.775 CURVE SMOOTH",
"443.7 405.73 OFFCURVE",
"379.91 501.805 OFFCURVE",
"251.97 501.805 CURVE SMOOTH",
"126.51 501.805 OFFCURVE",
"53.375 393.955 OFFCURVE",
"53.375 246 CURVE SMOOTH",
"53.375 108.925 OFFCURVE",
"101.39 -11.955 OFFCURVE",
"248.94 -11.955 CURVE SMOOTH",
"316.895 -11.955 OFFCURVE",
"383.76 12.105 OFFCURVE",
"429.685 44.03 CURVE",
"427.73 58.775 OFFCURVE",
"416.775 80.505 OFFCURVE",
"403.94 92.325 CURVE",
"359.88 67.19 OFFCURVE",
"311.82 49.115 OFFCURVE",
"257.67 49.115 CURVE SMOOTH",
"158.37 49.115 OFFCURVE",
"126.025 128.415 OFFCURVE",
"126.025 240.105 CURVE SMOOTH",
"126.025 261.7 LINE SMOOTH",
"126.025 373.15 OFFCURVE",
"170.46 448.735 OFFCURVE",
"251.985 448.735 CURVE SMOOTH",
"339.63 448.735 OFFCURVE",
"373.885 377.21 OFFCURVE",
"373.885 291.58 CURVE SMOOTH",
"373.885 277.535 LINE",
"94.43 277.535 LINE",
"94.43 224.405 LINE"
);
}
);
width = 503.105;
}
);
leftKerningGroup = c;
rightKerningGroup = e;
unicode = 0065;
},
{
glyphname = f;
lastChange = "2018-10-16 19:32:45 +0000";
layers = (
{
anchors = (
{
name = bottom;
position = "{143, -20}";
},
{
name = top;
position = "{160, 542}";
}
);
layerId = UUID0;
paths = (
{
closed = 1;
nodes = (
"23 491 LINE",
"21 481 OFFCURVE",
"20 474 OFFCURVE",
"20 464 CURVE SMOOTH",
"20 454 OFFCURVE",
"21 446 OFFCURVE",
"23 437 CURVE",
"142 439 LINE",
"320 437 LINE",
"322 446 OFFCURVE",
"323 454 OFFCURVE",
"323 464 CURVE SMOOTH",
"323 474 OFFCURVE",
"322 481 OFFCURVE",
"320 491 CURVE",
"141 489 LINE"
);
},
{
closed = 1;
nodes = (
"109 0 LINE",
"119 -2 OFFCURVE",
"132 -3 OFFCURVE",
"143 -3 CURVE SMOOTH",
"154 -3 OFFCURVE",
"167 -2 OFFCURVE",
"177 0 CURVE",
"177 457 LINE",
"170 507 OFFCURVE",
"164 551 OFFCURVE",
"164 592 CURVE SMOOTH",
"164 652 OFFCURVE",
"194 686 OFFCURVE",
"243 686 CURVE SMOOTH",
"272 686 OFFCURVE",
"305 679 OFFCURVE",
"335 670 CURVE",
"346 682 OFFCURVE",
"352 701 OFFCURVE",
"352 718 CURVE",
"324 729 OFFCURVE",
"275 739 OFFCURVE",
"241 739 CURVE SMOOTH",
"147 739 OFFCURVE",
"99 676 OFFCURVE",
"99 595 CURVE SMOOTH",
"99 557 OFFCURVE",
"105 509 OFFCURVE",
"109 459 CURVE"
);
}
);
width = 318;
},
{
anchors = (
{
name = bottom;
position = "{165, -20}";
},
{
name = top;
position = "{168, 542}";
}
);
layerId = UUID1;
paths = (
{
closed = 1;
nodes = (
"0 501 LINE",
"-4 483 OFFCURVE",
"-6 462 OFFCURVE",
"-6 444 CURVE SMOOTH",
"-6 426 OFFCURVE",
"-4 403 OFFCURVE",
"0 385 CURVE",
"164 388 LINE",
"364 385 LINE",
"368 403 OFFCURVE",
"370 426 OFFCURVE",
"370 444 CURVE SMOOTH",
"370 462 OFFCURVE",
"368 483 OFFCURVE",
"364 501 CURVE",
"166 499 LINE"
);
},
{
closed = 1;
nodes = (
"86 0 LINE",
"111 -4 OFFCURVE",
"139 -6 OFFCURVE",
"165 -6 CURVE SMOOTH",
"192 -6 OFFCURVE",
"221 -4 OFFCURVE",
"246 0 CURVE",
"246 431 LINE",
"241 467 OFFCURVE",
"230 514 OFFCURVE",
"230 551 CURVE SMOOTH",
"230 595 OFFCURVE",
"254 617 OFFCURVE",
"296 617 CURVE SMOOTH",
"323 617 OFFCURVE",
"353 609 OFFCURVE",
"372 604 CURVE",
"393 626 OFFCURVE",
"408 675 OFFCURVE",
"407 712 CURVE",
"372 725 OFFCURVE",
"315 740 OFFCURVE",
"250 740 CURVE SMOOTH",
"145 740 OFFCURVE",
"73 664 OFFCURVE",
"73 563 CURVE SMOOTH",
"73 517 OFFCURVE",
"82 475 OFFCURVE",
"86 432 CURVE"
);
}
);
width = 361;
},
{
anchors = (
{
name = bottom;
position = "{172.7, -20}";
},
{
name = top;
position = "{170.8, 542}";
}
);
layerId = "3CDB9BDF-2CAB-4C38-BE1D-F1DC035F661C";
paths = (
{
closed = 1;
nodes = (
"-8.05 504.5 LINE",
"-12.75 483.7 OFFCURVE",
"-15.1 457.8 OFFCURVE",
"-15.1 437 CURVE SMOOTH",
"-15.1 416.2 OFFCURVE",
"-12.75 387.95 OFFCURVE",
"-8.05 366.8 CURVE",
"171.7 370.15 LINE",
"379.4 366.8 LINE",
"384.1 387.95 OFFCURVE",
"386.45 416.2 OFFCURVE",
"386.45 437 CURVE SMOOTH",
"386.45 457.8 OFFCURVE",
"384.1 483.7 OFFCURVE",
"379.4 504.5 CURVE",
"174.75 502.5 LINE"
);
},
{
closed = 1;
nodes = (
"77.95 0 LINE",
"108.2 -4.7 OFFCURVE",
"141.45 -7.05 OFFCURVE",
"172.7 -7.05 CURVE SMOOTH",
"205.3 -7.05 OFFCURVE",
"239.9 -4.7 OFFCURVE",
"270.15 0 CURVE",
"270.15 421.9 LINE",
"265.85 453 OFFCURVE",
"253.1 501.05 OFFCURVE",
"253.1 536.65 CURVE SMOOTH",
"253.1 575.05 OFFCURVE",
"275 592.85 OFFCURVE",
"314.55 592.85 CURVE SMOOTH",
"340.85 592.85 OFFCURVE",
"369.8 584.5 OFFCURVE",
"384.95 580.9 CURVE",
"409.45 606.4 OFFCURVE",
"427.6 665.9 OFFCURVE",
"426.25 709.9 CURVE",
"388.8 723.6 OFFCURVE",
"329 740.35 OFFCURVE",
"253.15 740.35 CURVE SMOOTH",
"144.3 740.35 OFFCURVE",
"63.9 659.8 OFFCURVE",
"63.9 551.8 CURVE SMOOTH",
"63.9 503 OFFCURVE",
"73.95 463.1 OFFCURVE",
"77.95 422.55 CURVE"
);
}
);
width = 376.05;
},
{
anchors = (
{
name = bottom;
position = "{142.67, -20}";
},
{
name = top;
position = "{159.88, 542}";
}
);
layerId = "E4378254-F350-404F-89FA-E431A9318E35";
paths = (
{
closed = 1;
nodes = (
"23.345 490.85 LINE",
"21.375 480.97 OFFCURVE",
"20.39 474.18 OFFCURVE",
"20.39 464.3 CURVE SMOOTH",
"20.39 454.42 OFFCURVE",
"21.375 446.645 OFFCURVE",
"23.345 437.78 CURVE",
"141.67 439.765 LINE",
"319.34 437.78 LINE",
"321.31 446.645 OFFCURVE",
"322.295 454.42 OFFCURVE",
"322.295 464.3 CURVE SMOOTH",
"322.295 474.18 OFFCURVE",
"321.31 480.97 OFFCURVE",
"319.34 490.85 CURVE",
"140.625 488.85 LINE"
);
},
{
closed = 1;
nodes = (
"109.345 0 LINE",
"119.12 -1.97 OFFCURVE",
"131.895 -2.955 OFFCURVE",
"142.67 -2.955 CURVE SMOOTH",
"153.43 -2.955 OFFCURVE",
"166.19 -1.97 OFFCURVE",
"175.965 0 CURVE",
"175.965 457.39 LINE",
"168.935 507.6 OFFCURVE",
"163.01 551.555 OFFCURVE",
"163.01 592.615 CURVE SMOOTH",
"163.01 652.855 OFFCURVE",
"193.1 687.035 OFFCURVE",
"242.205 687.035 CURVE SMOOTH",
"271.235 687.035 OFFCURVE",
"304.28 680.05 OFFCURVE",
"334.445 670.99 CURVE",
"345.295 682.84 OFFCURVE",
"351.16 701.39 OFFCURVE",
"351.175 718.09 CURVE",
"323.28 729.06 OFFCURVE",
"274.4 738.985 OFFCURVE",
"240.865 738.985 CURVE SMOOTH",
"147.03 738.985 OFFCURVE",
"99.39 676.18 OFFCURVE",
"99.39 595.48 CURVE SMOOTH",
"99.39 557.6 OFFCURVE",
"105.345 509.51 OFFCURVE",
"109.345 459.405 CURVE"
);
}
);
width = 317.355;
}
);
leftKerningGroup = f;
unicode = 0066;
},
{
glyphname = g;
lastChange = "2018-10-16 19:32:45 +0000";
layers = (
{
anchors = (
{
name = bottom;
position = "{255, -232}";
},
{
name = top;
position = "{257, 542}";
}
);
layerId = UUID0;
paths = (
{
closed = 1;
nodes = (
"457 474 OFFCURVE",
"444 490 OFFCURVE",
"429 497 CURVE",
"378 477 OFFCURVE",
"368 429 OFFCURVE",
"368 377 CURVE",
"368 0 LINE SMOOTH",
"368 -86 OFFCURVE",
"351 -163 OFFCURVE",
"231 -163 CURVE SMOOTH",
"195 -163 OFFCURVE",
"135 -151 OFFCURVE",
"94 -131 CURVE",
"83 -144 OFFCURVE",
"75 -167 OFFCURVE",
"74 -186 CURVE",
"116 -204 OFFCURVE",
"177 -220 OFFCURVE",
"238 -220 CURVE SMOOTH",
"310 -220 OFFCURVE",
"362 -191 OFFCURVE",
"389 -158 CURVE SMOOTH",
"421 -119 OFFCURVE",
"434 -64 OFFCURVE",
"434 35 CURVE SMOOTH",
"434 352 LINE SMOOTH",
"434 395 OFFCURVE",
"437 437 OFFCURVE",
"462 461 CURVE"
);
},
{
closed = 1;
nodes = (
"52 92 OFFCURVE",
"110 -8 OFFCURVE",
"222 -8 CURVE SMOOTH",
"307 -8 OFFCURVE",
"370 54 OFFCURVE",
"394 92 CURVE",
"383 153 LINE",
"354 99 OFFCURVE",
"293 53 OFFCURVE",
"231 53 CURVE SMOOTH",
"172 53 OFFCURVE",
"122 108 OFFCURVE",
"122 244 CURVE SMOOTH",
"122 384 OFFCURVE",
"181 441 OFFCURVE",
"246 441 CURVE SMOOTH",
"305 441 OFFCURVE",
"365 403 OFFCURVE",
"398 360 CURVE",
"405 423 LINE",
"366 464 OFFCURVE",
"318 502 OFFCURVE",
"237 502 CURVE SMOOTH",
"152 502 OFFCURVE",
"52 425 OFFCURVE",
"52 244 CURVE SMOOTH"
);
}
);
width = 523;
},
{
anchors = (
{
name = bottom;
position = "{264, -232}";
},
{
name = top;
position = "{274, 542}";
}
);
layerId = UUID1;
paths = (
{
closed = 1;
nodes = (
"506 453 OFFCURVE",
"481 492 OFFCURVE",
"461 508 CURVE",
"370 508 OFFCURVE",
"322 441 OFFCURVE",
"322 355 CURVE",
"322 -4 LINE SMOOTH",
"322 -63 OFFCURVE",
"293 -100 OFFCURVE",
"224 -100 CURVE SMOOTH",
"179 -100 OFFCURVE",
"132 -89 OFFCURVE",
"89 -70 CURVE",
"66 -97 OFFCURVE",
"49 -150 OFFCURVE",
"49 -188 CURVE",
"102 -208 OFFCURVE",
"176 -221 OFFCURVE",
"239 -221 CURVE SMOOTH",
"320 -221 OFFCURVE",
"389 -199 OFFCURVE",
"430 -147 CURVE SMOOTH",
"461 -107 OFFCURVE",
"482 -48 OFFCURVE",
"482 96 CURVE SMOOTH",
"482 355 LINE SMOOTH",
"482 386 OFFCURVE",
"494 413 OFFCURVE",
"510 424 CURVE"
);
},
{
closed = 1;
nodes = (
"30 97 OFFCURVE",
"88 -10 OFFCURVE",
"211 -10 CURVE SMOOTH",
"280 -10 OFFCURVE",
"345 30 OFFCURVE",
"379 88 CURVE",
"356 201 LINE",
"330 147 OFFCURVE",
"291 121 OFFCURVE",
"253 121 CURVE SMOOTH",
"221 121 OFFCURVE",
"198 159 OFFCURVE",
"198 248 CURVE SMOOTH",
"198 337 OFFCURVE",
"214 394 OFFCURVE",
"261 394 CURVE SMOOTH",
"295 394 OFFCURVE",
"342 355 OFFCURVE",
"381 280 CURVE",
"408 413 LINE",
"384 457 OFFCURVE",
"331 515 OFFCURVE",
"232 515 CURVE SMOOTH",
"121 515 OFFCURVE",
"30 420 OFFCURVE",
"30 249 CURVE SMOOTH"
);
}
);
width = 537;
},
{
anchors = (
{
name = bottom;
position = "{267.15, -232}";
},
{
name = top;
position = "{279.95, 542}";
}
);
layerId = "3CDB9BDF-2CAB-4C38-BE1D-F1DC035F661C";
paths = (
{
closed = 1;
nodes = (
"523.15 445.65 OFFCURVE",
"493.95 492.7 OFFCURVE",
"472.2 511.85 CURVE",
"367.2 518.85 OFFCURVE",
"305.9 445.2 OFFCURVE",
"305.9 347.3 CURVE",
"305.9 -5.4 LINE SMOOTH",
"305.9 -54.95 OFFCURVE",
"272.7 -77.95 OFFCURVE",
"221.55 -77.95 CURVE SMOOTH",
"173.4 -77.95 OFFCURVE",
"130.95 -67.3 OFFCURVE",
"87.25 -48.65 CURVE",
"60.05 -80.55 OFFCURVE",
"39.9 -144.05 OFFCURVE",
"40.25 -188.7 CURVE",
"97.1 -209.4 OFFCURVE",
"175.65 -221.35 OFFCURVE",
"239.35 -221.35 CURVE SMOOTH",
"323.5 -221.35 OFFCURVE",
"398.45 -201.8 OFFCURVE",
"444.35 -143.15 CURVE SMOOTH",
"475 -102.8 OFFCURVE",
"498.8 -42.4 OFFCURVE",
"498.8 117.35 CURVE SMOOTH",
"498.8 356.05 LINE SMOOTH",
"498.8 382.85 OFFCURVE",
"513.95 404.6 OFFCURVE",
"526.8 411.05 CURVE"
);
},
{
closed = 1;
nodes = (
"22.3 98.75 OFFCURVE",
"80.3 -10.7 OFFCURVE",
"207.15 -10.7 CURVE SMOOTH",
"270.55 -10.7 OFFCURVE",
"336.25 21.6 OFFCURVE",
"373.75 86.6 CURVE",
"346.55 217.8 LINE",
"321.6 163.8 OFFCURVE",
"290.3 144.8 OFFCURVE",
"260.7 144.8 CURVE SMOOTH",
"238.15 144.8 OFFCURVE",
"224.6 176.85 OFFCURVE",
"224.6 249.4 CURVE SMOOTH",
"224.6 320.55 OFFCURVE",
"225.55 377.55 OFFCURVE",
"266.25 377.55 CURVE SMOOTH",
"291.5 377.55 OFFCURVE",
"333.95 338.2 OFFCURVE",
"375.05 252 CURVE",
"409.05 409.5 LINE",
"390.3 454.55 OFFCURVE",
"335.55 519.55 OFFCURVE",
"230.25 519.55 CURVE SMOOTH",
"110.15 519.55 OFFCURVE",
"22.3 418.25 OFFCURVE",
"22.3 250.75 CURVE SMOOTH"
);
}
);
width = 541.9;
},
{
anchors = (
{
name = bottom;
position = "{254.865, -232}";
},
{
name = top;
position = "{256.745, 542}";
}
);
layerId = "E4378254-F350-404F-89FA-E431A9318E35";
paths = (
{
closed = 1;
nodes = (
"456.265 474.315 OFFCURVE",
"443.445 489.97 OFFCURVE",
"428.52 496.835 CURVE",
"378.12 476.535 OFFCURVE",
"368.69 428.82 OFFCURVE",
"368.69 377.33 CURVE",
"368.69 0.06 LINE SMOOTH",
"368.69 -86.345 OFFCURVE",
"351.87 -163.945 OFFCURVE",
"231.105 -163.945 CURVE SMOOTH",
"195.24 -163.945 OFFCURVE",
"135.045 -151.93 OFFCURVE",
"94.075 -131.915 CURVE",
"83.255 -144.705 OFFCURVE",
"75.39 -167.255 OFFCURVE",
"74.375 -185.97 CURVE",
"116.21 -203.94 OFFCURVE",
"177.015 -219.985 OFFCURVE",
"237.985 -219.985 CURVE SMOOTH",
"309.85 -219.985 OFFCURVE",
"361.595 -190.88 OFFCURVE",
"388.385 -158.165 CURVE SMOOTH",
"420.4 -119.18 OFFCURVE",
"433.28 -64.24 OFFCURVE",
"433.28 34.085 CURVE SMOOTH",
"433.28 351.955 LINE SMOOTH",
"433.28 395.135 OFFCURVE",
"436.145 437.36 OFFCURVE",
"461.28 461.555 CURVE"
);
},
{
closed = 1;
nodes = (
"52.33 91.925 OFFCURVE",
"110.33 -7.97 OFFCURVE",
"222.165 -7.97 CURVE SMOOTH",
"307.405 -7.97 OFFCURVE",
"370.375 54.36 OFFCURVE",
"394.225 92.06 CURVE",
"383.405 152.28 LINE",
"354.36 98.28 OFFCURVE",
"293.03 51.98 OFFCURVE",
"230.67 51.98 CURVE SMOOTH",
"171.265 51.98 OFFCURVE",
"120.86 107.235 OFFCURVE",
"120.86 243.94 CURVE SMOOTH",
"120.86 384.705 OFFCURVE",
"180.505 441.705 OFFCURVE",
"245.775 441.705 CURVE SMOOTH",
"305.15 441.705 OFFCURVE",
"365.345 403.72 OFFCURVE",
"398.255 361.2 CURVE",
"404.955 423.15 LINE",
"365.73 464.105 OFFCURVE",
"317.805 501.805 OFFCURVE",
"237.075 501.805 CURVE SMOOTH",
"152.465 501.805 OFFCURVE",
"52.33 425.075 OFFCURVE",
"52.33 243.925 CURVE SMOOTH"
);
}
);
width = 522.79;
}
);
leftKerningGroup = d;
unicode = 0067;
},
{
glyphname = h;
lastChange = "2018-10-16 19:32:45 +0000";
layers = (
{
anchors = (
{
name = bottom;
position = "{275, -20}";
},
{
name = top;
position = "{122, 782}";
}
);
layerId = UUID0;
paths = (
{
closed = 1;
nodes = (
"158 687 LINE",
"158 718 OFFCURVE",
"153 735 OFFCURVE",
"121 735 CURVE SMOOTH",
"96 735 LINE",
"90 729 LINE",
"90 0 LINE",
"99 -2 OFFCURVE",
"110 -3 OFFCURVE",
"124 -3 CURVE SMOOTH",
"137 -3 OFFCURVE",
"149 -2 OFFCURVE",
"158 0 CURVE"
);
},
{
closed = 1;
nodes = (
"460 343 LINE",
"460 427 OFFCURVE",
"427 498 OFFCURVE",
"332 498 CURVE SMOOTH",
"259 498 OFFCURVE",
"182 459 OFFCURVE",
"139 404 CURVE",
"139 329 LINE",
"172 387 OFFCURVE",
"253 435 OFFCURVE",
"316 435 CURVE SMOOTH",
"375 435 OFFCURVE",
"391 401 OFFCURVE",
"391 320 CURVE SMOOTH",
"391 40 LINE SMOOTH",
"391 9 OFFCURVE",
"401 -6 OFFCURVE",
"427 -6 CURVE SMOOTH",
"443 -6 OFFCURVE",
"461 0 OFFCURVE",
"471 9 CURVE",
"462 31 OFFCURVE",
"460 61 OFFCURVE",
"460 93 CURVE SMOOTH"
);
}
);
width = 544;
},
{
anchors = (
{
name = bottom;
position = "{278, -20}";
},
{
name = top;
position = "{132, 771}";
}
);
layerId = UUID1;
paths = (
{
closed = 1;
nodes = (
"217 638 LINE",
"217 711 OFFCURVE",
"192 736 OFFCURVE",
"128 736 CURVE SMOOTH",
"64 736 LINE",
"57 729 LINE",
"57 0 LINE",
"82 -4 OFFCURVE",
"110 -6 OFFCURVE",
"136 -6 CURVE SMOOTH",
"165 -6 OFFCURVE",
"194 -4 OFFCURVE",
"217 0 CURVE"
);
},
{
closed = 1;
nodes = (
"488 329 LINE",
"488 435 OFFCURVE",
"438 509 OFFCURVE",
"347 509 CURVE SMOOTH",
"276 509 OFFCURVE",
"225 465 OFFCURVE",
"178 420 CURVE",
"178 278 LINE",
"208 341 OFFCURVE",
"256 362 OFFCURVE",
"284 362 CURVE SMOOTH",
"315 362 OFFCURVE",
"324 342 OFFCURVE",
"324 300 CURVE SMOOTH",
"324 93 LINE SMOOTH",
"324 28 OFFCURVE",
"346 -8 OFFCURVE",
"412 -8 CURVE SMOOTH",
"453 -8 OFFCURVE",
"490 7 OFFCURVE",
"514 27 CURVE",
"495 53 OFFCURVE",
"488 88 OFFCURVE",
"488 128 CURVE SMOOTH"
);
}
);
width = 543;
},
{
anchors = (
{
name = bottom;
position = "{279.05, -20}";
},
{
name = top;
position = "{135.5, 767.15}";
}
);
layerId = "3CDB9BDF-2CAB-4C38-BE1D-F1DC035F661C";
paths = (
{
closed = 1;
nodes = (
"237.65 620.85 LINE",
"237.65 708.55 OFFCURVE",
"205.65 736.35 OFFCURVE",
"130.45 736.35 CURVE SMOOTH",
"52.8 736.35 LINE",
"45.45 729 LINE",
"45.45 0 LINE",
"76.05 -4.7 OFFCURVE",
"110 -7.05 OFFCURVE",
"140.2 -7.05 CURVE SMOOTH",
"174.8 -7.05 OFFCURVE",
"209.75 -4.7 OFFCURVE",
"237.65 0 CURVE"
);
},
{
closed = 1;
nodes = (
"497.8 324.1 LINE",
"497.8 437.8 OFFCURVE",
"441.85 512.85 OFFCURVE",
"352.25 512.85 CURVE SMOOTH",
"281.95 512.85 OFFCURVE",
"240.05 467.1 OFFCURVE",
"191.65 425.6 CURVE",
"191.65 260.15 LINE",
"220.6 324.9 OFFCURVE",
"257.05 336.45 OFFCURVE",
"272.8 336.45 CURVE SMOOTH",
"294 336.45 OFFCURVE",
"300.55 321.35 OFFCURVE",
"300.55 293 CURVE SMOOTH",
"300.55 111.55 LINE SMOOTH",
"300.55 34.65 OFFCURVE",
"326.75 -8.7 OFFCURVE",
"406.75 -8.7 CURVE SMOOTH",
"456.5 -8.7 OFFCURVE",
"500.15 9.45 OFFCURVE",
"529.05 33.3 CURVE",
"506.55 60.7 OFFCURVE",
"497.8 97.45 OFFCURVE",
"497.8 140.25 CURVE SMOOTH"
);
}
);
width = 542.65;
},
{
anchors = (
{
name = bottom;
position = "{274.955, -20}";
},
{
name = top;
position = "{121.85, 782.165}";
}
);
layerId = "E4378254-F350-404F-89FA-E431A9318E35";
paths = (
{
closed = 1;
nodes = (
"157.115 687.735 LINE",
"157.115 718.105 OFFCURVE",
"152.415 734.985 OFFCURVE",
"120.895 734.985 CURVE SMOOTH",
"96.48 734.985 LINE",
"90.495 729 LINE",
"90.495 0 LINE",
"99.255 -1.97 OFFCURVE",
"110 -2.955 OFFCURVE",
"123.82 -2.955 CURVE SMOOTH",
"136.58 -2.955 OFFCURVE",
"148.325 -1.97 OFFCURVE",
"157.115 0 CURVE"
);
},
{
closed = 1;
nodes = (
"459.58 343.21 LINE",
"459.58 426.88 OFFCURVE",
"426.835 497.835 OFFCURVE",
"331.775 497.835 CURVE SMOOTH",
"258.745 497.835 OFFCURVE",
"181.355 458.91 OFFCURVE",
"138.415 403.76 CURVE",
"138.415 329.765 LINE",
"171.46 387.69 OFFCURVE",
"252.955 436.095 OFFCURVE",
"316.48 436.095 CURVE SMOOTH",
"375.9 436.095 OFFCURVE",
"392.005 401.885 OFFCURVE",
"392.005 320.3 CURVE SMOOTH",
"392.005 39.205 LINE SMOOTH",
"392.005 8.715 OFFCURVE",
"401.825 -5.97 OFFCURVE",
"427.225 -5.97 CURVE SMOOTH",
"442.85 -5.97 OFFCURVE",
"460.565 -0.105 OFFCURVE",
"470.355 8.73 CURVE",
"461.505 30.67 OFFCURVE",
"459.58 60.595 OFFCURVE",
"459.58 92.475 CURVE SMOOTH"
);
}
);
width = 544.015;
}
);
rightKerningGroup = h;
unicode = 0068;
},
{
glyphname = k;
lastChange = "2018-10-16 19:32:45 +0000";
layers = (
{
anchors = (
{
name = bottom;
position = "{265, -20}";
},
{
name = top;
position = "{244, 542}";
}
);
layerId = UUID0;
paths = (
{
closed = 1;
nodes = (
"158 687 LINE",
"158 718 OFFCURVE",
"153 735 OFFCURVE",
"121 735 CURVE SMOOTH",
"96 735 LINE",
"90 729 LINE",
"90 0 LINE",
"99 -2 OFFCURVE",
"110 -3 OFFCURVE",
"124 -3 CURVE SMOOTH",
"137 -3 OFFCURVE",
"149 -2 OFFCURVE",
"158 0 CURVE"
);
},
{
closed = 1;
nodes = (
"377 178 LINE",
"346 246 OFFCURVE",
"314 273 OFFCURVE",
"242 273 CURVE SMOOTH",
"123 273 LINE",
"123 219 LINE",
"156 222 LINE SMOOTH",
"180 224 OFFCURVE",
"200 225 OFFCURVE",
"213 225 CURVE SMOOTH",
"271 225 OFFCURVE",
"290 208 OFFCURVE",
"316 150 CURVE SMOOTH",
"363 45 LINE SMOOTH",
"377 14 OFFCURVE",
"387 -6 OFFCURVE",
"419 -6 CURVE SMOOTH",
"437 -6 OFFCURVE",
"457 4 OFFCURVE",
"465 15 CURVE",
"448 27 OFFCURVE",
"432 55 OFFCURVE",
"417 89 CURVE SMOOTH"
);
},
{
closed = 1;
nodes = (
"430 484 LINE",
"424 492 LINE",
"411 493 OFFCURVE",
"403 493 OFFCURVE",
"390 493 CURVE SMOOTH",
"360 493 OFFCURVE",
"350 480 OFFCURVE",
"335 458 CURVE SMOOTH",
"225 296 LINE SMOOTH",
"219 288 OFFCURVE",
"212 283 OFFCURVE",
"203 283 CURVE SMOOTH",
"128 279 LINE",
"128 247 LINE",
"209 247 LINE SMOOTH",
"247 247 OFFCURVE",
"275 259 OFFCURVE",
"300 296 CURVE SMOOTH"
);
}
);
width = 488;
},
{
anchors = (
{
name = bottom;
position = "{274, -20}";
},
{
name = top;
position = "{244, 542}";
}
);
layerId = UUID1;
paths = (
{
closed = 1;
nodes = (
"217 638 LINE",
"217 711 OFFCURVE",
"192 736 OFFCURVE",
"128 736 CURVE SMOOTH",
"64 736 LINE",
"57 729 LINE",
"57 0 LINE",
"81 -4 OFFCURVE",
"109 -6 OFFCURVE",
"136 -6 CURVE SMOOTH",
"164 -6 OFFCURVE",
"194 -4 OFFCURVE",
"217 0 CURVE"
);
},
{
closed = 1;
nodes = (
"449 201 LINE",
"426 270 OFFCURVE",
"367 299 OFFCURVE",
"294 299 CURVE SMOOTH",
"134 299 LINE",
"134 187 LINE",
"175 192 LINE SMOOTH",
"197 195 OFFCURVE",
"216 198 OFFCURVE",
"246 198 CURVE SMOOTH",
"271 198 OFFCURVE",
"287 189 OFFCURVE",
"300 148 CURVE SMOOTH",
"328 63 LINE SMOOTH",
"345 11 OFFCURVE",
"364 -8 OFFCURVE",
"410 -8 CURVE SMOOTH",
"452 -8 OFFCURVE",
"494 14 OFFCURVE",
"520 43 CURVE",
"491 64 OFFCURVE",
"483 94 OFFCURVE",
"472 129 CURVE SMOOTH"
);
},
{
closed = 1;
nodes = (
"494 494 LINE",
"488 502 LINE",
"458 503 OFFCURVE",
"431 504 OFFCURVE",
"396 504 CURVE SMOOTH",
"353 504 OFFCURVE",
"325 484 OFFCURVE",
"306 445 CURVE SMOOTH",
"259 350 LINE SMOOTH",
"251 335 OFFCURVE",
"245 332 OFFCURVE",
"230 332 CURVE SMOOTH",
"154 331 LINE",
"154 256 LINE",
"241 256 LINE SMOOTH",
"332 256 OFFCURVE",
"391 287 OFFCURVE",
"422 348 CURVE SMOOTH"
);
}
);
width = 526;
},
{
anchors = (
{
name = bottom;
position = "{277.15, -20}";
},
{
name = top;
position = "{244, 542}";
}
);
layerId = "3CDB9BDF-2CAB-4C38-BE1D-F1DC035F661C";
paths = (
{
closed = 1;
nodes = (
"237.65 620.85 LINE",
"237.65 708.55 OFFCURVE",
"205.65 736.35 OFFCURVE",
"130.45 736.35 CURVE SMOOTH",
"52.8 736.35 LINE",
"45.45 729 LINE",
"45.45 0 LINE",
"74.7 -4.7 OFFCURVE",
"108.65 -7.05 OFFCURVE",
"140.2 -7.05 CURVE SMOOTH",
"173.45 -7.05 OFFCURVE",
"209.75 -4.7 OFFCURVE",
"237.65 0 CURVE"
);
},
{
closed = 1;
nodes = (
"474.2 209.05 LINE",
"454 278.4 OFFCURVE",
"385.55 308.1 OFFCURVE",
"312.2 308.1 CURVE SMOOTH",
"137.85 308.1 LINE",
"137.85 175.8 LINE",
"181.65 181.5 LINE SMOOTH",
"202.95 184.85 OFFCURVE",
"221.6 188.55 OFFCURVE",
"257.55 188.55 CURVE SMOOTH",
"271 188.55 OFFCURVE",
"285.95 182.35 OFFCURVE",
"294.4 147.3 CURVE SMOOTH",
"315.75 69.3 LINE SMOOTH",
"333.8 9.95 OFFCURVE",
"355.95 -8.7 OFFCURVE",
"406.85 -8.7 CURVE SMOOTH",
"457.25 -8.7 OFFCURVE",
"506.95 17.5 OFFCURVE",
"539.25 52.8 CURVE",
"506.05 76.95 OFFCURVE",
"500.85 107.65 OFFCURVE",
"491.25 143 CURVE SMOOTH"
);
},
{
closed = 1;
nodes = (
"516.4 497.5 LINE",
"510.4 505.5 LINE",
"474.45 506.5 OFFCURVE",
"440.8 507.85 OFFCURVE",
"398.1 507.85 CURVE SMOOTH",
"350.55 507.85 OFFCURVE",
"316.25 485.4 OFFCURVE",
"295.85 440.45 CURVE SMOOTH",
"270.9 368.9 LINE SMOOTH",
"262.2 351.45 OFFCURVE",
"256.55 349.15 OFFCURVE",
"239.45 349.15 CURVE SMOOTH",
"163.1 349.2 LINE",
"163.1 259.15 LINE",
"252.2 259.15 LINE SMOOTH",
"361.75 259.15 OFFCURVE",
"431.6 296.8 OFFCURVE",
"464.7 366.2 CURVE SMOOTH"
);
}
);
width = 539.3;
},
{
anchors = (
{
name = bottom;
position = "{264.865, -20}";
},
{
name = top;
position = "{244, 542}";
}
);
layerId = "E4378254-F350-404F-89FA-E431A9318E35";
paths = (
{
closed = 1;
nodes = (
"157.115 687.735 LINE",
"157.115 718.105 OFFCURVE",
"152.415 734.985 OFFCURVE",
"120.895 734.985 CURVE SMOOTH",
"96.48 734.985 LINE",
"90.495 729 LINE",
"90.495 0 LINE",
"99.27 -1.97 OFFCURVE",
"110.015 -2.955 OFFCURVE",
"123.82 -2.955 CURVE SMOOTH",
"136.595 -2.955 OFFCURVE",
"148.325 -1.97 OFFCURVE",
"157.115 0 CURVE"
);
},
{
closed = 1;
nodes = (
"375.92 177.655 LINE",
"344.8 245.64 OFFCURVE",
"313.205 272.61 OFFCURVE",
"241.22 272.61 CURVE SMOOTH",
"122.835 272.61 LINE",
"122.835 219.48 LINE",
"155.715 222.45 LINE SMOOTH",
"179.745 224.435 OFFCURVE",
"199.76 225.405 OFFCURVE",
"212.505 225.405 CURVE SMOOTH",
"271 225.405 OFFCURVE",
"290.045 208.285 OFFCURVE",
"316.24 150.03 CURVE SMOOTH",
"363.525 44.73 LINE SMOOTH",
"377.48 14.045 OFFCURVE",
"387.345 -5.97 OFFCURVE",
"419.135 -5.97 CURVE SMOOTH",
"436.775 -5.97 OFFCURVE",
"456.445 3.85 OFFCURVE",
"464.175 14.58 CURVE",
"447.355 26.445 OFFCURVE",
"431.235 54.415 OFFCURVE",
"416.175 88.4 CURVE SMOOTH"
);
},
{
closed = 1;
nodes = (
"429.04 483.85 LINE",
"423.04 491.85 LINE",
"410.295 492.85 OFFCURVE",
"402.58 492.835 OFFCURVE",
"389.91 492.835 CURVE SMOOTH",
"360.105 492.835 OFFCURVE",
"350.375 479.94 OFFCURVE",
"335.435 458.195 CURVE SMOOTH",
"224.49 295.19 LINE SMOOTH",
"218.52 287.295 OFFCURVE",
"211.505 282.265 OFFCURVE",
"202.595 282.265 CURVE SMOOTH",
"127.61 278.22 LINE",
"127.61 246.865 LINE",
"208.52 246.865 LINE SMOOTH",
"245.725 246.865 OFFCURVE",
"273.26 258.58 OFFCURVE",
"298.17 295.22 CURVE SMOOTH"
);
}
);
width = 487.43;
}
);
rightKerningGroup = k;
unicode = 006B;
},
{
glyphname = l;
lastChange = "2018-10-16 19:32:45 +0000";
layers = (
{
anchors = (
{
name = bottom;
position = "{164, -20}";
},
{
name = top;
position = "{119, 782}";
}
);
layerId = UUID0;
paths = (
{
closed = 1;
nodes = (
"193 54 LINE",
"169 54 OFFCURVE",
"156 68 OFFCURVE",
"156 96 CURVE SMOOTH",
"156 687 LINE SMOOTH",
"156 718 OFFCURVE",
"151 735 OFFCURVE",
"119 735 CURVE SMOOTH",
"94 735 LINE",
"88 729 LINE",
"88 76 LINE SMOOTH",
"88 24 OFFCURVE",
"122 -4 OFFCURVE",
"170 -4 CURVE SMOOTH",
"190 -4 OFFCURVE",
"222 -1 OFFCURVE",
"241 2 CURVE",
"242 6 OFFCURVE",
"242 11 OFFCURVE",
"242 16 CURVE SMOOTH",
"242 30 OFFCURVE",
"240 44 OFFCURVE",
"236 54 CURVE"
);
}
);
width = 281;
},
{
anchors = (
{
name = bottom;
position = "{180, -20}";
},
{
name = top;
position = "{132, 771}";
}
);
layerId = UUID1;
paths = (
{
closed = 1;
nodes = (
"260 119 LINE",
"228 119 OFFCURVE",
"216 136 OFFCURVE",
"216 167 CURVE SMOOTH",
"216 638 LINE SMOOTH",
"216 711 OFFCURVE",
"191 736 OFFCURVE",
"127 736 CURVE SMOOTH",
"63 736 LINE",
"56 729 LINE",
"56 139 LINE SMOOTH",
"56 40 OFFCURVE",
"90 -5 OFFCURVE",
"184 -5 CURVE SMOOTH",
"224 -5 OFFCURVE",
"264 0 OFFCURVE",
"295 5 CURVE",
"298 16 OFFCURVE",
"299 30 OFFCURVE",
"299 42 CURVE SMOOTH",
"299 68 OFFCURVE",
"294 96 OFFCURVE",
"286 119 CURVE"
);
}
);
width = 316;
},
{
anchors = (
{
name = bottom;
position = "{185.6, -20}";
},
{
name = top;
position = "{136.55, 767.15}";
}
);
layerId = "3CDB9BDF-2CAB-4C38-BE1D-F1DC035F661C";
paths = (
{
closed = 1;
nodes = (
"283.45 141.75 LINE",
"248.65 141.75 OFFCURVE",
"237 159.8 OFFCURVE",
"237 191.85 CURVE SMOOTH",
"237 620.85 LINE SMOOTH",
"237 708.55 OFFCURVE",
"205 736.35 OFFCURVE",
"129.8 736.35 CURVE SMOOTH",
"52.15 736.35 LINE",
"44.8 729 LINE",
"44.8 161.05 LINE SMOOTH",
"44.8 45.6 OFFCURVE",
"78.8 -5.35 OFFCURVE",
"188.9 -5.35 CURVE SMOOTH",
"235.9 -5.35 OFFCURVE",
"278.7 0.35 OFFCURVE",
"313.9 6.05 CURVE",
"317.6 19.5 OFFCURVE",
"318.95 36.65 OFFCURVE",
"318.95 51.1 CURVE SMOOTH",
"318.95 81.3 OFFCURVE",
"312.9 114.2 OFFCURVE",
"303.5 141.75 CURVE"
);
}
);
width = 328.25;
},
{
anchors = (
{
name = bottom;
position = "{163.76, -20}";
},
{
name = top;
position = "{118.805, 782.165}";
}
);
layerId = "E4378254-F350-404F-89FA-E431A9318E35";
paths = (
{
closed = 1;
nodes = (
"191.995 53.025 LINE",
"168.115 53.025 OFFCURVE",
"155.1 66.98 OFFCURVE",
"155.1 94.935 CURVE SMOOTH",
"155.1 687.735 LINE SMOOTH",
"155.1 718.105 OFFCURVE",
"150.4 734.985 OFFCURVE",
"118.88 734.985 CURVE SMOOTH",
"94.465 734.985 LINE",
"88.48 729 LINE",
"88.48 75.055 LINE SMOOTH",
"88.48 23.76 OFFCURVE",
"122.48 -3.985 OFFCURVE",
"169.79 -3.985 CURVE SMOOTH",
"189.49 -3.985 OFFCURVE",
"221.37 -1.015 OFFCURVE",
"240.19 1.955 CURVE",
"241.16 5.85 OFFCURVE",
"241.145 10.715 OFFCURVE",
"241.145 15.61 CURVE SMOOTH",
"241.145 29.43 OFFCURVE",
"239.19 43.22 OFFCURVE",
"235.25 53.025 CURVE"
);
}
);
width = 280.475;
}
);
leftKerningGroup = l;
rightKerningGroup = l;
unicode = 006C;
},
{
glyphname = m;
lastChange = "2018-10-16 19:32:45 +0000";
layers = (
{
anchors = (
{
name = bottom;
position = "{398, -20}";
},
{
name = top;
position = "{395, 542}";
}
);
layerId = UUID0;
paths = (
{
closed = 1;
nodes = (
"96 493 LINE",
"90 486 LINE",
"90 0 LINE",
"99 -2 OFFCURVE",
"111 -3 OFFCURVE",
"125 -3 CURVE SMOOTH",
"138 -3 OFFCURVE",
"150 -2 OFFCURVE",
"159 0 CURVE",
"159 445 LINE SMOOTH",
"159 476 OFFCURVE",
"154 493 OFFCURVE",
"122 493 CURVE SMOOTH"
);
},
{
closed = 1;
nodes = (
"363 0 LINE",
"372 -2 OFFCURVE",
"384 -3 OFFCURVE",
"398 -3 CURVE SMOOTH",
"411 -3 OFFCURVE",
"423 -2 OFFCURVE",
"432 0 CURVE",
"432 345 LINE SMOOTH",
"432 429 OFFCURVE",
"394 499 OFFCURVE",
"307 499 CURVE SMOOTH",
"243 499 OFFCURVE",
"175 459 OFFCURVE",
"134 392 CURVE",
"134 313 LINE",
"167 388 OFFCURVE",
"240 436 OFFCURVE",
"294 436 CURVE SMOOTH",
"345 436 OFFCURVE",
"363 402 OFFCURVE",
"363 321 CURVE"
);
},
{
closed = 1;
nodes = (
"637 40 LINE SMOOTH",
"637 9 OFFCURVE",
"647 -6 OFFCURVE",
"673 -6 CURVE SMOOTH",
"689 -6 OFFCURVE",
"707 0 OFFCURVE",
"717 9 CURVE",
"708 31 OFFCURVE",
"706 61 OFFCURVE",
"706 93 CURVE SMOOTH",
"706 345 LINE SMOOTH",
"706 429 OFFCURVE",
"668 499 OFFCURVE",
"581 499 CURVE SMOOTH",
"517 499 OFFCURVE",
"457 463 OFFCURVE",
"405 409 CURVE",
"405 313 LINE",
"444 393 OFFCURVE",
"515 436 OFFCURVE",
"568 436 CURVE SMOOTH",
"619 436 OFFCURVE",
"637 403 OFFCURVE",
"637 322 CURVE"
);
}
);
width = 790;
},
{
anchors = (
{
name = bottom;
position = "{406, -20}";
},
{
name = top;
position = "{397, 542}";
}
);
layerId = UUID1;
paths = (
{
closed = 1;
nodes = (
"64 507 LINE",
"57 500 LINE",
"57 0 LINE",
"81 -4 OFFCURVE",
"112 -6 OFFCURVE",
"139 -6 CURVE SMOOTH",
"167 -6 OFFCURVE",
"198 -4 OFFCURVE",
"221 0 CURVE",
"221 388 LINE SMOOTH",
"221 461 OFFCURVE",
"187 507 OFFCURVE",
"125 507 CURVE SMOOTH"
);
},
{
closed = 1;
nodes = (
"324 0 LINE",
"348 -4 OFFCURVE",
"379 -6 OFFCURVE",
"406 -6 CURVE SMOOTH",
"434 -6 OFFCURVE",
"465 -4 OFFCURVE",
"488 0 CURVE",
"488 351 LINE SMOOTH",
"488 443 OFFCURVE",
"437 509 OFFCURVE",
"350 509 CURVE SMOOTH",
"277 509 OFFCURVE",
"216 451 OFFCURVE",
"168 399 CURVE",
"168 259 LINE",
"184 303 OFFCURVE",
"239 361 OFFCURVE",
"281 362 CURVE SMOOTH",
"300 362 OFFCURVE",
"324 350 OFFCURVE",
"324 299 CURVE"
);
},
{
closed = 1;
nodes = (
"591 93 LINE SMOOTH",
"591 28 OFFCURVE",
"613 -8 OFFCURVE",
"679 -8 CURVE SMOOTH",
"720 -8 OFFCURVE",
"757 7 OFFCURVE",
"781 27 CURVE",
"762 53 OFFCURVE",
"755 88 OFFCURVE",
"755 128 CURVE SMOOTH",
"755 349 LINE SMOOTH",
"755 441 OFFCURVE",
"709 509 OFFCURVE",
"621 509 CURVE SMOOTH",
"550 509 OFFCURVE",
"475 456 OFFCURVE",
"431 402 CURVE",
"431 253 LINE",
"453 302 OFFCURVE",
"508 362 OFFCURVE",
"546 362 CURVE SMOOTH",
"565 362 OFFCURVE",
"591 351 OFFCURVE",
"591 300 CURVE"
);
}
);
width = 810;
},
{
anchors = (
{
name = bottom;
position = "{408.8, -20}";
},
{
name = top;
position = "{397.7, 542}";
}
);
layerId = "3CDB9BDF-2CAB-4C38-BE1D-F1DC035F661C";
paths = (
{
closed = 1;
nodes = (
"52.8 511.9 LINE",
"45.45 504.9 LINE",
"45.45 0 LINE",
"74.7 -4.7 OFFCURVE",
"112.35 -7.05 OFFCURVE",
"143.9 -7.05 CURVE SMOOTH",
"177.15 -7.05 OFFCURVE",
"214.8 -4.7 OFFCURVE",
"242.7 0 CURVE",
"242.7 368.05 LINE SMOOTH",
"242.7 455.75 OFFCURVE",
"198.55 511.9 OFFCURVE",
"126.05 511.9 CURVE SMOOTH"
);
},
{
closed = 1;
nodes = (
"310.35 0 LINE",
"339.6 -4.7 OFFCURVE",
"377.25 -7.05 OFFCURVE",
"408.8 -7.05 CURVE SMOOTH",
"442.05 -7.05 OFFCURVE",
"479.7 -4.7 OFFCURVE",
"507.6 0 CURVE",
"507.6 353.1 LINE SMOOTH",
"507.6 447.9 OFFCURVE",
"452.05 512.5 OFFCURVE",
"365.05 512.5 CURVE SMOOTH",
"288.9 512.5 OFFCURVE",
"230.35 448.2 OFFCURVE",
"179.9 401.45 CURVE",
"179.9 240.1 LINE",
"189.95 273.25 OFFCURVE",
"238.65 334.75 OFFCURVE",
"276.45 336.1 CURVE SMOOTH",
"284.25 336.1 OFFCURVE",
"310.35 331.8 OFFCURVE",
"310.35 291.3 CURVE"
);
},
{
closed = 1;
nodes = (
"574.9 111.55 LINE SMOOTH",
"574.9 34.65 OFFCURVE",
"601.1 -8.7 OFFCURVE",
"681.1 -8.7 CURVE SMOOTH",
"730.85 -8.7 OFFCURVE",
"774.5 9.45 OFFCURVE",
"803.4 33.3 CURVE",
"780.9 60.7 OFFCURVE",
"772.15 97.45 OFFCURVE",
"772.15 140.25 CURVE SMOOTH",
"772.15 350.4 LINE SMOOTH",
"772.15 445.2 OFFCURVE",
"723.35 512.5 OFFCURVE",
"635 512.5 CURVE SMOOTH",
"561.55 512.5 OFFCURVE",
"481.3 453.55 OFFCURVE",
"440.1 399.55 CURVE",
"440.1 232 LINE",
"456.15 270.15 OFFCURVE",
"505.55 336.1 OFFCURVE",
"538.3 336.1 CURVE SMOOTH",
"546.1 336.1 OFFCURVE",
"574.9 332.8 OFFCURVE",
"574.9 292.3 CURVE"
);
}
);
width = 817;
},
{
anchors = (
{
name = bottom;
position = "{397.88, -20}";
},
{
name = top;
position = "{394.97, 542}";
}
);
layerId = "E4378254-F350-404F-89FA-E431A9318E35";
paths = (
{
closed = 1;
nodes = (
"96.48 492.79 LINE",
"90.495 485.79 LINE",
"90.495 0 LINE",
"99.27 -1.97 OFFCURVE",
"110.985 -2.955 OFFCURVE",
"124.79 -2.955 CURVE SMOOTH",
"137.565 -2.955 OFFCURVE",
"149.28 -1.97 OFFCURVE",
"158.07 0 CURVE",
"158.07 445.855 LINE SMOOTH",
"158.07 476.225 OFFCURVE",
"153.505 492.79 OFFCURVE",
"121.955 492.79 CURVE SMOOTH"
);
},
{
closed = 1;
nodes = (
"363.585 0 LINE",
"372.36 -1.97 OFFCURVE",
"384.075 -2.955 OFFCURVE",
"397.88 -2.955 CURVE SMOOTH",
"410.655 -2.955 OFFCURVE",
"422.37 -1.97 OFFCURVE",
"431.16 0 CURVE",
"431.16 344.91 LINE SMOOTH",
"431.16 428.79 OFFCURVE",
"393.355 498.85 OFFCURVE",
"306.355 498.85 CURVE SMOOTH",
"242.49 498.85 OFFCURVE",
"174.385 459.12 OFFCURVE",
"133.49 391.895 CURVE",
"133.49 313.81 LINE",
"166.745 389.275 OFFCURVE",
"240.015 437.125 OFFCURVE",
"294.195 437.11 CURVE SMOOTH",
"345.675 437.11 OFFCURVE",
"363.585 402.78 OFFCURVE",
"363.585 321.33 CURVE"
);
},
{
closed = 1;
nodes = (
"637.69 39.205 LINE SMOOTH",
"637.69 8.715 OFFCURVE",
"647.51 -5.97 OFFCURVE",
"672.91 -5.97 CURVE SMOOTH",
"688.535 -5.97 OFFCURVE",
"706.25 -0.105 OFFCURVE",
"716.04 8.73 CURVE",
"707.19 30.67 OFFCURVE",
"705.265 60.595 OFFCURVE",
"705.265 92.475 CURVE SMOOTH",
"705.265 344.94 LINE SMOOTH",
"705.265 428.82 OFFCURVE",
"667.385 498.85 OFFCURVE",
"580.4 498.85 CURVE SMOOTH",
"516.505 498.85 OFFCURVE",
"456.73 463.105 OFFCURVE",
"404.61 409.105 CURVE",
"404.61 313.9 LINE",
"443.865 394.365 OFFCURVE",
"515.105 437.11 OFFCURVE",
"568.33 437.11 CURVE SMOOTH",
"619.81 437.11 OFFCURVE",
"637.69 403.78 OFFCURVE",
"637.69 322.33 CURVE"
);
}
);
width = 789.7;
}
);
leftKerningGroup = m;
rightKerningGroup = h;
unicode = 006D;
},
{
glyphname = n;
lastChange = "2018-10-16 19:32:45 +0000";
layers = (
{
anchors = (
{
name = bottom;
position = "{276, -20}";
},
{
name = top;
position = "{277, 542}";
}
);
layerId = UUID0;
paths = (
{
closed = 1;
nodes = (
"96 493 LINE",
"90 487 LINE",
"90 0 LINE",
"99 -2 OFFCURVE",
"111 -3 OFFCURVE",
"125 -3 CURVE SMOOTH",
"138 -3 OFFCURVE",
"150 -2 OFFCURVE",
"159 0 CURVE",
"159 445 LINE SMOOTH",
"159 476 OFFCURVE",
"154 493 OFFCURVE",
"122 493 CURVE SMOOTH"
);
},
{
closed = 1;
nodes = (
"461 344 LINE",
"461 428 OFFCURVE",
"428 499 OFFCURVE",
"333 499 CURVE SMOOTH",
"260 499 OFFCURVE",
"183 460 OFFCURVE",
"140 405 CURVE",
"140 330 LINE",
"173 388 OFFCURVE",
"254 436 OFFCURVE",
"317 436 CURVE SMOOTH",
"376 436 OFFCURVE",
"392 402 OFFCURVE",
"392 321 CURVE SMOOTH",
"392 40 LINE SMOOTH",
"392 9 OFFCURVE",
"402 -6 OFFCURVE",
"428 -6 CURVE SMOOTH",
"444 -6 OFFCURVE",
"462 0 OFFCURVE",
"472 9 CURVE",
"463 31 OFFCURVE",
"461 61 OFFCURVE",
"461 93 CURVE SMOOTH"
);
}
);
width = 545;
},
{
anchors = (
{
name = bottom;
position = "{282, -20}";
},
{
name = top;
position = "{281, 542}";
}
);
layerId = UUID1;
paths = (
{
closed = 1;
nodes = (
"64 507 LINE",
"57 500 LINE",
"57 0 LINE",
"81 -4 OFFCURVE",
"112 -6 OFFCURVE",
"139 -6 CURVE SMOOTH",
"167 -6 OFFCURVE",
"198 -4 OFFCURVE",
"221 0 CURVE",
"221 388 LINE SMOOTH",
"221 461 OFFCURVE",
"188 507 OFFCURVE",
"126 507 CURVE SMOOTH"
);
},
{
closed = 1;
nodes = (
"492 329 LINE",
"492 435 OFFCURVE",
"442 509 OFFCURVE",
"351 509 CURVE SMOOTH",
"280 509 OFFCURVE",
"229 465 OFFCURVE",
"182 420 CURVE",
"182 278 LINE",
"212 341 OFFCURVE",
"260 362 OFFCURVE",
"288 362 CURVE SMOOTH",
"319 362 OFFCURVE",
"328 342 OFFCURVE",
"328 300 CURVE SMOOTH",
"328 93 LINE SMOOTH",
"328 28 OFFCURVE",
"350 -8 OFFCURVE",
"416 -8 CURVE SMOOTH",
"457 -8 OFFCURVE",
"494 7 OFFCURVE",
"518 27 CURVE",
"499 53 OFFCURVE",
"492 88 OFFCURVE",
"492 128 CURVE SMOOTH"
);
}
);
width = 547;
},
{
anchors = (
{
name = bottom;
position = "{284.1, -20}";
},
{
name = top;
position = "{282.4, 542}";
}
);
layerId = "3CDB9BDF-2CAB-4C38-BE1D-F1DC035F661C";
paths = (
{
closed = 1;
nodes = (
"52.8 511.9 LINE",
"45.45 504.55 LINE",
"45.45 0 LINE",
"74.7 -4.7 OFFCURVE",
"112.35 -7.05 OFFCURVE",
"143.9 -7.05 CURVE SMOOTH",
"177.15 -7.05 OFFCURVE",
"214.8 -4.7 OFFCURVE",
"242.7 0 CURVE",
"242.7 368.05 LINE SMOOTH",
"242.7 455.75 OFFCURVE",
"199.9 511.9 OFFCURVE",
"127.4 511.9 CURVE SMOOTH"
);
},
{
closed = 1;
nodes = (
"502.85 323.75 LINE",
"502.85 437.45 OFFCURVE",
"446.9 512.5 OFFCURVE",
"357.3 512.5 CURVE SMOOTH",
"287 512.5 OFFCURVE",
"245.1 466.75 OFFCURVE",
"196.7 425.25 CURVE",
"196.7 259.8 LINE",
"225.65 324.55 OFFCURVE",
"262.1 336.1 OFFCURVE",
"277.85 336.1 CURVE SMOOTH",
"299.05 336.1 OFFCURVE",
"305.6 321 OFFCURVE",
"305.6 292.65 CURVE SMOOTH",
"305.6 111.55 LINE SMOOTH",
"305.6 34.65 OFFCURVE",
"331.8 -8.7 OFFCURVE",
"411.8 -8.7 CURVE SMOOTH",
"461.55 -8.7 OFFCURVE",
"505.2 9.45 OFFCURVE",
"534.1 33.3 CURVE",
"511.6 60.7 OFFCURVE",
"502.85 97.45 OFFCURVE",
"502.85 140.25 CURVE SMOOTH"
);
}
);
width = 547.7;
},
{
anchors = (
{
name = bottom;
position = "{275.91, -20}";
},
{
name = top;
position = "{276.94, 542}";
}
);
layerId = "E4378254-F350-404F-89FA-E431A9318E35";
paths = (
{
closed = 1;
nodes = (
"96.48 492.79 LINE",
"90.495 486.805 LINE",
"90.495 0 LINE",
"99.27 -1.97 OFFCURVE",
"110.985 -2.955 OFFCURVE",
"124.79 -2.955 CURVE SMOOTH",
"137.565 -2.955 OFFCURVE",
"149.28 -1.97 OFFCURVE",
"158.07 0 CURVE",
"158.07 445.855 LINE SMOOTH",
"158.07 476.225 OFFCURVE",
"153.49 492.79 OFFCURVE",
"121.94 492.79 CURVE SMOOTH"
);
},
{
closed = 1;
nodes = (
"460.535 344.225 LINE",
"460.535 427.895 OFFCURVE",
"427.79 498.85 OFFCURVE",
"332.73 498.85 CURVE SMOOTH",
"259.7 498.85 OFFCURVE",
"182.31 459.925 OFFCURVE",
"139.37 404.775 CURVE",
"139.37 330.78 LINE",
"172.415 388.705 OFFCURVE",
"253.91 437.11 OFFCURVE",
"317.435 437.11 CURVE SMOOTH",
"376.855 437.11 OFFCURVE",
"392.96 402.9 OFFCURVE",
"392.96 321.315 CURVE SMOOTH",
"392.96 39.205 LINE SMOOTH",
"392.96 8.715 OFFCURVE",
"402.78 -5.97 OFFCURVE",
"428.18 -5.97 CURVE SMOOTH",
"443.805 -5.97 OFFCURVE",
"461.52 -0.105 OFFCURVE",
"471.31 8.73 CURVE",
"462.46 30.67 OFFCURVE",
"460.535 60.595 OFFCURVE",
"460.535 92.475 CURVE SMOOTH"
);
}
);
width = 544.97;
}
);
leftKerningGroup = m;
rightKerningGroup = h;
unicode = 006E;
},
{
glyphname = o;
lastChange = "2018-10-16 19:32:45 +0000";
layers = (
{
anchors = (
{
name = bottom;
position = "{259, -20}";
},
{
name = top;
position = "{259, 542}";
}
);
layerId = UUID0;
paths = (
{
closed = 1;
nodes = (
"466 324 OFFCURVE",
"448 396 OFFCURVE",
"396 449 CURVE SMOOTH",
"361 484 OFFCURVE",
"316 502 OFFCURVE",
"259 502 CURVE SMOOTH",
"203 502 OFFCURVE",
"158 484 OFFCURVE",
"123 449 CURVE SMOOTH",
"71 396 OFFCURVE",
"53 324 OFFCURVE",
"53 245 CURVE SMOOTH",
"53 165 OFFCURVE",
"71 94 OFFCURVE",
"123 41 CURVE SMOOTH",
"158 6 OFFCURVE",
"203 -12 OFFCURVE",
"259 -12 CURVE SMOOTH",
"316 -12 OFFCURVE",
"361 6 OFFCURVE",
"396 41 CURVE SMOOTH",
"448 94 OFFCURVE",
"466 165 OFFCURVE",
"466 245 CURVE SMOOTH"
);
},
{
closed = 1;
nodes = (
"125 344 OFFCURVE",
"158 448 OFFCURVE",
"260 448 CURVE SMOOTH",
"361 448 OFFCURVE",
"394 344 OFFCURVE",
"394 245 CURVE SMOOTH",
"394 145 OFFCURVE",
"361 43 OFFCURVE",
"260 43 CURVE SMOOTH",
"158 43 OFFCURVE",
"125 145 OFFCURVE",
"125 245 CURVE SMOOTH"
);
}
);
width = 519;
},
{
anchors = (
{
name = bottom;
position = "{261, -20}";
},
{
name = top;
position = "{261, 542}";
}
);
layerId = UUID1;
paths = (
{
closed = 1;
nodes = (
"494 338 OFFCURVE",
"475 403 OFFCURVE",
"422 456 CURVE SMOOTH",
"380 497 OFFCURVE",
"324 515 OFFCURVE",
"261 515 CURVE SMOOTH",
"198 515 OFFCURVE",
"142 497 OFFCURVE",
"100 456 CURVE SMOOTH",
"47 403 OFFCURVE",
"28 338 OFFCURVE",
"28 250 CURVE SMOOTH",
"28 162 OFFCURVE",
"47 97 OFFCURVE",
"100 44 CURVE SMOOTH",
"142 3 OFFCURVE",
"198 -15 OFFCURVE",
"261 -15 CURVE SMOOTH",
"324 -15 OFFCURVE",
"380 3 OFFCURVE",
"422 44 CURVE SMOOTH",
"475 97 OFFCURVE",
"494 162 OFFCURVE",
"494 250 CURVE SMOOTH"
);
},
{
closed = 1;
nodes = (
"196 331 OFFCURVE",
"203 393 OFFCURVE",
"261 393 CURVE SMOOTH",
"319 393 OFFCURVE",
"326 331 OFFCURVE",
"326 250 CURVE SMOOTH",
"326 169 OFFCURVE",
"319 107 OFFCURVE",
"261 107 CURVE SMOOTH",
"203 107 OFFCURVE",
"196 169 OFFCURVE",
"196 250 CURVE SMOOTH"
);
}
);
width = 522;
},
{
anchors = (
{
name = bottom;
position = "{261.7, -20}";
},
{
name = top;
position = "{261.7, 542}";
}
);
layerId = "3CDB9BDF-2CAB-4C38-BE1D-F1DC035F661C";
paths = (
{
closed = 1;
nodes = (
"503.8 342.9 OFFCURVE",
"484.45 405.45 OFFCURVE",
"431.1 458.45 CURVE SMOOTH",
"386.65 501.55 OFFCURVE",
"326.8 519.55 OFFCURVE",
"261.7 519.55 CURVE SMOOTH",
"196.25 519.55 OFFCURVE",
"136.4 501.55 OFFCURVE",
"91.95 458.45 CURVE SMOOTH",
"38.6 405.45 OFFCURVE",
"19.25 342.9 OFFCURVE",
"19.25 251.75 CURVE SMOOTH",
"19.25 160.95 OFFCURVE",
"38.6 98.05 OFFCURVE",
"91.95 45.05 CURVE SMOOTH",
"136.4 1.95 OFFCURVE",
"196.25 -16.05 OFFCURVE",
"261.7 -16.05 CURVE SMOOTH",
"326.8 -16.05 OFFCURVE",
"386.65 1.95 OFFCURVE",
"431.1 45.05 CURVE SMOOTH",
"484.45 98.05 OFFCURVE",
"503.8 160.95 OFFCURVE",
"503.8 251.75 CURVE SMOOTH"
);
},
{
closed = 1;
nodes = (
"220.85 326.45 OFFCURVE",
"218.75 373.75 OFFCURVE",
"261.35 373.75 CURVE SMOOTH",
"304.3 373.75 OFFCURVE",
"302.2 326.45 OFFCURVE",
"302.2 251.75 CURVE SMOOTH",
"302.2 177.4 OFFCURVE",
"304.3 129.4 OFFCURVE",
"261.35 129.4 CURVE SMOOTH",
"218.75 129.4 OFFCURVE",
"220.85 177.4 OFFCURVE",
"220.85 251.75 CURVE SMOOTH"
);
}
);
width = 523.05;
},
{
anchors = (
{
name = bottom;
position = "{258.97, -20}";
},
{
name = top;
position = "{258.97, 542}";
}
);
layerId = "E4378254-F350-404F-89FA-E431A9318E35";
paths = (
{
closed = 1;
nodes = (
"465.58 323.79 OFFCURVE",
"447.595 395.895 OFFCURVE",
"395.61 448.895 CURVE SMOOTH",
"360.715 483.805 OFFCURVE",
"315.88 501.805 OFFCURVE",
"258.97 501.805 CURVE SMOOTH",
"203.075 501.805 OFFCURVE",
"158.24 483.805 OFFCURVE",
"123.345 448.895 CURVE SMOOTH",
"71.36 395.895 OFFCURVE",
"53.375 323.79 OFFCURVE",
"53.375 244.925 CURVE SMOOTH",
"53.375 165.045 OFFCURVE",
"71.36 93.955 OFFCURVE",
"123.345 40.955 CURVE SMOOTH",
"158.24 6.045 OFFCURVE",
"203.075 -11.955 OFFCURVE",
"258.97 -11.955 CURVE SMOOTH",
"315.88 -11.955 OFFCURVE",
"360.715 6.045 OFFCURVE",
"395.61 40.955 CURVE SMOOTH",
"447.595 93.955 OFFCURVE",
"465.58 165.045 OFFCURVE",
"465.58 244.925 CURVE SMOOTH"
);
},
{
closed = 1;
nodes = (
"123.935 344.195 OFFCURVE",
"157.325 448.825 OFFCURVE",
"259.985 448.825 CURVE SMOOTH",
"361.63 448.825 OFFCURVE",
"395.02 344.195 OFFCURVE",
"395.02 244.925 CURVE SMOOTH",
"395.02 144.64 OFFCURVE",
"361.63 42.04 OFFCURVE",
"259.985 42.04 CURVE SMOOTH",
"157.325 42.04 OFFCURVE",
"123.935 144.64 OFFCURVE",
"123.935 244.925 CURVE SMOOTH"
);
}
);
width = 518.955;
}
);
leftKerningGroup = c;
rightKerningGroup = o;
unicode = 006F;
},
{
glyphname = p;
lastChange = "2018-10-16 19:32:45 +0000";
layers = (
{
anchors = (
{
name = bottom;
position = "{262, -20}";
},
{
name = top;
position = "{262, 542}";
}
);
layerId = UUID0;
paths = (
{
closed = 1;
nodes = (
"96 493 LINE",
"90 487 LINE",
"90 -209 LINE",
"96 -215 LINE",
"121 -215 LINE SMOOTH",
"153 -215 OFFCURVE",
"158 -198 OFFCURVE",
"158 -167 CURVE SMOOTH",
"158 445 LINE SMOOTH",
"158 476 OFFCURVE",
"153 493 OFFCURVE",
"121 493 CURVE SMOOTH"
);
},
{
closed = 1;
nodes = (
"473 400 OFFCURVE",
"415 502 OFFCURVE",
"306 502 CURVE SMOOTH",
"215 502 OFFCURVE",
"148 438 OFFCURVE",
"123 379 CURVE",
"135 310 LINE",
"160 390 OFFCURVE",
"231 441 OFFCURVE",
"293 441 CURVE SMOOTH",
"350 441 OFFCURVE",
"403 387 OFFCURVE",
"403 251 CURVE SMOOTH",
"403 110 OFFCURVE",
"342 53 OFFCURVE",
"281 53 CURVE SMOOTH",
"220 53 OFFCURVE",
"167 92 OFFCURVE",
"129 121 CURVE",
"126 58 LINE",
"174 20 OFFCURVE",
"227 -8 OFFCURVE",
"287 -8 CURVE SMOOTH",
"373 -8 OFFCURVE",
"473 68 OFFCURVE",
"473 251 CURVE SMOOTH"
);
}
);
width = 525;
},
{
anchors = (
{
name = bottom;
position = "{262, -20}";
},
{
name = top;
position = "{262, 542}";
}
);
layerId = UUID1;
paths = (
{
closed = 1;
nodes = (
"64 507 LINE",
"57 500 LINE",
"57 -209 LINE",
"64 -216 LINE",
"128 -216 LINE SMOOTH",
"192 -216 OFFCURVE",
"218 -191 OFFCURVE",
"218 -118 CURVE SMOOTH",
"218 368 LINE SMOOTH",
"218 454 OFFCURVE",
"173 507 OFFCURVE",
"107 507 CURVE SMOOTH"
);
},
{
closed = 1;
nodes = (
"509 408 OFFCURVE",
"451 515 OFFCURVE",
"328 515 CURVE SMOOTH",
"229 515 OFFCURVE",
"148 431 OFFCURVE",
"140 348 CURVE",
"177 258 LINE",
"204 366 OFFCURVE",
"256 384 OFFCURVE",
"285 384 CURVE SMOOTH",
"318 384 OFFCURVE",
"341 346 OFFCURVE",
"341 257 CURVE SMOOTH",
"341 169 OFFCURVE",
"325 111 OFFCURVE",
"278 111 CURVE SMOOTH",
"248 111 OFFCURVE",
"207 136 OFFCURVE",
"168 168 CURVE",
"141 53 LINE",
"185 27 OFFCURVE",
"237 -10 OFFCURVE",
"307 -10 CURVE SMOOTH",
"419 -10 OFFCURVE",
"509 85 OFFCURVE",
"509 256 CURVE SMOOTH"
);
}
);
width = 539;
},
{
anchors = (
{
name = bottom;
position = "{262, -20}";
},
{
name = top;
position = "{262, 542}";
}
);
layerId = "3CDB9BDF-2CAB-4C38-BE1D-F1DC035F661C";
paths = (
{
closed = 1;
nodes = (
"52.8 511.9 LINE",
"45.45 504.55 LINE",
"45.45 -209 LINE",
"52.8 -216.35 LINE",
"130.45 -216.35 LINE SMOOTH",
"205.65 -216.35 OFFCURVE",
"239 -188.55 OFFCURVE",
"239 -100.85 CURVE SMOOTH",
"239 341.05 LINE SMOOTH",
"239 446.3 OFFCURVE",
"180 511.9 OFFCURVE",
"102.1 511.9 CURVE SMOOTH"
);
},
{
closed = 1;
nodes = (
"521.6 410.8 OFFCURVE",
"463.6 519.55 OFFCURVE",
"335.7 519.55 CURVE SMOOTH",
"233.9 519.55 OFFCURVE",
"148 428.55 OFFCURVE",
"145.95 337.15 CURVE",
"191.7 239.8 LINE",
"219.4 357.6 OFFCURVE",
"264.75 364.05 OFFCURVE",
"282.2 364.05 CURVE SMOOTH",
"306.8 364.05 OFFCURVE",
"319.3 331.65 OFFCURVE",
"319.3 259.1 CURVE SMOOTH",
"319.3 189.65 OFFCURVE",
"319.05 131.3 OFFCURVE",
"276.95 131.3 CURVE SMOOTH",
"257.8 131.3 OFFCURVE",
"221 151.4 OFFCURVE",
"181.65 184.45 CURVE",
"146.25 51.25 LINE",
"188.85 29.45 OFFCURVE",
"240.5 -10.7 OFFCURVE",
"314 -10.7 CURVE SMOOTH",
"435.1 -10.7 OFFCURVE",
"521.6 90.95 OFFCURVE",
"521.6 257.75 CURVE SMOOTH"
);
}
);
width = 543.9;
},
{
anchors = (
{
name = bottom;
position = "{262, -20}";
},
{
name = top;
position = "{262, 542}";
}
);
layerId = "E4378254-F350-404F-89FA-E431A9318E35";
paths = (
{
closed = 1;
nodes = (
"96.48 492.79 LINE",
"90.495 486.805 LINE",
"90.495 -209 LINE",
"96.48 -214.985 LINE",
"120.895 -214.985 LINE SMOOTH",
"152.415 -214.985 OFFCURVE",
"157.1 -198.105 OFFCURVE",
"157.1 -167.735 CURVE SMOOTH",
"157.1 446.155 LINE SMOOTH",
"157.1 476.33 OFFCURVE",
"152.7 492.79 OFFCURVE",
"121.21 492.79 CURVE SMOOTH"
);
},
{
closed = 1;
nodes = (
"472.46 399.88 OFFCURVE",
"414.46 501.805 OFFCURVE",
"305.67 501.805 CURVE SMOOTH",
"214.79 501.805 OFFCURVE",
"148 438.105 OFFCURVE",
"122.745 379.465 CURVE",
"134.37 310.78 LINE",
"159.34 390.36 OFFCURVE",
"230.625 441.855 OFFCURVE",
"293.12 441.855 CURVE SMOOTH",
"350.48 441.855 OFFCURVE",
"403.93 387.615 OFFCURVE",
"403.93 250.91 CURVE SMOOTH",
"403.93 109.115 OFFCURVE",
"342.255 52.13 OFFCURVE",
"281.045 52.13 CURVE SMOOTH",
"219.58 52.13 OFFCURVE",
"166.4 91.34 OFFCURVE",
"128.415 120.295 CURVE",
"125.775 58.075 LINE",
"173.835 19.895 OFFCURVE",
"226.85 -7.97 OFFCURVE",
"286.7 -7.97 CURVE SMOOTH",
"372.31 -7.97 OFFCURVE",
"472.46 67.745 OFFCURVE",
"472.46 250.925 CURVE SMOOTH"
);
}
);
width = 524.79;
}
);
leftKerningGroup = m;
unicode = 0070;
},
{
glyphname = q;
lastChange = "2018-10-16 19:32:45 +0000";
layers = (
{
anchors = (
{
name = bottom;
position = "{261, -20}";
},
{
name = top;
position = "{261, 542}";
}
);
layerId = UUID0;
paths = (
{
closed = 1;
nodes = (
"52 92 OFFCURVE",
"110 -8 OFFCURVE",
"222 -8 CURVE SMOOTH",
"307 -8 OFFCURVE",
"370 52 OFFCURVE",
"394 90 CURVE",
"383 153 LINE",
"354 99 OFFCURVE",
"293 53 OFFCURVE",
"231 53 CURVE SMOOTH",
"174 53 OFFCURVE",
"122 108 OFFCURVE",
"122 244 CURVE SMOOTH",
"122 384 OFFCURVE",
"183 441 OFFCURVE",
"246 441 CURVE SMOOTH",
"305 441 OFFCURVE",
"365 403 OFFCURVE",
"398 360 CURVE",
"405 425 LINE",
"366 466 OFFCURVE",
"318 502 OFFCURVE",
"237 502 CURVE SMOOTH",
"152 502 OFFCURVE",
"52 425 OFFCURVE",
"52 244 CURVE SMOOTH"
);
},
{
closed = 1;
nodes = (
"366 -167 LINE",
"366 -198 OFFCURVE",
"371 -215 OFFCURVE",
"403 -215 CURVE SMOOTH",
"428 -215 LINE",
"434 -209 LINE",
"434 352 LINE SMOOTH",
"434 395 OFFCURVE",
"437 437 OFFCURVE",
"462 461 CURVE",
"457 474 OFFCURVE",
"444 490 OFFCURVE",
"429 497 CURVE",
"378 477 OFFCURVE",
"366 429 OFFCURVE",
"366 377 CURVE SMOOTH"
);
}
);
width = 523;
},
{
anchors = (
{
name = bottom;
position = "{261, -20}";
},
{
name = top;
position = "{261, 542}";
}
);
layerId = UUID1;
paths = (
{
closed = 1;
nodes = (
"30 97 OFFCURVE",
"88 -10 OFFCURVE",
"211 -10 CURVE SMOOTH",
"280 -10 OFFCURVE",
"345 30 OFFCURVE",
"379 88 CURVE",
"356 201 LINE",
"330 147 OFFCURVE",
"291 121 OFFCURVE",
"253 121 CURVE SMOOTH",
"221 121 OFFCURVE",
"198 159 OFFCURVE",
"198 248 CURVE SMOOTH",
"198 337 OFFCURVE",
"214 394 OFFCURVE",
"261 394 CURVE SMOOTH",
"295 394 OFFCURVE",
"342 355 OFFCURVE",
"381 280 CURVE",
"408 413 LINE",
"384 457 OFFCURVE",
"331 515 OFFCURVE",
"232 515 CURVE SMOOTH",
"121 515 OFFCURVE",
"30 420 OFFCURVE",
"30 249 CURVE SMOOTH"
);
},
{
closed = 1;
nodes = (
"321 -118 LINE",
"321 -191 OFFCURVE",
"346 -216 OFFCURVE",
"410 -216 CURVE SMOOTH",
"474 -216 LINE",
"481 -209 LINE",
"481 355 LINE SMOOTH",
"481 386 OFFCURVE",
"493 413 OFFCURVE",
"509 424 CURVE",
"503 453 OFFCURVE",
"480 492 OFFCURVE",
"460 508 CURVE",
"369 508 OFFCURVE",
"321 441 OFFCURVE",
"321 355 CURVE SMOOTH"
);
}
);
width = 540;
},
{
anchors = (
{
name = bottom;
position = "{261, -20}";
},
{
name = top;
position = "{261, 542}";
}
);
layerId = "3CDB9BDF-2CAB-4C38-BE1D-F1DC035F661C";
paths = (
{
closed = 1;
nodes = (
"22.3 98.75 OFFCURVE",
"80.3 -10.7 OFFCURVE",
"207.15 -10.7 CURVE SMOOTH",
"270.55 -10.7 OFFCURVE",
"336.25 22.3 OFFCURVE",
"373.75 87.3 CURVE",
"346.55 217.8 LINE",
"321.6 163.8 OFFCURVE",
"290.3 144.8 OFFCURVE",
"260.7 144.8 CURVE SMOOTH",
"237.45 144.8 OFFCURVE",
"224.6 176.85 OFFCURVE",
"224.6 249.4 CURVE SMOOTH",
"224.6 320.55 OFFCURVE",
"224.85 377.55 OFFCURVE",
"266.25 377.55 CURVE SMOOTH",
"291.5 377.55 OFFCURVE",
"333.95 338.2 OFFCURVE",
"375.05 252 CURVE",
"409.05 408.8 LINE",
"390.3 453.85 OFFCURVE",
"335.55 519.55 OFFCURVE",
"230.25 519.55 CURVE SMOOTH",
"110.15 519.55 OFFCURVE",
"22.3 418.25 OFFCURVE",
"22.3 250.75 CURVE SMOOTH"
);
},
{
closed = 1;
nodes = (
"305.25 -100.85 LINE",
"305.25 -188.55 OFFCURVE",
"337.25 -216.35 OFFCURVE",
"412.45 -216.35 CURVE SMOOTH",
"490.1 -216.35 LINE",
"497.45 -209 LINE",
"497.45 356.05 LINE SMOOTH",
"497.45 382.85 OFFCURVE",
"512.6 404.6 OFFCURVE",
"525.45 411.05 CURVE",
"519.1 445.65 OFFCURVE",
"492.6 492.7 OFFCURVE",
"470.85 511.85 CURVE",
"365.85 518.85 OFFCURVE",
"305.25 445.2 OFFCURVE",
"305.25 347.3 CURVE SMOOTH"
);
}
);
width = 545.95;
},
{
anchors = (
{
name = bottom;
position = "{261, -20}";
},
{
name = top;
position = "{261, 542}";
}
);
layerId = "E4378254-F350-404F-89FA-E431A9318E35";
paths = (
{
closed = 1;
nodes = (
"52.33 91.925 OFFCURVE",
"110.33 -7.97 OFFCURVE",
"222.165 -7.97 CURVE SMOOTH",
"307.405 -7.97 OFFCURVE",
"370.375 52.33 OFFCURVE",
"394.225 90.03 CURVE",
"383.405 152.28 LINE",
"354.36 98.28 OFFCURVE",
"293.03 51.98 OFFCURVE",
"230.67 51.98 CURVE SMOOTH",
"173.295 51.98 OFFCURVE",
"120.86 107.235 OFFCURVE",
"120.86 243.94 CURVE SMOOTH",
"120.86 384.705 OFFCURVE",
"182.535 441.705 OFFCURVE",
"245.775 441.705 CURVE SMOOTH",
"305.15 441.705 OFFCURVE",
"365.345 403.72 OFFCURVE",
"398.255 361.2 CURVE",
"404.955 425.18 LINE",
"365.73 466.135 OFFCURVE",
"317.805 501.805 OFFCURVE",
"237.075 501.805 CURVE SMOOTH",
"152.465 501.805 OFFCURVE",
"52.33 425.075 OFFCURVE",
"52.33 243.925 CURVE SMOOTH"
);
},
{
closed = 1;
nodes = (
"366.675 -167.735 LINE",
"366.675 -198.105 OFFCURVE",
"371.375 -214.985 OFFCURVE",
"402.895 -214.985 CURVE SMOOTH",
"427.31 -214.985 LINE",
"433.295 -209 LINE",
"433.295 351.955 LINE SMOOTH",
"433.295 395.135 OFFCURVE",
"436.16 437.36 OFFCURVE",
"461.295 461.555 CURVE",
"456.31 474.315 OFFCURVE",
"443.46 489.97 OFFCURVE",
"428.535 496.835 CURVE",
"378.135 476.535 OFFCURVE",
"366.675 428.82 OFFCURVE",
"366.675 377.33 CURVE SMOOTH"
);
}
);
width = 522.745;
}
);
leftKerningGroup = d;
unicode = 0071;
},
